<svg width="129" height="151" viewBox="0 0 129 151" fill="none" xmlns="http://www.w3.org/2000/svg">
<g style="mix-blend-mode:lighten">
<path d="M18.9928 129.486L17.5446 126.859H17.5446L18.9928 129.486ZM17.1489 126.694C16.2806 125.283 14.4327 124.843 13.0216 125.711C11.6106 126.58 11.1706 128.428 12.039 129.839L17.1489 126.694ZM20.7623 123.14L18.2073 124.712H18.2073L20.7623 123.14ZM9.65805 120.245L11.1063 122.872H11.1063L9.65805 120.245ZM4.76665 137.328L2.21167 138.9H2.21167L4.76665 137.328ZM34.0724 144.768L35.5206 147.395L34.0724 144.768ZM109.745 129.486L111.175 126.849H111.175L109.745 129.486ZM116.759 129.857C117.638 128.453 117.212 126.602 115.807 125.723C114.402 124.844 112.551 125.271 111.673 126.676L116.759 129.857ZM107.946 123.14L110.49 124.731L107.946 123.14ZM119.233 120.245L120.663 117.608L119.233 120.245ZM124.204 137.328L126.748 138.919L124.204 137.328ZM94.4182 144.768L92.988 147.405L94.4182 144.768ZM67 3C67 1.34315 65.6568 0 64 0C62.3431 0 61 1.34315 61 3H67ZM17.5446 126.859C17.5343 126.865 17.4812 126.889 17.3777 126.86C17.2737 126.831 17.1943 126.768 17.1489 126.694L12.039 129.839C13.7656 132.644 17.4727 133.75 20.4411 132.114L17.5446 126.859ZM18.2073 124.712C18.6296 125.398 18.4573 126.356 17.5446 126.859L20.4411 132.114C24.2091 130.037 25.6211 125.311 23.3173 121.568L18.2073 124.712ZM11.1063 122.872C13.5619 121.519 16.7661 122.37 18.2073 124.712L23.3173 121.568C20.1824 116.473 13.4439 114.733 8.20984 117.618L11.1063 122.872ZM7.32162 135.756C4.63221 131.385 6.14556 125.607 11.1063 122.872L8.20984 117.618C0.465771 121.887 -2.40104 131.404 2.21167 138.9L7.32162 135.756ZM32.6241 142.141C23.785 147.013 12.4442 144.08 7.32162 135.756L2.21167 138.9C9.06459 150.036 23.9652 153.765 35.5206 147.395L32.6241 142.141ZM35.5206 147.395C38.3741 145.823 41.7231 143.168 45.0416 140.224C48.3993 137.245 51.8767 133.831 55.0078 130.621C58.1428 127.407 60.9528 124.373 62.9781 122.144C63.9914 121.029 64.8097 120.113 65.3759 119.476C65.659 119.157 65.8792 118.907 66.0292 118.736C66.1043 118.651 66.1618 118.585 66.2009 118.541C66.2204 118.518 66.2353 118.501 66.2456 118.489C66.2507 118.484 66.2546 118.479 66.2573 118.476C66.2587 118.474 66.2598 118.473 66.2606 118.472C66.2609 118.472 66.2613 118.471 66.2615 118.471C66.2618 118.471 66.262 118.471 64 116.5C61.738 114.529 61.7381 114.529 61.738 114.529C61.7379 114.529 61.7378 114.53 61.7376 114.53C61.7372 114.53 61.7365 114.531 61.7354 114.532C61.7334 114.535 61.7302 114.538 61.7257 114.543C61.7169 114.554 61.7034 114.569 61.6853 114.59C61.6491 114.631 61.5946 114.693 61.5226 114.775C61.3786 114.939 61.1649 115.181 60.8887 115.493C60.336 116.115 59.5333 117.013 58.5375 118.109C56.5447 120.302 53.7847 123.282 50.7125 126.432C47.6363 129.586 44.2692 132.888 41.0594 135.736C37.8105 138.619 34.8692 140.903 32.6241 142.141L35.5206 147.395ZM108.315 132.123C111.28 133.731 115.005 132.662 116.759 129.857L111.673 126.676C111.627 126.748 111.54 126.822 111.412 126.857C111.284 126.892 111.204 126.865 111.175 126.849L108.315 132.123ZM105.403 121.549C103.043 125.322 104.512 130.061 108.315 132.123L111.175 126.849C110.22 126.331 110.079 125.387 110.49 124.731L105.403 121.549ZM120.663 117.608C115.393 114.75 108.587 116.458 105.403 121.549L110.49 124.731C111.957 122.386 115.257 121.502 117.803 122.882L120.663 117.608ZM126.748 138.919C131.455 131.393 128.507 121.862 120.663 117.608L117.803 122.882C122.872 125.632 124.376 131.397 121.661 135.737L126.748 138.919ZM92.988 147.405C104.684 153.748 119.785 150.051 126.748 138.919L121.661 135.737C116.452 144.065 104.881 147.03 95.8484 142.131L92.988 147.405ZM95.8484 142.131C93.5607 140.89 90.5679 138.603 87.2658 135.72C84.0026 132.871 80.5798 129.568 77.453 126.414C74.3302 123.264 71.5248 120.284 69.4992 118.091C68.4871 116.995 67.6711 116.097 67.1094 115.475C66.8285 115.163 66.6113 114.921 66.465 114.757C66.3918 114.675 66.3364 114.613 66.2996 114.572C66.2812 114.551 66.2675 114.535 66.2585 114.525C66.254 114.52 66.2507 114.516 66.2486 114.514C66.2476 114.513 66.2468 114.512 66.2464 114.512C66.2462 114.511 66.2461 114.511 66.246 114.511C66.246 114.511 66.246 114.511 64 116.5C61.754 118.489 61.7542 118.489 61.7545 118.489C61.7547 118.49 61.755 118.49 61.7554 118.49C61.7562 118.491 61.7573 118.493 61.7587 118.494C61.7615 118.497 61.7655 118.502 61.7706 118.508C61.781 118.519 61.7962 118.536 61.8161 118.559C61.8558 118.603 61.9142 118.669 61.9905 118.754C62.143 118.925 62.3667 119.175 62.6545 119.494C63.2299 120.132 64.0616 121.047 65.0915 122.162C67.1499 124.391 70.0057 127.424 73.1919 130.638C76.3741 133.848 79.9081 137.261 83.32 140.24C86.693 143.185 90.0936 145.836 92.988 147.405L95.8484 142.131ZM61 3V116.5H67V3H61Z" fill="#2CC6BA"/>
</g>
</svg>
