<svg width="555" height="109" viewBox="0 0 555 109" fill="none" xmlns="http://www.w3.org/2000/svg">
<g style="mix-blend-mode:lighten">
<path d="M374.981 69.3684C376.121 70.508 377.562 71.2983 379.136 71.6463L383.643 72.6433L382.646 68.1358C382.298 66.5622 381.508 65.1209 380.368 63.9813L377.081 60.6936C375.593 59.206 373.181 59.206 371.694 60.6936V60.6936C370.206 62.1812 370.206 64.5931 371.694 66.0808L374.981 69.3684Z" stroke="#DE40BA" stroke-width="8.24" stroke-linejoin="round"/>
</g>
<g style="mix-blend-mode:lighten">
<circle cx="249.115" cy="53.6416" r="11.6083" transform="rotate(75.7554 249.115 53.6416)" stroke="#F366F7" stroke-width="8.24"/>
</g>
<g style="mix-blend-mode:lighten">
<path d="M259 25.0168C259 23.903 258.097 23 256.983 23C244.842 23 235 32.8422 235 44.9832V45.9832C235 47.0971 235.903 48 237.017 48C249.158 48 259 38.1578 259 26.0168V25.0168Z" fill="#2CC6BA"/>
</g>
<g style="mix-blend-mode:lighten">
<path d="M229.562 92.8345C230.37 92.0457 230.385 90.7513 229.596 89.9435C220.998 81.1382 206.89 80.9701 198.085 89.5681L197.463 90.1751C196.655 90.9639 196.64 92.2582 197.428 93.0661C206.026 101.871 220.135 102.04 228.94 93.4415L229.562 92.8345Z" fill="#2CC6BA"/>
</g>
<g style="mix-blend-mode:lighten">
<path d="M68 38.1779C75.8043 38.365 92.7214 37.1149 98.5936 25.621M98.5936 25.621C102.683 14.4246 89.0245 10.0653 83.02 18.8355C77.0156 27.6058 78.7547 37.4563 86.3066 42.0799C93.8586 46.7035 103.977 44.0814 106.777 36.6969C108.994 30.8488 103.153 25.4832 98.5936 25.621Z" stroke="#DE40BA" stroke-width="8.24" stroke-linecap="round" stroke-linejoin="round"/>
</g>
<g style="mix-blend-mode:lighten">
<circle cx="111.296" cy="16.2188" r="4.39025" transform="rotate(112.908 111.296 16.2188)" fill="#F8D113"/>
</g>
<g style="mix-blend-mode:lighten">
<g style="mix-blend-mode:screen">
<path d="M509.904 57.1202C511.922 60.6403 512.404 65.4458 512.486 68.4903C512.527 69.968 511.078 70.94 509.681 70.455V70.455C500.294 67.1947 494 58.347 494 48.4092V37.7786" stroke="#F366F7" stroke-width="8.24" stroke-linecap="round" stroke-linejoin="round"/>
</g>
<g style="mix-blend-mode:screen">
<path d="M495.521 37.7786H494.001L495.322 40.1379C502.185 52.3909 515.132 59.9794 529.176 59.9794H530.666L529.582 57.9936C522.781 45.5317 509.718 37.7786 495.521 37.7786Z" stroke="#F366F7" stroke-width="8.24" stroke-linejoin="round"/>
</g>
<g style="mix-blend-mode:screen">
<path d="M509.904 18.296C511.922 14.7759 512.404 9.97042 512.486 6.92594C512.527 5.4482 511.078 4.47621 509.681 4.9612V4.9612C500.294 8.22153 494 17.0692 494 27.0071V37.6376" stroke="#F366F7" stroke-width="8.24" stroke-linecap="round" stroke-linejoin="round"/>
</g>
<g style="mix-blend-mode:screen">
<path d="M495.521 37.6376H494.001L495.322 35.2783C502.185 23.0253 515.132 15.4368 529.176 15.4368H530.666L529.582 17.4226C522.781 29.8846 509.718 37.6376 495.521 37.6376Z" stroke="#F366F7" stroke-width="8.24" stroke-linejoin="round"/>
</g>
<g style="mix-blend-mode:screen">
<path d="M529.678 47.0041C533.592 47.0041 537.424 45.8861 540.724 43.7818L550.175 37.7538L540.724 31.7258C537.424 29.6214 533.592 28.5034 529.678 28.5034L518.388 28.5034C513.279 28.5034 509.137 32.6449 509.137 37.7538V37.7538C509.137 42.8626 513.279 47.0041 518.388 47.0041H529.678Z" stroke="#DE40BA" stroke-width="8.24" stroke-linejoin="round"/>
</g>
</g>
<g style="mix-blend-mode:lighten">
<path d="M-26 7L56 6.99999" stroke="#2CC6BA" stroke-width="8.24" stroke-linecap="round"/>
</g>
<g style="mix-blend-mode:lighten">
<path d="M205 7.00003H470" stroke="#2CC6BA" stroke-width="8.24" stroke-linecap="round"/>
</g>
<g style="mix-blend-mode:lighten">
<path d="M201 53H237" stroke="#2C80BA" stroke-width="8.24" stroke-linecap="round"/>
</g>
<g style="mix-blend-mode:lighten">
<path d="M434 76H480" stroke="#2C80BA" stroke-width="8.24" stroke-linecap="round"/>
</g>
<g style="mix-blend-mode:lighten">
<path d="M446 38L493 38" stroke="#2C80BA" stroke-width="8.24" stroke-linecap="round"/>
</g>
<g style="mix-blend-mode:lighten">
<path d="M59 92L199 92" stroke="#FFDDC9" stroke-width="8.24" stroke-linecap="round"/>
</g>
<g style="mix-blend-mode:lighten">
<path d="M58 38L71 38" stroke="#2C80BA" stroke-width="8.24" stroke-linecap="round"/>
</g>
<g style="mix-blend-mode:lighten">
<path d="M9 59L9 42" stroke="#2C80BA" stroke-width="8.24" stroke-linecap="round"/>
</g>
<g style="mix-blend-mode:lighten">
<path d="M177 35V14" stroke="#2C80BA" stroke-width="8.24" stroke-linecap="round"/>
</g>
<g style="mix-blend-mode:lighten">
<path d="M308 75L308 48" stroke="#2C80BA" stroke-width="8.24" stroke-linecap="round"/>
</g>
<g style="mix-blend-mode:lighten">
<path d="M410 75L410 52" stroke="#2C80BA" stroke-width="8.24" stroke-linecap="round"/>
</g>
<g style="mix-blend-mode:lighten">
<path d="M471 85L471 67" stroke="#2C80BA" stroke-width="8.24" stroke-linecap="round"/>
</g>
<g style="mix-blend-mode:lighten">
<path d="M24 74V57" stroke="#2C80BA" stroke-width="8.24" stroke-linecap="round"/>
</g>
<g style="mix-blend-mode:lighten">
<path d="M162 50V29" stroke="#2C80BA" stroke-width="8.24" stroke-linecap="round"/>
</g>
<g style="mix-blend-mode:lighten">
<path d="M39 89V72" stroke="#2C80BA" stroke-width="8.24" stroke-linecap="round"/>
</g>
<g style="mix-blend-mode:lighten">
<path d="M147 65V44" stroke="#2C80BA" stroke-width="8.24" stroke-linecap="round"/>
</g>
<g style="mix-blend-mode:lighten">
<path d="M24 7.00003L55 38" stroke="#2C80BA" stroke-width="8.24" stroke-linecap="round"/>
</g>
<g style="mix-blend-mode:lighten">
<path d="M120 92L205 7.00003" stroke="#2CC6BA" stroke-width="8.24" stroke-linecap="round"/>
</g>
<g style="mix-blend-mode:lighten">
<path d="M356 92L271 7.00003" stroke="#2CC6BA" stroke-width="8.24" stroke-linecap="round"/>
</g>
<g style="mix-blend-mode:lighten">
<path d="M373 62L318 7.00003" stroke="#2C80BA" stroke-width="8.24" stroke-linecap="round"/>
</g>
<g style="mix-blend-mode:lighten">
<path d="M446 38L415 7.00003" stroke="#2C80BA" stroke-width="8.24" stroke-linecap="round"/>
</g>
<g style="mix-blend-mode:lighten">
<path d="M449 91L365 7.00003" stroke="#2CC6BA" stroke-width="8.24" stroke-linecap="round"/>
</g>
<g style="mix-blend-mode:lighten">
<path d="M162 92L201 53" stroke="#2C80BA" stroke-width="8.24" stroke-linecap="round"/>
</g>
<g style="mix-blend-mode:lighten">
<path d="M-11 22L59 92" stroke="#F8D113" stroke-width="8.24" stroke-linecap="round"/>
</g>
</svg>
