<svg width="290" height="453" viewBox="0 0 290 453" fill="none" xmlns="http://www.w3.org/2000/svg">
<g filter="url(#filter0_f_608_1733)">
<path d="M254.933 192.966L169.417 46.063C157.9 26.2799 152.142 16.3883 143.568 16.4303C134.994 16.4723 129.333 26.4198 118.011 46.3148L118.011 46.3149L34.0652 193.825C22.2709 214.55 16.3737 224.913 16.6074 236.214C16.8412 247.514 23.1617 257.624 35.8029 277.844L118.309 409.815C129.455 427.642 135.027 436.555 143.182 436.608C151.337 436.66 157.024 427.819 168.398 410.138L253.03 278.575C266.25 258.023 272.86 247.747 273.117 236.196C273.374 224.645 267.227 214.085 254.933 192.966Z" fill="#2C40BA"/>
</g>
<line opacity="0.1" y1="-0.142394" x2="356.555" y2="-0.142394" transform="matrix(-4.37114e-08 1 1 4.37114e-08 144.211 56.6498)" stroke="#2C40BA" stroke-width="0.284789"/>
<path d="M144.496 381.878L104.341 321.218" stroke="#2C40BA" stroke-width="6.83493" stroke-linecap="round" stroke-linejoin="round"/>
<path d="M144.496 381.878L184.651 321.218" stroke="#2C40BA" stroke-width="6.83493" stroke-linecap="round" stroke-linejoin="round"/>
<g style="mix-blend-mode:screen">
<path d="M112.237 238.914L112.237 291.031" stroke="#2C40BA" stroke-width="6.83493" stroke-linecap="round"/>
<path d="M176.599 238.914L176.599 291.03" stroke="#2C40BA" stroke-width="6.83493" stroke-linecap="round"/>
</g>
<path d="M144.204 332.662C127.769 320.864 104.152 321.219 104.152 321.219" stroke="#2C40BA" stroke-width="6.83493" stroke-linecap="round"/>
<path d="M144.402 332.662C160.838 320.864 184.454 321.219 184.454 321.219" stroke="#2C40BA" stroke-width="6.83493" stroke-linecap="round"/>
<path d="M128.043 115.236C123.344 112.543 115.939 113.082 115.939 113.082L117.044 116.263C119.63 123.709 126.648 128.701 134.531 128.701H144.418" stroke="#2C40BA" stroke-width="6.83493" stroke-linecap="round" stroke-linejoin="round"/>
<path d="M144.418 121.607V128.701L137.418 124.78C130.133 120.701 125.622 113.003 125.622 104.654V97.6592L132.4 101.358C139.809 105.401 144.418 113.167 144.418 121.607Z" stroke="#2C40BA" stroke-width="6.83493" stroke-linejoin="round"/>
<g style="mix-blend-mode:lighten">
<path d="M144.418 122.72L144.418 137.831L144.418 206.164" stroke="#2C40BA" stroke-width="6.83493" stroke-linecap="round"/>
</g>
<g style="mix-blend-mode:lighten">
<path d="M144.418 183.691L130.239 173.983" stroke="#2C40BA" stroke-width="6.83493" stroke-linecap="round" stroke-linejoin="round"/>
</g>
<g style="mix-blend-mode:lighten">
<path d="M144.252 183.691L158.432 173.983" stroke="#2C40BA" stroke-width="6.83493" stroke-linecap="round" stroke-linejoin="round"/>
</g>
<path d="M160.912 115.236C165.611 112.543 173.016 113.082 173.016 113.082L171.911 116.263C169.325 123.709 162.307 128.701 154.424 128.701H144.537" stroke="#2C40BA" stroke-width="6.83493" stroke-linecap="round" stroke-linejoin="round"/>
<path d="M144.537 121.607V128.701L151.538 124.78C158.822 120.701 163.333 113.003 163.333 104.654V97.6592L156.555 101.358C149.146 105.401 144.537 113.167 144.537 121.607Z" stroke="#2C40BA" stroke-width="6.83493" stroke-linejoin="round"/>
<path d="M95.8209 155.214C93.2789 166.572 104.3 177.179 109.824 181.542C115.347 185.906 144.425 206.034 144.425 206.034M95.8209 155.214C99.429 145.09 111.418 149.928 110.536 159.471C109.653 169.015 102.775 174.85 94.8722 173.711C86.9692 172.572 81.4564 164.926 83.7651 158.19C85.5935 152.855 92.7363 152.494 95.8209 155.214Z" stroke="#2C40BA" stroke-width="6.83493" stroke-linecap="round" stroke-linejoin="round"/>
<circle cx="3.95877" cy="3.95877" r="3.95877" transform="matrix(-0.246062 0.969254 0.969254 0.246062 88.6172 136.893)" fill="#2C40BA"/>
<path d="M192.85 155.214C195.392 166.572 184.371 177.179 178.847 181.542C173.323 185.906 144.246 206.034 144.246 206.034M192.85 155.214C189.242 145.09 177.253 149.928 178.135 159.471C179.018 169.015 185.896 174.85 193.799 173.711C201.702 172.572 207.214 164.926 204.906 158.19C203.077 152.855 195.935 152.494 192.85 155.214Z" stroke="#2C40BA" stroke-width="6.83493" stroke-linecap="round" stroke-linejoin="round"/>
<circle cx="197.191" cy="141.704" r="3.95877" transform="rotate(75.7554 197.191 141.704)" fill="#2C40BA"/>
<g style="mix-blend-mode:screen">
<path d="M131.887 197.335H97.7121" stroke="#2C40BA" stroke-width="6.83493" stroke-linecap="round"/>
</g>
<g style="mix-blend-mode:screen">
<circle cx="10.6614" cy="10.6614" r="7.24395" transform="matrix(-0.246062 0.969254 0.969254 0.246062 82.4541 186.513)" stroke="#2C40BA" stroke-width="6.83493"/>
</g>
<g style="mix-blend-mode:screen">
<path d="M82.9038 180.236C82.9038 179.456 83.536 178.824 84.3158 178.824V178.824C92.8157 178.824 99.7063 185.715 99.7063 194.215V194.215C99.7063 194.994 99.0742 195.626 98.2944 195.626V195.626C89.7944 195.626 82.9038 188.736 82.9038 180.236V180.236Z" fill="#2C40BA"/>
</g>
<g style="mix-blend-mode:screen">
<path d="M156.783 197.335H190.958" stroke="#2C40BA" stroke-width="6.83493" stroke-linecap="round"/>
</g>
<g style="mix-blend-mode:screen">
<circle cx="198.506" cy="199.47" r="7.24395" transform="rotate(75.7554 198.506 199.47)" stroke="#2C40BA" stroke-width="6.83493"/>
</g>
<g style="mix-blend-mode:screen">
<path d="M205.767 180.236C205.767 179.456 205.134 178.824 204.355 178.824V178.824C195.855 178.824 188.964 185.714 188.964 194.214V194.214C188.964 194.994 189.596 195.626 190.376 195.626V195.626C198.876 195.626 205.767 188.736 205.767 180.236V180.236Z" fill="#2C40BA"/>
</g>
<path fill-rule="evenodd" clip-rule="evenodd" d="M124.953 272.472C123.354 271.47 121.245 271.954 120.242 273.553C119.24 275.152 119.724 277.261 121.323 278.263L142.17 291.327C142.808 291.885 143.627 292.179 144.458 292.17C145.288 292.179 146.108 291.885 146.746 291.327L167.592 278.263C169.192 277.261 169.676 275.152 168.674 273.553C167.671 271.954 165.562 271.47 163.963 272.472L144.458 284.695L124.953 272.472Z" fill="#2C40BA"/>
<path fill-rule="evenodd" clip-rule="evenodd" d="M102.465 250.398C106.536 248.168 111.362 244.373 116.199 240.106C121.081 235.8 126.145 230.859 130.712 226.204C135.284 221.544 139.383 217.146 142.337 213.913C143.816 212.296 145.009 210.969 145.834 210.045C146.247 209.583 146.567 209.221 146.786 208.974C146.895 208.851 146.978 208.756 147.035 208.692L147.099 208.618L147.116 208.599L147.121 208.594L147.122 208.593C147.122 208.592 147.123 208.592 144.418 206.411L147.123 208.592C148.346 207.197 148.126 205.089 146.632 203.884C145.138 202.68 142.936 202.834 141.713 204.23L141.844 204.335L141.713 204.23L141.713 204.231L141.709 204.234L141.695 204.251L141.635 204.319C141.581 204.38 141.501 204.471 141.395 204.591C141.184 204.83 140.87 205.183 140.465 205.637C139.654 206.545 138.478 207.853 137.019 209.449C134.1 212.643 130.056 216.983 125.553 221.573C121.045 226.167 116.103 230.986 111.384 235.148C106.62 239.351 102.25 242.733 98.8675 244.587C85.5629 251.877 68.5696 247.52 60.8383 235.065C60.8327 235.056 60.827 235.047 60.8212 235.037C56.5513 228.14 59.0166 219.016 66.7649 214.764L66.7736 214.759C70.7556 212.577 75.8544 213.922 78.1977 217.68L78.2116 217.703C79.1603 219.235 78.6747 221.363 76.823 222.378L76.8109 222.384C76.3334 222.637 75.5842 222.509 75.1878 221.869C74.1944 220.264 72.0472 219.698 70.392 220.605C68.7368 221.512 68.2004 223.548 69.1938 225.153C71.4985 228.876 76.4983 230.339 80.4204 228.189L80.4516 228.172C85.408 225.435 87.2279 219.341 84.226 214.451L84.2058 214.418C79.8556 207.391 70.439 204.977 63.1889 208.941L63.1759 208.948C52.3692 214.87 48.432 227.95 54.8069 238.289C54.8135 238.3 54.8202 238.311 54.827 238.322C64.611 254.127 85.9645 259.44 102.465 250.398Z" fill="#2C40BA"/>
<path fill-rule="evenodd" clip-rule="evenodd" d="M186.449 250.398C182.378 248.168 177.552 244.373 172.715 240.106C167.833 235.8 162.769 230.859 158.202 226.204C153.63 221.544 149.531 217.146 146.577 213.913C145.099 212.296 143.905 210.969 143.08 210.045C142.667 209.583 142.347 209.221 142.128 208.974C142.019 208.851 141.936 208.756 141.879 208.692L141.815 208.618L141.798 208.599L141.793 208.594L141.792 208.593C141.792 208.592 141.791 208.592 144.496 206.411L141.791 208.592C140.569 207.197 140.788 205.089 142.282 203.884C143.776 202.68 145.978 202.834 147.201 204.23L147.07 204.335L147.201 204.23L147.201 204.231L147.205 204.234L147.219 204.251L147.279 204.319C147.333 204.38 147.413 204.471 147.519 204.591C147.73 204.83 148.044 205.183 148.449 205.637C149.26 206.545 150.436 207.853 151.895 209.449C154.814 212.643 158.859 216.983 163.361 221.573C167.869 226.167 172.811 230.986 177.53 235.148C182.294 239.351 186.664 242.733 190.047 244.587C203.361 251.883 220.37 247.514 228.093 235.037C228.099 235.027 228.106 235.017 228.112 235.007C232.356 228.113 229.887 219.009 222.15 214.764L222.141 214.759C218.151 212.573 213.04 213.927 210.703 217.702L210.687 217.727C209.759 219.258 210.249 221.368 212.091 222.378L212.103 222.384C212.581 222.637 213.33 222.509 213.726 221.869C214.72 220.264 216.867 219.698 218.522 220.605C220.177 221.512 220.714 223.548 219.72 225.153C217.416 228.876 212.416 230.339 208.494 228.189L208.462 228.172C203.495 225.429 201.678 219.313 204.708 214.418C204.717 214.404 204.726 214.391 204.734 214.377C209.096 207.381 218.491 204.984 225.727 208.941L225.739 208.948C236.557 214.876 240.491 227.977 234.087 238.322C234.08 238.334 234.073 238.345 234.065 238.357C224.271 254.135 202.937 259.433 186.449 250.398Z" fill="#2C40BA"/>
<g style="mix-blend-mode:screen">
<path d="M111.916 238.06L111.916 290.176" stroke="#F8D113" stroke-width="6.83493" stroke-linecap="round"/>
<path d="M176.279 238.06L176.279 290.176" stroke="#F8D113" stroke-width="6.83493" stroke-linecap="round"/>
</g>
<path fill-rule="evenodd" clip-rule="evenodd" d="M144.532 245.589L126.944 275.452L144.532 301.475L162.12 275.452L144.532 245.589ZM144.532 310.944C144.52 310.944 144.508 310.944 144.497 310.944H131.287L144.532 328.462L157.776 310.944H144.567C144.555 310.944 144.543 310.944 144.532 310.944ZM144.532 339.362L140.869 343.486C139.329 345.221 139.22 347.799 140.609 349.658C141.58 350.957 143.019 351.608 144.488 351.618C144.497 351.618 144.506 351.618 144.515 351.618M144.549 351.618C144.558 351.618 144.567 351.618 144.575 351.618ZM144.575 351.618C146.045 351.608 147.484 350.957 148.455 349.658C149.844 347.799 149.735 345.221 148.194 343.486L144.532 339.362M144.532 358.453C148.043 358.456 151.584 356.888 153.929 353.75C157.261 349.293 157 343.108 153.305 338.947L148.912 334.002L166.355 310.931C176.667 310.769 185.719 309.105 194.002 304.181C202.718 299.001 210.189 290.446 217.468 277.226C217.482 277.2 217.496 277.175 217.509 277.149L226.203 260.355C226.86 259.087 226.659 257.545 225.7 256.488C224.74 255.43 223.225 255.081 221.9 255.611L211.296 259.851C197.33 265.437 185.154 274.73 176.083 286.729L162.943 304.109H151.001L168.991 277.491C169.729 276.399 169.773 274.979 169.104 273.843L147.512 237.18C146.869 236.089 145.714 235.485 144.532 235.496C143.35 235.485 142.195 236.089 141.552 237.18L119.959 273.843C119.29 274.979 119.334 276.399 120.072 277.491L138.062 304.109H126.12L112.981 286.729C103.909 274.73 91.7337 265.437 77.7675 259.851L67.1641 255.611C65.8385 255.081 64.3231 255.43 63.3639 256.488C62.4047 257.545 62.2038 259.087 62.8602 260.355L71.5545 277.149C71.5679 277.175 71.5817 277.2 71.5957 277.226C78.8746 290.446 86.3457 299.001 95.0611 304.181C103.344 309.105 112.397 310.769 122.709 310.931L140.151 334.002L135.759 338.947C132.064 343.108 131.803 349.293 135.134 353.75C137.48 356.888 141.02 358.456 144.532 358.453ZM98.5535 298.306C104.087 301.595 110.167 303.239 117.346 303.837L107.528 290.851C99.208 279.845 88.0399 271.321 75.2295 266.197L73.1512 265.366L77.6041 273.967C84.5488 286.571 91.2748 293.979 98.5535 298.306ZM190.51 298.306C184.977 301.595 178.897 303.239 171.717 303.837L181.535 290.851C189.856 279.845 201.024 271.321 213.834 266.197L215.912 265.366L211.459 273.967C204.515 286.571 197.789 293.979 190.51 298.306Z" fill="#2C40BA"/>
<g style="mix-blend-mode:lighten">
<path d="M144.418 160.028L123.219 147.697C118.888 145.178 116.224 140.546 116.224 135.536V135.536" stroke="#2C40BA" stroke-width="6.83493" stroke-linecap="round" stroke-linejoin="round"/>
</g>
<g style="mix-blend-mode:lighten">
<path d="M121.635 135.536H110.243" stroke="#2C40BA" stroke-width="6.83493" stroke-linecap="round"/>
</g>
<g style="mix-blend-mode:lighten">
<path d="M144.252 160.028L165.452 147.697C169.782 145.178 172.447 140.546 172.447 135.536V135.536" stroke="#2C40BA" stroke-width="6.83493" stroke-linecap="round" stroke-linejoin="round"/>
</g>
<g style="mix-blend-mode:lighten">
<path d="M167.036 135.536H178.427" stroke="#2C40BA" stroke-width="6.83493" stroke-linecap="round"/>
</g>
<path fill-rule="evenodd" clip-rule="evenodd" d="M100.331 227.285C100.567 226.417 101.355 225.814 102.255 225.814L144.497 225.814C146.384 225.814 147.914 224.284 147.914 222.396C147.914 220.509 146.384 218.979 144.497 218.979" fill="#2C40BA"/>
<path d="M136.522 98.4949C136.522 95.1816 137.469 91.9372 139.251 89.1436L144.354 81.1415L149.458 89.1436C151.239 91.9372 152.186 95.1816 152.186 98.4949V108.054C152.186 112.379 148.679 115.886 144.354 115.886V115.886C140.029 115.886 136.522 112.379 136.522 108.054V98.4949Z" stroke="#2C40BA" stroke-width="6.83493" stroke-linejoin="round"/>
<g style="mix-blend-mode:lighten" opacity="0.1">
<line y1="-0.142394" x2="356.555" y2="-0.142394" transform="matrix(-4.37114e-08 1 1 4.37114e-08 143.891 55.7953)" stroke="#F366F7" stroke-width="0.284789"/>
</g>
<g style="mix-blend-mode:lighten">
<path d="M144.176 381.024L104.021 320.364" stroke="#F366F7" stroke-width="6.83493" stroke-linecap="round" stroke-linejoin="round"/>
<path d="M144.176 381.024L184.331 320.364" stroke="#F366F7" stroke-width="6.83493" stroke-linecap="round" stroke-linejoin="round"/>
</g>
<g style="mix-blend-mode:lighten">
<path d="M143.884 331.808C127.448 320.009 103.832 320.364 103.832 320.364" stroke="#2C80BA" stroke-width="6.83493" stroke-linecap="round"/>
<path d="M144.083 331.808C160.518 320.009 184.134 320.364 184.134 320.364" stroke="#2C80BA" stroke-width="6.83493" stroke-linecap="round"/>
</g>
<g style="mix-blend-mode:lighten">
<path d="M127.722 114.382C123.023 111.689 115.618 112.227 115.618 112.227L116.723 115.409C119.309 122.855 126.327 127.847 134.21 127.847H144.097" stroke="#F366F7" stroke-width="6.83493" stroke-linecap="round" stroke-linejoin="round"/>
</g>
<g style="mix-blend-mode:lighten">
<path d="M144.097 120.753V127.847L137.097 123.926C129.812 119.846 125.301 112.149 125.301 103.8V96.8048L132.08 100.504C139.488 104.547 144.097 112.313 144.097 120.753Z" stroke="#F366F7" stroke-width="6.83493" stroke-linejoin="round"/>
</g>
<g style="mix-blend-mode:lighten">
<g style="mix-blend-mode:lighten">
<path d="M144.098 121.866L144.098 136.977L144.098 205.309" stroke="#2CC6BA" stroke-width="6.83493" stroke-linecap="round"/>
</g>
<g style="mix-blend-mode:lighten">
<path d="M144.098 182.836L129.919 173.128" stroke="#2CC6BA" stroke-width="6.83493" stroke-linecap="round" stroke-linejoin="round"/>
</g>
<g style="mix-blend-mode:lighten">
<path d="M143.932 182.836L158.111 173.128" stroke="#2CC6BA" stroke-width="6.83493" stroke-linecap="round" stroke-linejoin="round"/>
</g>
</g>
<g style="mix-blend-mode:lighten">
<path d="M160.592 114.382C165.291 111.689 172.695 112.227 172.695 112.227L171.59 115.409C169.004 122.855 161.986 127.847 154.104 127.847H144.216" stroke="#F366F7" stroke-width="6.83493" stroke-linecap="round" stroke-linejoin="round"/>
</g>
<g style="mix-blend-mode:lighten">
<path d="M144.216 120.753V127.847L151.217 123.926C158.501 119.846 163.012 112.149 163.012 103.8V96.8048L156.234 100.504C148.825 104.547 144.216 112.313 144.216 120.753Z" stroke="#F366F7" stroke-width="6.83493" stroke-linejoin="round"/>
</g>
<g style="mix-blend-mode:lighten">
<path d="M95.5001 154.36C92.9581 165.717 103.979 176.325 109.503 180.688C115.027 185.051 144.105 205.18 144.105 205.18M95.5001 154.36C99.1082 144.235 111.097 149.073 110.215 158.617C109.333 168.16 102.454 173.995 94.5514 172.856C86.6484 171.717 81.1356 164.072 83.4443 157.335C85.2727 152 92.4155 151.639 95.5001 154.36Z" stroke="#DE40BA" stroke-width="6.83493" stroke-linecap="round" stroke-linejoin="round"/>
<circle cx="3.95877" cy="3.95877" r="3.95877" transform="matrix(-0.246062 0.969254 0.969254 0.246062 88.2959 136.039)" fill="#F8D113"/>
<path d="M192.529 154.36C195.071 165.717 184.05 176.325 178.527 180.688C173.003 185.051 143.925 205.18 143.925 205.18M192.529 154.36C188.921 144.235 176.932 149.073 177.815 158.617C178.697 168.16 185.575 173.995 193.478 172.856C201.381 171.717 206.894 164.072 204.585 157.335C202.757 152 195.614 151.639 192.529 154.36Z" stroke="#DE40BA" stroke-width="6.83493" stroke-linecap="round" stroke-linejoin="round"/>
<circle cx="196.87" cy="140.85" r="3.95877" transform="rotate(75.7554 196.87 140.85)" fill="#F8D113"/>
</g>
<g style="mix-blend-mode:lighten">
<g style="mix-blend-mode:screen">
<path d="M131.566 196.481H97.3918" stroke="#2C80BA" stroke-width="6.83493" stroke-linecap="round"/>
</g>
<g style="mix-blend-mode:screen">
<circle cx="10.6614" cy="10.6614" r="7.24395" transform="matrix(-0.246062 0.969254 0.969254 0.246062 82.1338 185.659)" stroke="#F366F7" stroke-width="6.83493"/>
</g>
<g style="mix-blend-mode:screen">
<path d="M82.5835 179.382C82.5835 178.602 83.2157 177.97 83.9955 177.97V177.97C92.4954 177.97 99.386 184.86 99.386 193.36V193.36C99.386 194.14 98.7539 194.772 97.974 194.772V194.772C89.4741 194.772 82.5835 187.882 82.5835 179.382V179.382Z" fill="#2CC6BA"/>
</g>
<g style="mix-blend-mode:screen">
<path d="M156.462 196.481H190.637" stroke="#2C80BA" stroke-width="6.83493" stroke-linecap="round"/>
</g>
<g style="mix-blend-mode:screen">
<circle cx="198.185" cy="198.616" r="7.24395" transform="rotate(75.7554 198.185 198.616)" stroke="#F366F7" stroke-width="6.83493"/>
</g>
<g style="mix-blend-mode:screen">
<path d="M205.446 179.381C205.446 178.602 204.814 177.969 204.034 177.969V177.969C195.534 177.969 188.643 184.86 188.643 193.36V193.36C188.643 194.14 189.275 194.772 190.055 194.772V194.772C198.555 194.772 205.446 187.881 205.446 179.381V179.381Z" fill="#2CC6BA"/>
</g>
</g>
<g style="mix-blend-mode:lighten">
<path fill-rule="evenodd" clip-rule="evenodd" d="M124.632 271.618C123.033 270.615 120.924 271.099 119.921 272.699C118.919 274.298 119.403 276.407 121.003 277.409L141.848 290.472C142.486 291.031 143.306 291.325 144.137 291.316C144.968 291.325 145.788 291.031 146.426 290.472L167.271 277.409C168.871 276.407 169.355 274.298 168.352 272.699C167.35 271.099 165.241 270.615 163.642 271.618L144.137 283.841L124.632 271.618Z" fill="#DE40BA"/>
</g>
<g style="mix-blend-mode:lighten">
<path fill-rule="evenodd" clip-rule="evenodd" d="M102.145 249.544C106.216 247.313 111.042 243.518 115.879 239.252C120.761 234.946 125.825 230.005 130.392 225.35C134.964 220.69 139.062 216.291 142.017 213.059C143.495 211.441 144.689 210.114 145.514 209.19C145.927 208.728 146.247 208.367 146.465 208.12C146.574 207.996 146.658 207.902 146.715 207.837L146.779 207.764L146.796 207.745L146.8 207.74L146.802 207.738C146.802 207.738 146.802 207.738 144.098 205.556L146.802 207.738C148.025 206.342 147.806 204.234 146.312 203.03C144.818 201.825 142.616 201.98 141.393 203.375L141.524 203.481L141.393 203.375L141.392 203.376L141.389 203.38L141.374 203.397L141.314 203.465C141.261 203.526 141.181 203.617 141.075 203.736C140.863 203.976 140.55 204.329 140.145 204.783C139.334 205.691 138.158 206.999 136.699 208.595C133.779 211.789 129.735 216.129 125.232 220.718C120.725 225.313 115.783 230.132 111.064 234.294C106.3 238.496 101.93 241.879 98.5472 243.732C85.2327 251.028 68.224 246.659 60.5007 234.183C60.4944 234.173 60.488 234.163 60.4815 234.152C56.2363 227.256 58.7091 218.148 66.4527 213.905L66.471 213.895C70.4487 211.728 75.5332 213.072 77.8742 216.821L77.8908 216.848C78.8395 218.381 78.3539 220.509 76.5022 221.523L76.49 221.53C76.0125 221.783 75.2635 221.654 74.8673 221.014C73.8738 219.409 71.7267 218.844 70.0715 219.751C68.4163 220.658 67.8798 222.694 68.8733 224.299C71.1779 228.022 76.1778 229.484 80.0999 227.335L80.1325 227.317C85.0854 224.58 86.9051 218.491 83.9092 213.603C83.9012 213.59 83.8931 213.577 83.885 213.563C79.5322 206.532 70.1071 204.12 62.8553 208.093L62.8319 208.106C52.0313 214.04 48.1074 227.131 54.5064 237.468C54.5138 237.479 54.5213 237.491 54.5288 237.503C64.3227 253.281 85.6566 258.579 102.145 249.544Z" fill="#F8D113"/>
</g>
<g style="mix-blend-mode:lighten">
<path fill-rule="evenodd" clip-rule="evenodd" d="M186.128 249.544C182.057 247.313 177.231 243.518 172.394 239.252C167.512 234.946 162.448 230.005 157.881 225.35C153.31 220.69 149.211 216.291 146.256 213.059C144.778 211.441 143.585 210.114 142.759 209.19C142.347 208.728 142.026 208.367 141.808 208.12C141.699 207.996 141.615 207.902 141.559 207.837L141.494 207.764L141.477 207.745L141.473 207.74L141.471 207.738C141.471 207.738 141.471 207.738 144.175 205.556L141.471 207.738C140.248 206.342 140.468 204.234 141.961 203.03C143.455 201.825 145.657 201.98 146.88 203.375L146.749 203.481L146.88 203.375L146.881 203.376L146.884 203.38L146.899 203.397L146.959 203.465C147.012 203.526 147.092 203.617 147.198 203.736C147.41 203.976 147.723 204.329 148.129 204.783C148.939 205.691 150.116 206.999 151.575 208.595C154.494 211.789 158.538 216.129 163.041 220.718C167.548 225.313 172.491 230.132 177.21 234.294C181.974 238.496 186.343 241.879 189.726 243.732C203.041 251.028 220.049 246.659 227.772 234.183C227.781 234.169 227.79 234.155 227.799 234.141C232.033 227.249 229.562 218.154 221.831 213.911L221.82 213.905C217.84 211.724 212.744 213.066 210.399 216.821L210.382 216.848C209.434 218.381 209.919 220.509 211.771 221.523L211.776 221.526C212.253 221.784 213.008 221.658 213.406 221.014C214.4 219.409 216.547 218.844 218.202 219.751C219.857 220.658 220.394 222.694 219.4 224.299C217.096 228.022 212.096 229.484 208.174 227.335L208.161 227.328C203.193 224.597 201.364 218.498 204.364 213.603C204.372 213.59 204.38 213.577 204.388 213.563C208.738 206.536 218.155 204.122 225.405 208.086L225.418 208.093C236.237 214.021 240.171 227.123 233.767 237.468C233.757 237.484 233.747 237.5 233.736 237.516C223.939 253.284 202.612 258.576 186.128 249.544Z" fill="#F8D113"/>
</g>
<g style="mix-blend-mode:lighten">
<path fill-rule="evenodd" clip-rule="evenodd" d="M144.211 244.734L126.623 274.598L144.211 300.621L161.799 274.598L144.211 244.734ZM144.211 310.089C144.199 310.089 144.188 310.089 144.176 310.089H130.967L144.211 327.608L157.456 310.089H144.247C144.235 310.089 144.223 310.089 144.211 310.089ZM144.211 338.508L140.548 342.632C139.008 344.366 138.899 346.945 140.288 348.803C141.259 350.102 142.698 350.754 144.167 350.763C144.176 350.763 144.185 350.763 144.194 350.763M144.228 350.763C144.237 350.763 144.246 350.763 144.255 350.763ZM144.255 350.763C145.724 350.754 147.164 350.102 148.135 348.803C149.524 346.945 149.415 344.366 147.874 342.632L144.211 338.508M144.211 357.598C147.723 357.601 151.263 356.034 153.609 352.895C156.941 348.438 156.68 342.253 152.984 338.093L148.592 333.147L166.034 310.076C176.346 309.914 185.399 308.25 193.682 303.327C202.398 298.146 209.869 289.592 217.148 276.371C217.162 276.346 217.175 276.32 217.189 276.294L225.883 259.501C226.539 258.233 226.339 256.691 225.379 255.633C224.42 254.576 222.905 254.226 221.579 254.756L210.976 258.997C197.01 264.582 184.834 273.876 175.763 285.874L162.623 303.254H150.681L168.671 276.637C169.409 275.544 169.453 274.125 168.784 272.989L147.191 236.326C146.548 235.234 145.393 234.631 144.211 234.642C143.029 234.631 141.874 235.234 141.231 236.326L119.638 272.989C118.969 274.125 119.013 275.544 119.752 276.637L137.741 303.254H125.799L112.66 285.874C103.589 273.876 91.4129 264.582 77.4467 258.997L66.8432 254.756C65.5177 254.226 64.0023 254.576 63.0431 255.633C62.0839 256.691 61.883 258.233 62.5394 259.501L71.2337 276.294C71.2471 276.32 71.2609 276.346 71.2749 276.371C78.5538 289.592 86.0249 298.146 94.7403 303.327C103.024 308.25 112.076 309.914 122.388 310.076L139.83 333.147L135.438 338.093C131.743 342.253 131.482 348.438 134.813 352.895C137.159 356.034 140.7 357.601 144.211 357.598ZM98.2327 297.451C103.766 300.74 109.846 302.385 117.025 302.983L107.208 289.996C98.8872 278.99 87.7191 270.466 74.9087 265.343L72.8304 264.512L77.2833 273.113C84.228 285.717 90.954 293.125 98.2327 297.451ZM190.19 297.451C184.657 300.74 178.577 302.385 171.397 302.983L181.215 289.996C189.535 278.99 200.703 270.466 213.514 265.343L215.592 264.512L211.139 273.113C204.194 285.717 197.468 293.125 190.19 297.451Z" fill="#2CC6BA"/>
</g>
<g style="mix-blend-mode:lighten">
<g style="mix-blend-mode:lighten">
<path d="M144.097 159.173L122.898 146.842C118.567 144.323 115.903 139.691 115.903 134.682V134.682" stroke="#2C80BA" stroke-width="6.83493" stroke-linecap="round" stroke-linejoin="round"/>
</g>
<g style="mix-blend-mode:lighten">
<path d="M121.314 134.682H109.922" stroke="#2C80BA" stroke-width="6.83493" stroke-linecap="round"/>
</g>
<g style="mix-blend-mode:lighten">
<path d="M143.932 159.173L165.131 146.842C169.461 144.323 172.126 139.691 172.126 134.682V134.682" stroke="#2C80BA" stroke-width="6.83493" stroke-linecap="round" stroke-linejoin="round"/>
</g>
<g style="mix-blend-mode:lighten">
<path d="M166.715 134.682H178.106" stroke="#2C80BA" stroke-width="6.83493" stroke-linecap="round"/>
</g>
</g>
<g style="mix-blend-mode:lighten">
<path fill-rule="evenodd" clip-rule="evenodd" d="M100.011 226.431C100.247 225.562 101.035 224.96 101.935 224.96L144.148 224.96C144.157 224.96 144.167 224.96 144.177 224.96L186.418 224.96C187.318 224.96 188.107 225.563 188.342 226.431L194.988 250.916C195.483 252.738 197.36 253.814 199.182 253.319C201.003 252.825 202.079 250.947 201.585 249.126L194.939 224.641C193.895 220.795 190.404 218.125 186.418 218.125L144.205 218.125C144.196 218.125 144.186 218.125 144.177 218.125L101.935 218.125C97.9496 218.125 94.4585 220.794 93.4146 224.64L86.7686 249.126C86.2742 250.947 87.35 252.825 89.1715 253.319C90.9931 253.813 92.8705 252.738 93.3649 250.916L100.011 226.431Z" fill="#F366F7"/>
</g>
<g style="mix-blend-mode:lighten">
<path d="M136.287 97.6404C136.287 94.3271 137.234 91.0827 139.015 88.2891L144.119 80.287L149.222 88.2891C151.004 91.0827 151.95 94.3271 151.95 97.6404V107.2C151.95 111.525 148.444 115.031 144.119 115.031V115.031C139.793 115.031 136.287 111.525 136.287 107.2V97.6404Z" stroke="#DE40BA" stroke-width="6.83493" stroke-linejoin="round"/>
</g>
<defs>
<filter id="filter0_f_608_1733" x="0.268803" y="0.0983925" width="289.188" height="452.841" filterUnits="userSpaceOnUse" color-interpolation-filters="sRGB">
<feFlood flood-opacity="0" result="BackgroundImageFix"/>
<feBlend mode="normal" in="SourceGraphic" in2="BackgroundImageFix" result="shape"/>
<feGaussianBlur stdDeviation="8.16589" result="effect1_foregroundBlur_608_1733"/>
</filter>
</defs>
</svg>
