<svg width="558" height="109" viewBox="0 0 558 109" fill="none" xmlns="http://www.w3.org/2000/svg">
<g style="mix-blend-mode:lighten">
<path d="M180.194 69.3684C179.054 70.508 177.613 71.2983 176.039 71.6463L171.532 72.6433L172.529 68.1358C172.877 66.5622 173.667 65.1209 174.807 63.9813L178.095 60.6936C179.582 59.206 181.994 59.206 183.482 60.6936V60.6936C184.969 62.1812 184.969 64.5931 183.482 66.0808L180.194 69.3684Z" stroke="#DE40BA" stroke-width="8.24" stroke-linejoin="round"/>
</g>
<g style="mix-blend-mode:lighten">
<circle cx="15.7283" cy="15.7283" r="11.6083" transform="matrix(-0.246062 0.969254 0.969254 0.246062 294.686 34.5268)" stroke="#F366F7" stroke-width="8.24"/>
</g>
<g style="mix-blend-mode:lighten">
<path d="M296.175 25.0168C296.175 23.903 297.078 23 298.192 23C310.333 23 320.175 32.8422 320.175 44.9832V45.9832C320.175 47.0971 319.272 48 318.158 48C306.018 48 296.175 38.1578 296.175 26.0168V25.0168Z" fill="#2CC6BA"/>
</g>
<g style="mix-blend-mode:lighten">
<path d="M325.614 92.8345C324.806 92.0457 324.79 90.7513 325.579 89.9435C334.177 81.1382 348.285 80.9701 357.091 89.5681L357.712 90.1751C358.52 90.9639 358.536 92.2582 357.747 93.0661C349.149 101.871 335.041 102.04 326.235 93.4415L325.614 92.8345Z" fill="#2CC6BA"/>
</g>
<g style="mix-blend-mode:lighten">
<path d="M487.175 38.1779C479.371 38.365 462.454 37.1149 456.582 25.621M456.582 25.621C452.492 14.4246 466.151 10.0653 472.155 18.8355C478.16 27.6058 476.421 37.4563 468.869 42.0799C461.317 46.7035 451.198 44.0814 448.399 36.6969C446.182 30.8488 452.023 25.4832 456.582 25.621Z" stroke="#DE40BA" stroke-width="8.24" stroke-linecap="round" stroke-linejoin="round"/>
</g>
<g style="mix-blend-mode:lighten">
<circle cx="4.39025" cy="4.39025" r="4.39025" transform="matrix(0.389246 0.921134 0.921134 -0.389246 438.126 13.8837)" fill="#F8D113"/>
</g>
<g style="mix-blend-mode:lighten">
<g style="mix-blend-mode:screen">
<path d="M45.2709 57.1202C43.2535 60.6403 42.7715 65.4458 42.6888 68.4903C42.6487 69.968 44.0974 70.94 45.4939 70.455V70.455C54.8817 67.1947 61.175 58.347 61.175 48.4092V37.7786" stroke="#F366F7" stroke-width="8.24" stroke-linecap="round" stroke-linejoin="round"/>
</g>
<g style="mix-blend-mode:screen">
<path d="M59.6544 37.7786H61.1748L59.8534 40.1379C52.9907 52.3909 40.0429 59.9794 25.999 59.9794H24.5098L25.5935 57.9936C32.3942 45.5317 45.4576 37.7786 59.6544 37.7786Z" stroke="#F366F7" stroke-width="8.24" stroke-linejoin="round"/>
</g>
<g style="mix-blend-mode:screen">
<path d="M45.2709 18.296C43.2535 14.7759 42.7715 9.97042 42.6888 6.92594C42.6487 5.4482 44.0974 4.47621 45.4939 4.9612V4.9612C54.8817 8.22153 61.175 17.0692 61.175 27.0071V37.6376" stroke="#F366F7" stroke-width="8.24" stroke-linecap="round" stroke-linejoin="round"/>
</g>
<g style="mix-blend-mode:screen">
<path d="M59.6544 37.6376H61.1748L59.8534 35.2783C52.9907 23.0253 40.0429 15.4368 25.999 15.4368H24.5098L25.5935 17.4226C32.3942 29.8846 45.4576 37.6376 59.6544 37.6376Z" stroke="#F366F7" stroke-width="8.24" stroke-linejoin="round"/>
</g>
<g style="mix-blend-mode:screen">
<path d="M25.4969 47.0041C21.5834 47.0041 17.7513 45.8861 14.4517 43.7818L5 37.7538L14.4517 31.7258C17.7513 29.6214 21.5834 28.5034 25.4969 28.5034L36.7875 28.5034C41.8964 28.5034 46.0379 32.6449 46.0379 37.7538V37.7538C46.0379 42.8626 41.8964 47.0041 36.7876 47.0041H25.4969Z" stroke="#DE40BA" stroke-width="8.24" stroke-linejoin="round"/>
</g>
</g>
<g style="mix-blend-mode:lighten">
<path d="M581.175 7L499.175 6.99999" stroke="#2CC6BA" stroke-width="8.24" stroke-linecap="round"/>
</g>
<g style="mix-blend-mode:lighten">
<path d="M350.175 7.00003H85.1753" stroke="#2CC6BA" stroke-width="8.24" stroke-linecap="round"/>
</g>
<g style="mix-blend-mode:lighten">
<path d="M354.175 53H318.175" stroke="#2C80BA" stroke-width="8.24" stroke-linecap="round"/>
</g>
<g style="mix-blend-mode:lighten">
<path d="M122 75H76" stroke="#2C80BA" stroke-width="8.24" stroke-linecap="round"/>
</g>
<g style="mix-blend-mode:lighten">
<path d="M109.175 38L62.1753 38" stroke="#2C80BA" stroke-width="8.24" stroke-linecap="round"/>
</g>
<g style="mix-blend-mode:lighten">
<path d="M496.175 92L356.175 92" stroke="#FFDDC9" stroke-width="8.24" stroke-linecap="round"/>
</g>
<g style="mix-blend-mode:lighten">
<path d="M497.175 38L484.175 38" stroke="#2C80BA" stroke-width="8.24" stroke-linecap="round"/>
</g>
<g style="mix-blend-mode:lighten">
<path d="M546.175 59V42" stroke="#2C80BA" stroke-width="8.24" stroke-linecap="round"/>
</g>
<g style="mix-blend-mode:lighten">
<path d="M378.175 35V14" stroke="#2C80BA" stroke-width="8.24" stroke-linecap="round"/>
</g>
<g style="mix-blend-mode:lighten">
<path d="M247.175 75L247.175 48" stroke="#2C80BA" stroke-width="8.24" stroke-linecap="round"/>
</g>
<g style="mix-blend-mode:lighten">
<path d="M145.175 75L145.175 52" stroke="#2C80BA" stroke-width="8.24" stroke-linecap="round"/>
</g>
<g style="mix-blend-mode:lighten">
<path d="M85 84L85 66" stroke="#2C80BA" stroke-width="8.24" stroke-linecap="round"/>
</g>
<g style="mix-blend-mode:lighten">
<path d="M531.175 74V57" stroke="#2C80BA" stroke-width="8.24" stroke-linecap="round"/>
</g>
<g style="mix-blend-mode:lighten">
<path d="M393.175 50V29" stroke="#2C80BA" stroke-width="8.24" stroke-linecap="round"/>
</g>
<g style="mix-blend-mode:lighten">
<path d="M516.175 89V72" stroke="#2C80BA" stroke-width="8.24" stroke-linecap="round"/>
</g>
<g style="mix-blend-mode:lighten">
<path d="M408.175 65V44" stroke="#2C80BA" stroke-width="8.24" stroke-linecap="round"/>
</g>
<g style="mix-blend-mode:lighten">
<path d="M531.175 7.00003L500.175 38" stroke="#2C80BA" stroke-width="8.24" stroke-linecap="round"/>
</g>
<g style="mix-blend-mode:lighten">
<path d="M435.175 92L350.175 7.00003" stroke="#2CC6BA" stroke-width="8.24" stroke-linecap="round"/>
</g>
<g style="mix-blend-mode:lighten">
<path d="M199.175 92L284.175 7.00003" stroke="#2CC6BA" stroke-width="8.24" stroke-linecap="round"/>
</g>
<g style="mix-blend-mode:lighten">
<path d="M182.175 62L237.175 7.00003" stroke="#2C80BA" stroke-width="8.24" stroke-linecap="round"/>
</g>
<g style="mix-blend-mode:lighten">
<path d="M109.175 38L140.175 7.00003" stroke="#2C80BA" stroke-width="8.24" stroke-linecap="round"/>
</g>
<g style="mix-blend-mode:lighten">
<path d="M105.175 92L190.175 7.00003" stroke="#2CC6BA" stroke-width="8.24" stroke-linecap="round"/>
</g>
<g style="mix-blend-mode:lighten">
<path d="M393.175 92L354.175 53" stroke="#2C80BA" stroke-width="8.24" stroke-linecap="round"/>
</g>
<g style="mix-blend-mode:lighten">
<path d="M566.175 22L496.175 92" stroke="#F8D113" stroke-width="8.24" stroke-linecap="round"/>
</g>
</svg>
