<svg width="168" height="64" viewBox="0 0 168 64" fill="none" xmlns="http://www.w3.org/2000/svg">
<path d="M137.247 42.8382C136.915 42.8382 136.651 42.7405 136.456 42.5452C136.26 42.3303 136.163 42.0372 136.163 41.666V30.2075C136.163 27.5504 136.905 25.4795 138.39 23.9947C139.894 22.4903 141.975 21.7382 144.632 21.7382C147.269 21.7382 149.34 22.4903 150.845 23.9947C152.349 25.4991 153.101 27.57 153.101 30.2075V41.666C153.101 42.0372 153.004 42.3303 152.808 42.5452C152.613 42.7405 152.339 42.8382 151.988 42.8382C151.656 42.8382 151.382 42.7405 151.167 42.5452C150.972 42.3303 150.874 42.0372 150.874 41.666V35.0722H138.361V41.666C138.361 42.0372 138.263 42.3303 138.067 42.5452C137.872 42.7405 137.599 42.8382 137.247 42.8382ZM150.874 33.2553V30.1196C150.874 28.0291 150.337 26.4271 149.262 25.3134C148.188 24.1803 146.644 23.6137 144.632 23.6137C142.6 23.6137 141.047 24.1705 139.972 25.2841C138.898 26.3978 138.361 28.0096 138.361 30.1196V33.2553H150.874Z" fill="white"/>
<path d="M122.863 42.5452C121.671 42.5452 120.743 42.2326 120.079 41.6074C119.415 40.9822 119.083 40.1031 119.083 38.9699V25.5479C119.083 24.4538 119.405 23.5942 120.05 22.969C120.714 22.3438 121.632 22.0312 122.804 22.0312H131.889C132.651 22.0312 133.032 22.3438 133.032 22.969C133.032 23.2426 132.934 23.4575 132.739 23.6138C132.544 23.7701 132.26 23.8482 131.889 23.8482H122.834C122.365 23.8482 121.984 24.0045 121.691 24.3171C121.417 24.6297 121.28 25.04 121.28 25.5479V31.1453H129.662C130.424 31.1453 130.805 31.4579 130.805 32.0831C130.805 32.3761 130.697 32.6008 130.482 32.7571C130.287 32.9134 130.014 32.9916 129.662 32.9916H121.28V39.0285C121.28 39.5365 121.417 39.9468 121.691 40.2594C121.984 40.572 122.365 40.7283 122.834 40.7283H132.534C133.296 40.7283 133.677 41.0311 133.677 41.6367C133.677 41.9298 133.569 42.1545 133.354 42.3108C133.159 42.4671 132.885 42.5452 132.534 42.5452H122.863Z" fill="white"/>
<path d="M108.807 42.8382C106.931 42.8382 105.202 42.5256 103.62 41.9004C102.057 41.2557 100.836 40.3766 99.9566 39.2629C99.8003 39.0676 99.7222 38.8624 99.7222 38.6475C99.7222 38.374 99.8687 38.1102 100.162 37.8563C100.318 37.739 100.484 37.6804 100.66 37.6804C101.012 37.6804 101.324 37.8465 101.598 38.1786C102.399 39.0578 103.405 39.7416 104.616 40.23C105.847 40.6989 107.244 40.9334 108.807 40.9334C110.526 40.9334 111.855 40.6208 112.792 39.9956C113.73 39.3509 114.199 38.4424 114.199 37.2702C114.199 36.2542 113.74 35.4337 112.822 34.8085C111.923 34.1833 110.389 33.6265 108.221 33.1381C105.388 32.5129 103.346 31.7314 102.096 30.7936C100.865 29.8363 100.25 28.5761 100.25 27.0132C100.25 25.3916 100.933 24.1119 102.301 23.1741C103.688 22.2168 105.554 21.7382 107.898 21.7382C109.676 21.7382 111.278 22.0508 112.705 22.6759C114.15 23.3011 115.176 24.1412 115.782 25.1962C115.899 25.3916 115.958 25.5772 115.958 25.753C115.958 26.0656 115.791 26.3391 115.459 26.5736C115.323 26.6517 115.166 26.6908 114.99 26.6908C114.561 26.6908 114.228 26.5247 113.994 26.1926C113.427 25.3721 112.626 24.7469 111.591 24.3171C110.555 23.8677 109.325 23.643 107.898 23.643C104.284 23.643 102.477 24.7664 102.477 27.0132C102.477 27.697 102.663 28.2733 103.034 28.7422C103.405 29.1916 104.001 29.6018 104.821 29.973C105.661 30.3247 106.824 30.6764 108.309 31.028C111.2 31.7118 113.281 32.5422 114.551 33.519C115.821 34.4763 116.456 35.7267 116.456 37.2702C116.456 38.9894 115.762 40.3472 114.375 41.3436C113.007 42.34 111.151 42.8382 108.807 42.8382Z" fill="white"/>
<path d="M80.9354 42.8382C80.6033 42.8382 80.3395 42.7405 80.1441 42.5452C79.9488 42.3303 79.8511 42.0372 79.8511 41.666V22.9104C79.8511 22.5392 79.9488 22.2559 80.1441 22.0605C80.3395 21.8456 80.6033 21.7382 80.9354 21.7382C81.2871 21.7382 81.5606 21.8456 81.7559 22.0605C81.9513 22.2559 82.049 22.5392 82.049 22.9104V31.0867H94.9142V22.9104C94.9142 22.5392 95.0119 22.2559 95.2072 22.0605C95.4026 21.8456 95.6761 21.7382 96.0278 21.7382C96.3599 21.7382 96.6237 21.8456 96.819 22.0605C97.0144 22.2559 97.1121 22.5392 97.1121 22.9104V41.666C97.1121 42.0372 97.0144 42.3303 96.819 42.5452C96.6237 42.7405 96.3599 42.8382 96.0278 42.8382C95.6957 42.8382 95.4221 42.7405 95.2072 42.5452C95.0119 42.3303 94.9142 42.0372 94.9142 41.666V32.9329H82.049V41.666C82.049 42.0372 81.9513 42.3303 81.7559 42.5452C81.5606 42.7405 81.2871 42.8382 80.9354 42.8382Z" fill="white"/>
<path d="M68.5915 42.8383C68.2399 42.8383 67.9664 42.7406 67.771 42.5452C67.5951 42.3303 67.5072 42.0372 67.5072 41.666V23.8482H60.7962C60.4446 23.8482 60.1613 23.7798 59.9464 23.6431C59.751 23.4868 59.6533 23.2621 59.6533 22.969C59.6533 22.3438 60.0343 22.0312 60.7962 22.0312H76.4455C77.2074 22.0312 77.5884 22.3438 77.5884 22.969C77.5884 23.2426 77.4907 23.4575 77.2953 23.6138C77.0999 23.7701 76.8167 23.8482 76.4455 23.8482H69.7345V41.666C69.7345 42.0372 69.627 42.3303 69.4121 42.5452C69.2167 42.7406 68.9432 42.8383 68.5915 42.8383Z" fill="white"/>
<path d="M47.2624 42.5452C46.0706 42.5452 45.1426 42.2326 44.4783 41.6074C43.8141 40.9822 43.4819 40.1031 43.4819 38.9699V25.5479C43.4819 24.4538 43.8043 23.5942 44.449 22.969C45.1133 22.3438 46.0315 22.0312 47.2038 22.0312H56.2885C57.0504 22.0312 57.4314 22.3438 57.4314 22.969C57.4314 23.2426 57.3337 23.4575 57.1384 23.6138C56.943 23.7701 56.6597 23.8482 56.2885 23.8482H47.2331C46.7642 23.8482 46.3832 24.0045 46.0901 24.3171C45.8166 24.6297 45.6799 25.04 45.6799 25.5479V31.1453H54.0613C54.8232 31.1453 55.2042 31.4579 55.2042 32.0831C55.2042 32.3761 55.0967 32.6008 54.8818 32.7571C54.6865 32.9134 54.4129 32.9916 54.0613 32.9916H45.6799V39.0285C45.6799 39.5365 45.8166 39.9468 46.0901 40.2594C46.3832 40.572 46.7642 40.7283 47.2331 40.7283H56.9332C57.6952 40.7283 58.0761 41.0311 58.0761 41.6367C58.0761 41.9298 57.9687 42.1545 57.7538 42.3108C57.5584 42.4671 57.2849 42.5452 56.9332 42.5452H47.2624Z" fill="white"/>
<path fill-rule="evenodd" clip-rule="evenodd" d="M21.7269 5.08472C21.9329 5.08472 22.1246 5.18984 22.2354 5.3635L23.136 6.7756C23.4946 7.33788 23.6929 7.98666 23.7107 8.6521L24.772 8.07289C24.9589 7.97092 25.1857 7.97501 25.3687 8.08366C25.5518 8.1923 25.664 8.3894 25.664 8.60226V9.83663C25.664 10.1576 25.6311 10.4739 25.5677 10.7813C25.7085 10.7596 25.842 10.745 25.9629 10.735C26.2008 10.7153 26.4093 10.712 26.5591 10.7136C26.6343 10.7145 26.6954 10.7165 26.7388 10.7185C26.7605 10.7194 26.7779 10.7204 26.7905 10.7211L26.8057 10.7221L26.8105 10.7224L26.8122 10.7225L26.8128 10.7226L26.8131 10.7226C26.8132 10.7226 26.8134 10.7226 26.7696 11.3241L26.8134 10.7226C27.0003 10.7362 27.1704 10.836 27.2734 10.9926C27.3764 11.1492 27.4008 11.3448 27.3393 11.5219L27.1443 12.0833C26.6037 13.6399 25.1367 14.6834 23.4889 14.6834H22.3259V18.5432L25.1317 16.9112C25.5302 16.6794 25.8231 16.3136 25.9668 15.8896H25.7143C25.3812 15.8896 25.1112 15.6196 25.1112 15.2866C25.1112 14.9535 25.3812 14.6835 25.7143 14.6835H27.7245C28.0576 14.6835 28.3276 14.9535 28.3276 15.2866C28.3276 15.6196 28.0576 15.8896 27.7245 15.8896H27.2128C27.0418 16.7478 26.511 17.5042 25.7381 17.9538L22.3259 19.9386V22.6204L23.8551 21.5734C24.1299 21.3852 24.5053 21.4555 24.6934 21.7303C24.8816 22.0051 24.8113 22.3804 24.5365 22.5686L22.3259 24.0821V26.553C22.8015 26.2222 23.4055 25.8011 24.0339 25.3608C25.4468 24.3708 26.9546 23.3031 27.4247 22.9317C27.6916 22.721 28.0307 22.4261 28.3667 22.0711C27.6544 21.5259 27.1713 20.6352 27.0724 19.5657C26.9691 18.4484 27.6246 17.5534 28.4796 17.2622C28.9104 17.1155 29.4001 17.1216 29.8463 17.3481C30.1144 17.4841 30.3445 17.6883 30.5291 17.9507C30.8507 17.8549 31.1992 17.8386 31.5196 17.8943C32.1059 17.9962 32.7186 18.3625 32.9674 19.0885C33.5265 20.7199 32.1972 22.3786 30.523 22.6199C30.173 22.6703 29.8357 22.6598 29.518 22.5959C29.0419 23.1471 28.5387 23.5889 28.1723 23.8782C27.7968 24.1749 26.8447 24.8564 25.8067 25.589H29.5844C29.6123 24.1132 30.8173 22.9254 32.2998 22.9254C32.4374 22.9254 32.5489 23.037 32.5489 23.1746C32.5489 23.7976 32.3391 24.3717 31.9863 24.8299C32.5159 25.0494 32.9388 25.5073 33.0907 26.1056C33.3464 27.1127 32.7372 28.1364 31.7301 28.3921C30.723 28.6478 29.6994 28.0386 29.4437 27.0315C29.4237 26.9527 29.409 26.8737 29.3993 26.7951H24.0879C23.6245 27.1188 23.1971 27.4164 22.8538 27.6551L22.5943 27.8354C22.718 27.973 22.8688 28.1397 23.0423 28.3295C23.4592 28.7856 24.0061 29.3742 24.6207 30.0114H29.1909C29.8942 30.0114 30.5102 30.4825 30.6944 31.1612L31.773 35.1349C33.624 35.2976 35.4932 34.4527 36.4886 32.8449L36.4926 32.8384C37.2408 31.6216 36.8043 30.0151 35.4382 29.2666L35.4363 29.2656C34.7333 28.8816 33.8337 29.1198 33.4211 29.7838L33.4198 29.7859C33.2524 30.0563 33.3381 30.4318 33.6648 30.6109L33.6697 30.6136C33.7541 30.6562 33.8841 30.6328 33.9533 30.5211C34.1286 30.2379 34.5075 30.1381 34.7996 30.2982C35.0916 30.4582 35.1863 30.8175 35.011 31.1007C34.6043 31.7577 33.722 32.0158 33.0299 31.6365L33.017 31.6293C32.1472 31.1438 31.8296 30.0703 32.3601 29.2095L32.362 29.2063C33.1301 27.9655 34.7933 27.5398 36.073 28.241L36.0753 28.2423C37.9826 29.2889 38.6759 31.5998 37.5463 33.4246L37.5415 33.4322C35.8128 36.2153 32.0489 37.1496 29.1398 35.5556C28.7884 35.363 28.4051 35.1044 28.0053 34.8023L28.0053 41.1166C29.5114 39.4086 31.4006 38.0733 33.5244 37.224L35.3956 36.4757C35.6295 36.3821 35.8969 36.4438 36.0662 36.6304C36.2354 36.817 36.2709 37.0891 36.1551 37.3129L34.6208 40.2764L34.6135 40.29C33.3291 42.623 32.0107 44.1325 30.4727 45.0466C29.011 45.9155 27.4136 46.2092 25.5938 46.2377L24.0912 48.2252C24.8479 47.9709 25.5862 47.8014 26.2386 47.6878C26.9671 47.5609 27.6014 47.5015 28.055 47.4738C28.2821 47.4599 28.4646 47.4539 28.5917 47.4514C28.6553 47.4501 28.7051 47.4497 28.7398 47.4497L28.7804 47.4498L28.7919 47.4499L28.7954 47.4499L28.797 47.45L28.8049 47.4501C28.925 47.4465 29.0474 47.4787 29.1553 47.5501C29.433 47.734 29.5091 48.1081 29.3253 48.3859L22.2393 59.0902C22.1276 59.2589 21.9388 59.3604 21.7364 59.3604C21.5341 59.3604 21.3452 59.2589 21.2336 59.0902L14.1476 48.3859C14.0059 48.1719 14.0186 47.9007 14.1589 47.7033C14.2643 47.5322 14.453 47.4175 14.6688 47.416L14.6705 47.416L14.6739 47.416L14.6854 47.4159L14.7257 47.4162C14.7603 47.4165 14.8099 47.4173 14.8732 47.419C14.9997 47.4225 15.1814 47.4299 15.4074 47.4454C15.859 47.4765 16.4906 47.5403 17.2163 47.6715C17.8796 47.7915 18.6319 47.9696 19.4022 48.2356L17.8918 46.2377C16.072 46.2092 14.4746 45.9155 13.0129 45.0466C11.4749 44.1325 10.1565 42.623 8.87205 40.29L8.86479 40.2764L7.33054 37.3129C7.21472 37.0891 7.25016 36.817 7.41943 36.6304C7.58869 36.4438 7.85611 36.3821 8.09002 36.4757L9.96116 37.224C12.0667 38.066 13.9416 39.3857 15.4414 41.0726V34.8122C15.0463 35.1101 14.6675 35.3651 14.32 35.5556C11.4132 37.1484 7.65297 36.2167 5.92242 33.4388L5.91331 33.4246C4.7833 31.5991 5.47753 29.2871 7.38657 28.2411L7.39334 28.2374C8.67214 27.5413 10.3309 27.9677 11.0977 29.2063L11.0996 29.2095C11.6306 30.0712 11.3119 31.1459 10.4401 31.6307L10.4297 31.6365C9.73761 32.0158 8.85531 31.7577 8.44862 31.1007C8.27331 30.8175 8.36798 30.4582 8.66006 30.2982C8.95215 30.1381 9.33105 30.2379 9.50635 30.5211C9.57577 30.6333 9.70653 30.6564 9.79087 30.6131L9.79487 30.6109C10.1216 30.4318 10.2073 30.0563 10.0399 29.7859L10.0386 29.7838C9.62563 29.1193 8.72485 28.8812 8.02153 29.2666L8.01608 29.2695C6.65633 30.0182 6.22116 31.6182 6.96355 32.8328L6.97125 32.8449C7.96907 34.4568 9.84524 35.3018 11.7008 35.1336L12.779 31.1612C12.9633 30.4825 13.5793 30.0114 14.2826 30.0114H18.8391C19.4537 29.3742 20.0006 28.7856 20.4175 28.3295C20.5833 28.1481 20.7285 27.9877 20.849 27.8538L20.563 27.6551C20.2197 27.4164 19.7923 27.1188 19.3289 26.7951H14.0166C14.0069 26.8737 13.9922 26.9527 13.9722 27.0315C13.7165 28.0386 12.6929 28.6478 11.6858 28.3921C10.6786 28.1364 10.0695 27.1127 10.3252 26.1056C10.4771 25.5071 10.9003 25.0491 11.4301 24.8297C11.0774 24.3715 10.8677 23.7975 10.8677 23.1746C10.8677 23.037 10.9793 22.9254 11.1169 22.9254C12.5993 22.9254 13.8044 24.1132 13.8323 25.589H17.6101C16.572 24.8564 15.62 24.1749 15.2444 23.8782C14.8781 23.5889 14.3749 23.1471 13.8987 22.5959C13.5811 22.6598 13.2438 22.6703 12.8938 22.6199C11.2196 22.3786 9.89027 20.7199 10.4494 19.0885C10.6982 18.3625 11.3109 17.9962 11.8972 17.8943C12.2176 17.8386 12.5661 17.8549 12.8877 17.9507C13.0723 17.6883 13.3024 17.4841 13.5705 17.3481C14.0167 17.1216 14.5063 17.1155 14.9371 17.2622C15.7922 17.5534 16.4477 18.4484 16.3444 19.5657C16.2455 20.6352 15.7624 21.5259 15.0501 22.0711C15.3861 22.4261 15.7252 22.721 15.9921 22.9317C16.4622 23.3031 17.97 24.3708 19.3829 25.3608C20.0241 25.8101 20.64 26.2394 21.1198 26.5732L21.1198 24.1021L18.88 22.5686C18.6052 22.3804 18.535 22.0051 18.7231 21.7303C18.9113 21.4555 19.2866 21.3852 19.5614 21.5734L21.1198 22.6404V19.9553L17.6789 17.9538C16.906 17.5042 16.3751 16.7478 16.2041 15.8896H15.6925C15.3594 15.8896 15.0894 15.6196 15.0894 15.2866C15.0894 14.9535 15.3594 14.6835 15.6925 14.6835H17.7027C18.0357 14.6835 18.3057 14.9535 18.3057 15.2866C18.3057 15.6196 18.0357 15.8896 17.7027 15.8896H17.4502C17.5939 16.3136 17.8868 16.6794 18.2853 16.9112L21.1198 18.56V14.6834H19.9786C18.3307 14.6834 16.8637 13.6399 16.3231 12.0833L16.1281 11.5219C16.0666 11.3448 16.091 11.1492 16.194 10.9926C16.2971 10.836 16.4671 10.7362 16.6541 10.7226L16.6978 11.3241C16.6541 10.7226 16.6542 10.7226 16.6543 10.7226L16.6546 10.7226L16.6553 10.7225L16.6569 10.7224L16.6617 10.7221L16.6769 10.7211C16.6895 10.7204 16.7069 10.7194 16.7286 10.7185C16.7721 10.7165 16.8331 10.7145 16.9083 10.7136C17.0581 10.712 17.2666 10.7153 17.5046 10.735C17.6254 10.745 17.759 10.7596 17.8998 10.7813C17.8363 10.4739 17.8034 10.1576 17.8034 9.83663V8.60226C17.8034 8.3894 17.9156 8.1923 18.0987 8.08366C18.2818 7.97501 18.5085 7.97092 18.6954 8.07289L19.7433 8.64478C19.7623 7.98191 19.9606 7.33582 20.3179 6.7756L21.2185 5.3635C21.3292 5.18984 21.5209 5.08472 21.7269 5.08472ZM16.6475 42.5918L18.4937 45.0339H20.6011L17.4265 40.3368C17.2962 40.144 17.2885 39.8935 17.4065 39.6931L21.2169 33.2233C21.3304 33.0307 21.5342 32.9242 21.7428 32.9262C21.9514 32.9242 22.1552 33.0307 22.2687 33.2233L26.0791 39.6931C26.1971 39.8935 26.1894 40.144 26.0591 40.3368L22.8845 45.0339H24.9919L26.7991 42.6434V33.8122L26.7162 33.7394C25.8547 32.9795 24.9611 32.1076 24.1552 31.2861L24.0879 31.2175H19.3719L19.3046 31.2861C18.4987 32.1076 17.6051 32.9795 16.7436 33.7394L16.6475 33.8238V42.5918ZM21.7467 49.3264C21.7449 49.3275 21.7432 49.3286 21.7414 49.3298L19.4056 46.24H21.7365L21.7428 46.24L21.7491 46.24H24.08L21.7467 49.3264ZM20.9495 50.2822C19.6876 49.4982 18.2217 49.079 17.0017 48.8584C16.5523 48.7771 16.1418 48.7237 15.7945 48.6887L21.7364 57.6648L27.6617 48.7138C27.3121 48.7464 26.8984 48.7972 26.4455 48.876C25.248 49.0846 23.8163 49.4832 22.5738 50.2324L22.5159 50.309L23.291 51.1817C23.9431 51.9158 23.9891 53.0073 23.4012 53.7938C22.9873 54.3476 22.3625 54.6243 21.7428 54.6237C21.1231 54.6243 20.4983 54.3476 20.0844 53.7938C19.4965 53.0073 19.5425 51.9158 20.1946 51.1817L20.9697 50.309L20.9495 50.2822ZM22.9323 30.0114C22.6216 29.6806 22.3417 29.3774 22.1037 29.1171C21.9639 28.9642 21.8386 28.826 21.7299 28.7055C21.6212 28.826 21.4959 28.9642 21.3561 29.1171C21.1181 29.3774 20.8382 29.6806 20.5275 30.0114H22.9323ZM25.8118 31.2175C26.3895 31.7876 26.9873 32.3541 27.566 32.8645C28.4066 33.606 29.1777 34.2029 29.7747 34.53C29.9921 34.6492 30.2151 34.7507 30.4419 34.8351L29.5304 31.4771C29.4888 31.3239 29.3497 31.2175 29.1909 31.2175H25.8118ZM14.2826 31.2175H17.648C17.0703 31.7876 16.4725 32.3541 15.8938 32.8645C15.8282 32.9224 15.763 32.9794 15.6982 33.0355C15.6654 33.0586 15.6349 33.0849 15.6073 33.1139C14.8785 33.7395 14.2135 34.2405 13.6851 34.53C13.4726 34.6465 13.2547 34.7461 13.0332 34.8294L13.9431 31.4771C13.9847 31.3239 14.1238 31.2175 14.2826 31.2175ZM17.5712 11.9537C17.8767 11.99 18.1847 12.0587 18.4296 12.1735C18.7043 12.6493 19.0627 13.0766 19.4915 13.4325C18.6558 13.2773 17.938 12.7291 17.5712 11.9537ZM21.1198 13.025C21.1198 13.0169 21.12 13.0089 21.1203 13.0009V12.8283C21.1203 12.6549 21.1073 12.4834 21.0821 12.3149C20.3023 12.0473 19.7418 11.3075 19.7418 10.4369V10.0605C19.6073 9.95901 19.4644 9.86658 19.3138 9.78439L19.0096 9.61838V9.83663C19.0096 11.0917 19.6877 12.2488 20.7827 12.862L21.1198 13.0508V13.025ZM22.5059 9.52732C22.2017 9.83227 21.9422 10.1769 21.7337 10.5503C21.5221 10.1713 21.258 9.82203 20.948 9.51374V8.75006C20.948 8.28027 21.0822 7.82025 21.3348 7.42416L21.7269 6.8093L22.119 7.42416C22.3717 7.82025 22.5059 8.28027 22.5059 8.75006V9.52732ZM23.712 10.4369C23.712 11.3022 23.1584 12.0382 22.386 12.3099C22.3603 12.48 22.3471 12.6532 22.3471 12.8283V13.0511L22.6847 12.862C23.7797 12.2488 24.4579 11.0917 24.4579 9.83663V9.61838L24.1537 9.78439C23.998 9.86936 23.8505 9.96526 23.712 10.0709V10.4369ZM25.8962 11.9537C25.5294 12.7291 24.8116 13.2773 23.9759 13.4325C24.4047 13.0766 24.7631 12.6493 25.0378 12.1735C25.2827 12.0587 25.5907 11.99 25.8962 11.9537ZM13.0582 16.5468C12.9633 16.9208 12.5832 17.147 12.2092 17.052C11.8353 16.9571 11.6091 16.577 11.704 16.203C11.799 15.8291 12.1791 15.6029 12.553 15.6978C12.927 15.7928 13.1532 16.1729 13.0582 16.5468ZM14.1165 18.4235C13.9984 18.4835 13.8444 18.6208 13.728 18.9272C13.5778 19.6587 13.8288 20.4121 14.2954 21.127C14.7422 20.8039 15.0709 20.2389 15.1434 19.4547C15.1958 18.8879 14.8713 18.5139 14.5483 18.4039C14.3901 18.35 14.2411 18.3603 14.1165 18.4235ZM13.0659 21.4261L13.0673 21.4263C12.6868 20.7457 12.4202 19.9474 12.4885 19.0922C12.3771 19.0664 12.2441 19.0582 12.1037 19.0826C11.843 19.1279 11.6641 19.2642 11.5903 19.4796C11.3346 20.2258 11.9509 21.2654 13.0659 21.4261ZM29.6888 18.9272C29.5724 18.6208 29.4184 18.4835 29.3003 18.4235C29.1756 18.3603 29.0267 18.35 28.8685 18.4039C28.5455 18.5139 28.221 18.8879 28.2734 19.4547C28.3459 20.2389 28.6746 20.8039 29.1214 21.127C29.588 20.4121 29.839 19.6587 29.6888 18.9272ZM30.3494 21.4263L30.3509 21.4261C31.4659 21.2654 32.0822 20.2258 31.8265 19.4796C31.7527 19.2642 31.5738 19.1279 31.3131 19.0826C31.1726 19.0582 31.0397 19.0664 30.9283 19.0922C30.9966 19.9474 30.73 20.7457 30.3494 21.4263ZM31.2075 17.052C30.8336 17.147 30.4535 16.9208 30.3585 16.5468C30.2636 16.1729 30.4898 15.7928 30.8638 15.6978C31.2377 15.6029 31.6178 15.8291 31.7128 16.203C31.8077 16.577 31.5815 16.9571 31.2075 17.052ZM11.9825 27.223C12.344 27.3148 12.7114 27.0962 12.8032 26.7347C12.8949 26.3733 12.6763 26.0058 12.3148 25.9141C11.9534 25.8223 11.586 26.041 11.4942 26.4024C11.4024 26.7639 11.6211 27.1313 11.9825 27.223ZM31.4334 27.223C31.0719 27.3148 30.7045 27.0962 30.6127 26.7347C30.521 26.3733 30.7396 26.0058 31.1011 25.9141C31.4625 25.8223 31.8299 26.041 31.9217 26.4024C32.0134 26.7639 31.7948 27.1313 31.4334 27.223ZM19.9491 41.9153L21.7428 44.5693L23.5556 41.8871L22.1337 42.7781C22.021 42.8766 21.8764 42.9285 21.7298 42.927C21.5833 42.9285 21.4386 42.8766 21.326 42.7781L19.9491 41.9153ZM24.7079 39.7416L21.7298 41.6078L18.7707 39.7534L21.7428 34.7071L24.7079 39.7416ZM21.0964 51.9826L21.7428 51.2548L22.3892 51.9826C22.6611 52.2887 22.6803 52.7437 22.4352 53.0717C22.2638 53.3009 22.0098 53.4159 21.7505 53.4176L21.7458 53.4176L21.7428 53.4176L21.7398 53.4176L21.7351 53.4176C21.4758 53.4159 21.2218 53.3009 21.0504 53.0717C20.8053 52.7437 20.8245 52.2887 21.0964 51.9826ZM16.9454 44.9859C15.6785 44.8805 14.6056 44.5903 13.6292 44.0099C12.3447 43.2464 11.1578 41.9391 9.93232 39.715L9.14655 38.1972L9.51329 38.3439C11.7739 39.2479 13.7447 40.7522 15.2129 42.6943L16.9454 44.9859ZM26.5402 44.9859C27.8071 44.8805 28.88 44.5903 29.8564 44.0099C31.1409 43.2464 32.3278 41.9391 33.5533 39.715L34.3391 38.1972L33.9723 38.3439C31.7117 39.2479 29.7409 40.7522 28.2727 42.6943L26.5402 44.9859Z" fill="white"/>
</svg>
