<svg width="883" height="372" viewBox="0 0 883 372" fill="none" xmlns="http://www.w3.org/2000/svg">
<g filter="url(#filter0_d_608_1730)">
<path fill-rule="evenodd" clip-rule="evenodd" d="M43.5581 86.7572C34.3145 86.7572 26.8211 94.2506 26.8211 103.494L26.8211 129.634C26.8211 133.913 28.9294 136.833 31.6523 138.739C34.4309 140.684 37.7758 141.508 39.9106 141.508H114.074C114.903 141.508 115.574 142.179 115.574 143.008C115.574 143.836 114.903 144.508 114.074 144.508H39.9106C37.1822 144.508 33.2324 143.507 29.9319 141.197C26.5759 138.848 23.8211 135.081 23.8211 129.634L23.8211 103.494C23.8211 92.5937 32.6576 83.7572 43.5581 83.7572H97.0532C97.8816 83.7572 98.5532 84.4288 98.5532 85.2572C98.5532 86.0856 97.8816 86.7572 97.0532 86.7572H43.5581Z" fill="white"/>
<path fill-rule="evenodd" clip-rule="evenodd" d="M28.7134 33.5552C32.1769 29.267 37.6139 26.0069 45.3817 26.0069H114.074C114.903 26.0069 115.574 26.6785 115.574 27.5069C115.574 28.3353 114.903 29.0069 114.074 29.0069H45.3817C38.56 29.0069 33.9666 31.8258 31.0472 35.4402C28.0845 39.1083 26.8211 43.6336 26.8211 46.9597L26.8211 71.2757C26.8211 72.1041 26.1495 72.7757 25.3211 72.7757C24.4926 72.7757 23.8211 72.1041 23.8211 71.2757L23.8211 46.9597C23.8211 42.991 25.2931 37.7898 28.7134 33.5552Z" fill="white"/>
<path fill-rule="evenodd" clip-rule="evenodd" d="M43.2288 49.0341C45.7863 45.9543 49.7877 43.6356 55.4552 43.6356H114.074C114.903 43.6356 115.574 44.3072 115.574 45.1356C115.574 45.964 114.903 46.6356 114.074 46.6356H55.4552C50.7017 46.6356 47.5385 48.5402 45.5368 50.9507C43.4919 53.4132 42.6262 56.4484 42.6262 58.6502L42.6262 68.2358C42.6262 69.0642 41.9546 69.7358 41.1262 69.7358C40.2977 69.7358 39.6262 69.0642 39.6262 68.2358L39.6262 58.6502C39.6262 55.784 40.7144 52.062 43.2288 49.0341Z" fill="white"/>
<path fill-rule="evenodd" clip-rule="evenodd" d="M43.1711 122.891C45.7097 125.324 49.6138 126.878 55.1079 126.878H114.074C114.903 126.878 115.574 126.207 115.574 125.378C115.574 124.55 114.903 123.878 114.074 123.878H55.1079C50.1808 123.878 47.094 122.495 45.2471 120.725C43.393 118.948 42.6262 116.626 42.6262 114.436C42.6262 109.221 46.8536 104.994 52.0684 104.994H97.0529C97.8814 104.994 98.5529 104.322 98.5529 103.494C98.5529 102.666 97.8814 101.994 97.0529 101.994H52.0684C45.1967 101.994 39.6262 107.565 39.6262 114.436C39.6262 117.314 40.6396 120.464 43.1711 122.891Z" fill="white"/>
<path fill-rule="evenodd" clip-rule="evenodd" d="M12.9953 19.1275C17.371 13.7164 24.2407 9.593 34.0921 9.593H114.074C114.903 9.593 115.574 10.2646 115.574 11.093C115.574 11.9214 114.903 12.593 114.074 12.593H34.0921C25.1855 12.593 19.1591 16.2763 15.3281 21.0139C11.4538 25.805 9.7998 31.7122 9.7998 36.0745V142.246C9.7998 147.906 12.6021 151.777 16.1936 154.288C19.8406 156.838 24.2279 157.921 27.0578 157.921H106.78C107.608 157.921 108.28 158.592 108.28 159.421C108.28 160.249 107.608 160.921 106.78 160.921H27.0578C23.6351 160.921 18.6434 159.661 14.4745 156.747C10.2502 153.793 6.7998 149.076 6.7998 142.246V36.0745C6.7998 31.0687 8.66297 24.4851 12.9953 19.1275Z" fill="white"/>
<path fill-rule="evenodd" clip-rule="evenodd" d="M38.6948 69.7362C22.7367 69.7362 9.79981 82.6748 9.79981 98.6332L9.7998 142.246C9.7998 147.906 12.6021 151.777 16.1936 154.288C19.8406 156.838 24.2279 157.921 27.0578 157.921L114.074 157.921C114.903 157.921 115.574 158.593 115.574 159.421C115.574 160.25 114.903 160.921 114.074 160.921L27.0578 160.921C23.6351 160.921 18.6434 159.661 14.4745 156.747C10.2502 153.793 6.7998 149.076 6.7998 142.246L6.79981 98.6332C6.79981 81.0182 21.0795 66.7362 38.6948 66.7362H97.0531C97.8816 66.7362 98.5531 67.4077 98.5531 68.2362C98.5531 69.0646 97.8816 69.7362 97.0531 69.7362H38.6948Z" fill="white"/>
<path fill-rule="evenodd" clip-rule="evenodd" d="M144.369 9.38687C144.369 8.55844 145.04 7.88687 145.869 7.88687H263.801C264.63 7.88687 265.301 8.55844 265.301 9.38687C265.301 10.2153 264.63 10.8869 263.801 10.8869H145.869C145.04 10.8869 144.369 10.2153 144.369 9.38687Z" fill="white"/>
<path fill-rule="evenodd" clip-rule="evenodd" d="M144.369 26.4085C144.369 25.58 145.04 24.9085 145.869 24.9085H263.801C264.63 24.9085 265.301 25.58 265.301 26.4085C265.301 27.2369 264.63 27.9085 263.801 27.9085H145.869C145.04 27.9085 144.369 27.2369 144.369 26.4085Z" fill="white"/>
<path fill-rule="evenodd" clip-rule="evenodd" d="M144.369 42.2138C144.369 41.3854 145.04 40.7138 145.869 40.7138H263.801C264.63 40.7138 265.301 41.3854 265.301 42.2138C265.301 43.0422 264.63 43.7138 263.801 43.7138H145.869C145.04 43.7138 144.369 43.0422 144.369 42.2138Z" fill="white"/>
<path fill-rule="evenodd" clip-rule="evenodd" d="M188.058 162.627C187.23 162.627 186.558 161.956 186.558 161.127V42.2281C186.558 41.3997 187.23 40.7281 188.058 40.7281C188.887 40.7281 189.558 41.3997 189.558 42.2281V161.127C189.558 161.956 188.887 162.627 188.058 162.627Z" fill="white"/>
<path fill-rule="evenodd" clip-rule="evenodd" d="M205.673 162.627C204.844 162.627 204.173 161.956 204.173 161.127V42.2281C204.173 41.3997 204.844 40.7281 205.673 40.7281C206.501 40.7281 207.173 41.3997 207.173 42.2281V161.127C207.173 161.956 206.501 162.627 205.673 162.627Z" fill="white"/>
<path fill-rule="evenodd" clip-rule="evenodd" d="M221.526 162.627C220.698 162.627 220.026 161.956 220.026 161.127V42.2281C220.026 41.3997 220.698 40.7281 221.526 40.7281C222.355 40.7281 223.026 41.3997 223.026 42.2281V161.127C223.026 161.956 222.355 162.627 221.526 162.627Z" fill="white"/>
<path fill-rule="evenodd" clip-rule="evenodd" d="M295.596 110.697C294.767 110.697 294.096 110.025 294.096 109.197V9.50154C294.096 8.67311 294.767 8.00154 295.596 8.00154C296.424 8.00154 297.096 8.67312 297.096 9.50155V109.197C297.096 110.026 296.424 110.697 295.596 110.697Z" fill="white"/>
<path fill-rule="evenodd" clip-rule="evenodd" d="M386.121 69.531C385.292 69.531 384.621 68.8594 384.621 68.031V9.3871C384.621 8.55868 385.292 7.8871 386.121 7.8871C386.949 7.8871 387.621 8.55868 387.621 9.3871V68.031C387.621 68.8594 386.949 69.531 386.121 69.531Z" fill="white"/>
<path fill-rule="evenodd" clip-rule="evenodd" d="M420.163 69.531C419.335 69.531 418.663 68.8594 418.663 68.031V9.3871C418.663 8.55868 419.335 7.8871 420.163 7.8871C420.991 7.8871 421.663 8.55868 421.663 9.3871V68.031C421.663 68.8594 420.991 69.531 420.163 69.531Z" fill="white"/>
<path fill-rule="evenodd" clip-rule="evenodd" d="M385.871 162.627C385.043 162.627 384.371 161.956 384.371 161.127V103.88C384.371 103.051 385.043 102.38 385.871 102.38C386.7 102.38 387.371 103.051 387.371 103.88V161.127C387.371 161.956 386.7 162.627 385.871 162.627Z" fill="white"/>
<path fill-rule="evenodd" clip-rule="evenodd" d="M315.048 69.2617C314.22 69.2617 313.548 68.5901 313.548 67.7617V9.50159C313.548 8.67316 314.22 8.00159 315.048 8.00159C315.877 8.00159 316.548 8.67316 316.548 9.50159V67.7617C316.548 68.5901 315.877 69.2617 315.048 69.2617Z" fill="white"/>
<path fill-rule="evenodd" clip-rule="evenodd" d="M403.142 69.531C402.314 69.531 401.642 68.8594 401.642 68.031V9.3871C401.642 8.55868 402.314 7.8871 403.142 7.8871C403.97 7.8871 404.642 8.55868 404.642 9.3871V68.031C404.642 68.8594 403.97 69.531 403.142 69.531Z" fill="white"/>
<path fill-rule="evenodd" clip-rule="evenodd" d="M403.486 162.627C402.658 162.627 401.986 161.956 401.986 161.127V103.88C401.986 103.051 402.658 102.38 403.486 102.38C404.314 102.38 404.986 103.051 404.986 103.88V161.127C404.986 161.956 404.314 162.627 403.486 162.627Z" fill="white"/>
<path fill-rule="evenodd" clip-rule="evenodd" d="M333.286 69.2617C332.457 69.2617 331.786 68.5901 331.786 67.7617V9.50159C331.786 8.67316 332.457 8.00159 333.286 8.00159C334.114 8.00159 334.786 8.67316 334.786 9.50159V67.7617C334.786 68.5901 334.114 69.2617 333.286 69.2617Z" fill="white"/>
<path fill-rule="evenodd" clip-rule="evenodd" d="M420.22 160.866C419.392 160.866 418.72 160.194 418.72 159.366L418.72 103.88C418.72 103.051 419.392 102.38 420.22 102.38C421.048 102.38 421.72 103.051 421.72 103.88L421.72 159.366C421.72 160.194 421.048 160.866 420.22 160.866Z" fill="white"/>
<path fill-rule="evenodd" clip-rule="evenodd" d="M317.48 69.8965C306.222 69.8965 297.096 79.0229 297.096 90.2808V160.874C297.096 161.702 296.424 162.374 295.596 162.374C294.767 162.374 294.096 161.702 294.096 160.874V90.2808C294.096 77.366 304.565 66.8965 317.48 66.8965H425.064C425.892 66.8965 426.564 67.568 426.564 68.3965C426.564 69.2249 425.892 69.8965 425.064 69.8965H317.48Z" fill="white"/>
<path fill-rule="evenodd" clip-rule="evenodd" d="M332.328 87.5112C323.085 87.5112 315.591 95.0046 315.591 104.248V160.874C315.591 161.702 314.92 162.374 314.091 162.374C313.263 162.374 312.591 161.702 312.591 160.874V104.248C312.591 93.3478 321.428 84.5112 332.328 84.5112H425.064C425.892 84.5112 426.564 85.1828 426.564 86.0112C426.564 86.8396 425.892 87.5112 425.064 87.5112H332.328Z" fill="white"/>
<path fill-rule="evenodd" clip-rule="evenodd" d="M346.94 105.126C338.368 105.126 331.419 112.075 331.419 120.647V160.874C331.419 161.702 330.747 162.374 329.919 162.374C329.09 162.374 328.419 161.702 328.419 160.874V120.647C328.419 110.418 336.711 102.126 346.94 102.126H425.919C426.747 102.126 427.419 102.797 427.419 103.626C427.419 104.454 426.747 105.126 425.919 105.126H346.94Z" fill="white"/>
<path fill-rule="evenodd" clip-rule="evenodd" d="M517.896 44.1589C506.713 44.1589 502.393 46.2895 499.715 48.6438C498.567 49.6526 497.851 51.3673 497.82 53.2356C497.79 55.0915 498.439 56.8827 499.732 58.0562C501.206 59.3937 502.72 60.2859 505.82 61.214C508.994 62.1642 513.712 63.1175 521.565 64.6031C539.843 68.0611 554.863 73.4431 565.526 82.3766C577.366 92.2967 582.01 105.018 582.01 118.038C582.01 133.296 574.097 146.179 561.831 154.283C550.007 162.097 534.724 165.271 518.195 164.502C485.002 162.958 467.555 149.854 457.392 136.919C456.88 136.268 456.993 135.325 457.645 134.813C458.296 134.301 459.239 134.414 459.751 135.066C469.385 147.328 486.029 160.002 518.334 161.505C534.431 162.254 549.031 159.146 560.177 151.78C571.703 144.165 579.01 132.174 579.01 118.038C579.01 105.793 574.677 93.9575 563.599 84.6762C553.517 76.2293 539.093 70.9725 521.007 67.5508C513.203 66.0744 508.315 65.0924 504.96 64.088C501.531 63.0616 499.592 61.9799 497.716 60.2779C495.66 58.4119 494.779 55.723 494.821 53.1862C494.862 50.6618 495.822 48.0713 497.734 46.3904C501.176 43.3652 506.335 41.1589 517.896 41.1589C528.403 41.1589 535.107 43.8643 539.242 46.7204C541.302 48.1431 542.701 49.5873 543.604 50.7155C544.055 51.2792 544.382 51.7631 544.605 52.1249C544.717 52.3059 544.802 52.4559 544.864 52.5695C544.895 52.6264 544.92 52.6735 544.939 52.71L544.962 52.7544C544.97 52.7707 544.969 52.7677 544.968 52.7668C545.348 53.503 545.059 54.4078 544.323 54.7877C543.587 55.1677 542.682 54.8789 542.302 54.1428L542.302 54.1415C542.27 54.0771 541.081 51.6368 537.537 49.1888C533.955 46.7151 527.86 44.1589 517.896 44.1589Z" fill="white"/>
<path fill-rule="evenodd" clip-rule="evenodd" d="M475.84 16.657C487.092 9.27639 501.723 5.90088 517.896 5.90088C552.702 5.90088 570.781 23.2538 577.379 36.0384C577.759 36.7746 577.471 37.6794 576.734 38.0593C575.998 38.4393 575.094 38.1505 574.714 37.4144C568.625 25.6179 551.57 8.90088 517.896 8.90088C502.101 8.90088 488.101 12.2026 477.485 19.1655C466.51 26.3645 459.214 37.636 459.214 51.1697C459.214 61.8226 462.469 73.3315 472.91 82.8058C482.475 91.4849 496.511 96.9844 514.784 100.442C530.69 103.451 537.224 106.1 541.886 109.536C547.057 113.348 547.104 120.775 541.86 124.468C537.077 127.836 530.925 129.199 519.762 128.679C508.011 128.133 500.711 125.079 495.981 122.62C491.251 120.161 488.294 117.213 486.072 114.385C485.56 113.734 485.673 112.791 486.325 112.279C486.976 111.767 487.919 111.88 488.431 112.532C490.451 115.103 493.094 117.738 497.364 119.958C501.794 122.261 508.671 125.16 519.901 125.683C530.822 126.191 536.161 124.812 540.132 122.015C543.642 119.543 543.688 114.592 540.106 111.951C536.014 108.935 530.043 106.381 514.227 103.389C495.729 99.8896 481.057 94.2487 470.894 85.0275C459.695 74.8652 456.214 62.4731 456.214 51.1697C456.214 36.4556 464.171 24.3106 475.84 16.657Z" fill="white"/>
<path fill-rule="evenodd" clip-rule="evenodd" d="M485.842 31.9066C493.227 27.0628 504.028 24.1381 517.896 24.1381C545.817 24.1381 557.676 37.6271 561.174 44.403C561.554 45.1391 561.265 46.0439 560.529 46.4239C559.792 46.8038 558.888 46.5151 558.508 45.7789C555.521 39.9915 544.685 27.1381 517.896 27.1381C504.407 27.1381 494.236 29.9886 487.487 34.4152C480.771 38.8208 477.451 44.7658 477.451 51.1699C477.451 57.8328 479.312 63.989 485.165 69.3003C491.097 74.6831 501.265 79.3237 518.174 82.5227C535.291 85.7609 546.684 90.3827 553.813 96.3561C561.032 102.404 563.772 109.747 563.772 118.039C563.772 126.5 559.52 133.952 551.777 139.068C544.068 144.162 532.936 146.931 519.042 146.285C491.243 144.992 478.683 134.499 471.732 125.653C471.22 125.001 471.333 124.058 471.984 123.546C472.636 123.034 473.579 123.148 474.091 123.799C480.513 131.973 492.269 142.036 519.181 143.288C532.642 143.914 543.091 141.212 550.123 136.565C557.122 131.941 560.772 125.383 560.772 118.039C560.772 110.525 558.345 104.067 551.886 98.6556C545.338 93.1692 534.542 88.6725 517.617 85.4704C500.483 82.2289 489.679 77.447 483.149 71.522C476.541 65.5256 474.451 58.4887 474.451 51.1699C474.451 43.5924 478.425 36.7714 485.842 31.9066Z" fill="white"/>
<path fill-rule="evenodd" clip-rule="evenodd" d="M647.563 86.7574C638.319 86.7574 630.826 94.2508 630.826 103.494V129.634C630.826 133.913 632.934 136.833 635.657 138.739C638.436 140.684 641.781 141.508 643.915 141.508H718.079C718.908 141.508 719.579 142.179 719.579 143.008C719.579 143.836 718.908 144.508 718.079 144.508H643.915C641.187 144.508 637.237 143.508 633.937 141.197C630.581 138.848 627.826 135.081 627.826 129.634V103.494C627.826 92.5939 636.662 83.7574 647.563 83.7574H701.058C701.886 83.7574 702.558 84.4289 702.558 85.2574C702.558 86.0858 701.886 86.7574 701.058 86.7574H647.563Z" fill="white"/>
<path fill-rule="evenodd" clip-rule="evenodd" d="M632.718 33.5554C636.182 29.2672 641.619 26.0071 649.387 26.0071H718.079C718.908 26.0071 719.579 26.6786 719.579 27.5071C719.579 28.3355 718.908 29.0071 718.079 29.0071H649.387C642.565 29.0071 637.971 31.8259 635.052 35.4404C632.089 39.1085 630.826 43.6338 630.826 46.9599V71.2758C630.826 72.1043 630.154 72.7758 629.326 72.7758C628.497 72.7758 627.826 72.1043 627.826 71.2758V46.9599C627.826 42.9911 629.298 37.79 632.718 33.5554Z" fill="white"/>
<path fill-rule="evenodd" clip-rule="evenodd" d="M647.234 49.0343C649.791 45.9545 653.792 43.6358 659.46 43.6358H718.079C718.907 43.6358 719.579 44.3074 719.579 45.1358C719.579 45.9642 718.907 46.6358 718.079 46.6358H659.46C654.706 46.6358 651.543 48.5404 649.542 50.9509C647.497 53.4134 646.631 56.4486 646.631 58.6504V68.236C646.631 69.0644 645.959 69.736 645.131 69.736C644.302 69.736 643.631 69.0644 643.631 68.236V58.6504C643.631 55.7842 644.719 52.0621 647.234 49.0343Z" fill="white"/>
<path fill-rule="evenodd" clip-rule="evenodd" d="M647.176 122.891C649.715 125.324 653.619 126.879 659.113 126.879H718.079C718.907 126.879 719.579 126.207 719.579 125.379C719.579 124.55 718.907 123.879 718.079 123.879H659.113C654.186 123.879 651.099 122.496 649.252 120.725C647.398 118.948 646.631 116.626 646.631 114.436C646.631 109.222 650.858 104.994 656.073 104.994H701.058C701.886 104.994 702.558 104.323 702.558 103.494C702.558 102.666 701.886 101.994 701.058 101.994H656.073C649.201 101.994 643.631 107.565 643.631 114.436C643.631 117.315 644.644 120.464 647.176 122.891Z" fill="white"/>
<path fill-rule="evenodd" clip-rule="evenodd" d="M617 19.1277C621.375 13.7166 628.245 9.59319 638.097 9.59319H718.079C718.907 9.59319 719.579 10.2648 719.579 11.0932C719.579 11.9216 718.907 12.5932 718.079 12.5932H638.097C629.19 12.5932 623.164 16.2765 619.333 21.0141C615.458 25.8052 613.804 31.7124 613.804 36.0747V142.246C613.804 147.906 616.607 151.777 620.198 154.288C623.845 156.838 628.232 157.921 631.062 157.921H710.784C711.612 157.921 712.284 158.592 712.284 159.421C712.284 160.249 711.612 160.921 710.784 160.921H631.062C627.64 160.921 622.648 159.661 618.479 156.747C614.255 153.793 610.804 149.076 610.804 142.246V36.0747C610.804 31.0689 612.667 24.4853 617 19.1277Z" fill="white"/>
<path fill-rule="evenodd" clip-rule="evenodd" d="M642.699 69.7363C626.741 69.7363 613.804 82.675 613.804 98.6334L613.804 142.246C613.804 147.906 616.607 151.777 620.198 154.288C623.845 156.838 628.232 157.921 631.062 157.921L718.079 157.921C718.907 157.921 719.579 158.593 719.579 159.421C719.579 160.25 718.907 160.921 718.079 160.921L631.062 160.921C627.64 160.921 622.648 159.661 618.479 156.747C614.255 153.793 610.804 149.076 610.804 142.246L610.804 98.6334C610.804 81.0184 625.084 66.7363 642.699 66.7363H701.058C701.886 66.7363 702.558 67.4079 702.558 68.2363C702.558 69.0648 701.886 69.7363 701.058 69.7363H642.699Z" fill="white"/>
<path fill-rule="evenodd" clip-rule="evenodd" d="M762.263 29.6762C773.251 16.4213 790.493 7.58993 813.959 7.89462C837.486 8.2001 854.269 17.5404 864.667 31.0259C874.369 43.6081 877.209 58.0641 877.209 67.7514V161.127C877.209 161.956 876.537 162.627 875.709 162.627C874.881 162.627 874.209 161.956 874.209 161.127V67.7514C874.209 58.5646 871.5 44.7997 862.292 32.8578C852.493 20.15 836.599 11.1888 813.92 10.8944C791.294 10.6006 774.941 19.084 764.572 31.5909C754.778 43.4054 751.374 57.5182 751.374 67.7512V161.127C751.374 161.956 750.702 162.627 749.874 162.627C749.045 162.627 748.374 161.956 748.374 161.127V67.7511C748.374 56.9388 751.951 42.1145 762.263 29.6762ZM813.447 47.3653C801.05 47.2043 795.494 51.4408 792.652 54.8696C789.132 59.1149 787.848 64.5851 787.848 67.7515V161.127C787.848 161.956 787.176 162.627 786.348 162.627C785.519 162.627 784.848 161.956 784.848 161.127V67.7515C784.848 63.9998 786.309 57.8201 790.342 52.9549C793.801 48.782 800.244 44.1936 813.486 44.3655C826.676 44.5368 832.666 49.2555 835.783 53.2983C839.491 58.1071 840.735 64.1688 840.735 67.7513V161.127C840.735 161.956 840.063 162.627 839.235 162.627C838.407 162.627 837.735 161.956 837.735 161.127V67.7512C837.735 64.676 836.625 59.3029 833.407 55.1302C830.886 51.8609 825.783 47.5254 813.447 47.3653Z" fill="white"/>
<path fill-rule="evenodd" clip-rule="evenodd" d="M778.612 43.2305C771.956 51.26 769.611 61.0513 769.611 67.7517V161.127C769.611 161.127 769.611 161.128 768.111 161.128C766.611 161.128 766.611 161.127 766.611 161.127V67.7516C766.611 60.4703 769.13 49.9681 776.303 41.3159C783.527 32.6016 795.369 25.8921 813.723 26.1304C832.081 26.3688 843.467 33.3978 850.226 42.1624C856.931 50.8584 858.972 61.1175 858.972 67.7516L858.973 161.127C858.973 161.127 858.973 161.128 857.473 161.128C855.973 161.128 855.973 161.127 855.973 161.127L855.972 67.7516C855.972 61.6199 854.063 52.0512 847.85 43.9944C841.69 36.0062 831.192 29.3575 813.684 29.1301C796.172 28.9028 785.218 35.2631 778.612 43.2305ZM768.111 162.628C767.283 162.628 766.611 161.955 766.611 161.127L768.111 161.128L769.611 161.127C769.611 161.955 768.94 162.628 768.111 162.628ZM857.473 162.628C856.644 162.628 855.973 161.955 855.973 161.127L857.473 161.128L858.973 161.127C858.973 161.955 858.301 162.628 857.473 162.628Z" fill="white"/>
<path fill-rule="evenodd" clip-rule="evenodd" d="M784.848 96.9304C784.848 96.102 785.52 95.4304 786.348 95.4304L838.627 95.4304C839.456 95.4304 840.127 96.102 840.127 96.9304C840.127 97.7589 839.456 98.4304 838.627 98.4304L786.348 98.4304C785.52 98.4304 784.848 97.7588 784.848 96.9304Z" fill="white"/>
<path fill-rule="evenodd" clip-rule="evenodd" d="M784.848 79.9092C784.848 79.0808 785.52 78.4092 786.348 78.4092H838.627C839.456 78.4092 840.127 79.0808 840.127 79.9092C840.127 80.7377 839.456 81.4092 838.627 81.4092H786.348C785.52 81.4092 784.848 80.7377 784.848 79.9092Z" fill="white"/>
<path fill-rule="evenodd" clip-rule="evenodd" d="M784.848 113.952C784.848 113.123 785.52 112.452 786.348 112.452L838.627 112.452C839.456 112.452 840.127 113.123 840.127 113.952C840.127 114.78 839.456 115.452 838.627 115.452L786.348 115.452C785.52 115.452 784.848 114.78 784.848 113.952Z" fill="white"/>
</g>
<g filter="url(#filter1_d_608_1730)">
<path d="M34.544 253.886C34.0396 254.544 34.1635 255.485 34.8207 255.99C35.4779 256.494 36.4195 256.37 36.9239 255.713L34.544 253.886ZM44.2163 246.979L43.4656 245.68L43.4656 245.68L44.2163 246.979ZM105.157 328.909C105.985 328.909 106.657 328.238 106.657 327.409C106.657 326.581 105.985 325.909 105.157 325.909V328.909ZM41.3269 303.316L40.3269 302.198L40.3269 302.198L41.3269 303.316ZM18.981 323.263L19.9789 324.383L19.9789 324.383L18.981 323.263ZM67.2427 280.036L66.2365 278.924L66.2365 278.924L67.2427 280.036ZM76.5755 271.538L75.5593 270.435L75.5593 270.435L76.5755 271.538ZM79.4883 268.829L80.5186 269.919L80.5186 269.919L79.4883 268.829ZM80.4539 267.903L81.5035 268.974L81.5035 268.974L80.4539 267.903ZM80.4815 267.878L79.3928 266.846C78.8229 267.447 78.8483 268.396 79.4496 268.966C80.0508 269.536 81.0002 269.511 81.5701 268.91L80.4815 267.878ZM84.1087 262.827L85.4653 263.467L85.4653 263.467L84.1087 262.827ZM82.2673 247.582L83.3398 246.533L83.3398 246.533L82.2673 247.582ZM65.754 242.303L65.754 240.803L65.754 240.803L65.754 242.303ZM14.3266 327.409L13.329 326.289C12.8641 326.703 12.7032 327.361 12.9247 327.943C13.1462 328.525 13.704 328.909 14.3266 328.909V327.409ZM25.9631 215.401L25.2124 214.103L25.2124 214.103L25.9631 215.401ZM5.60987 231.68C5.10549 232.337 5.22936 233.279 5.88654 233.783C6.54373 234.287 7.48536 234.164 7.98974 233.506L5.60987 231.68ZM65.7542 205.829L65.7542 207.329L65.7542 207.329L65.7542 205.829ZM108.345 222.081L109.418 221.032L109.418 221.032L108.345 222.081ZM106.953 292.97L105.865 291.938L105.865 291.938L106.953 292.97ZM65.7542 224.066L65.7542 222.566L65.7542 224.066ZM93.7176 280.424L92.629 279.392L92.629 279.392L93.7176 280.424ZM53.4857 316.908L52.4857 315.79L52.4857 315.79L53.4857 316.908ZM41.9356 327.228L40.9368 326.109C40.4726 326.523 40.3124 327.181 40.5341 327.762C40.7558 328.344 41.3134 328.728 41.9356 328.728V327.228ZM114.884 328.728C115.712 328.728 116.384 328.056 116.384 327.228C116.384 326.399 115.712 325.728 114.884 325.728V328.728ZM13.9722 362.383C13.1438 362.383 12.4722 363.055 12.4722 363.883C12.4722 364.712 13.1438 365.383 13.9722 365.383L13.9722 362.383ZM114.884 365.383C115.712 365.383 116.384 364.712 116.384 363.883C116.384 363.055 115.712 362.383 114.884 362.383L114.884 365.383ZM248.41 330.713L247.188 329.843L247.181 329.853L248.41 330.713ZM248.41 239L247.181 239.859L247.188 239.869L248.41 239ZM183.648 239L182.426 238.13L182.419 238.14L183.648 239ZM183.648 330.713L182.419 331.572L182.426 331.582L183.648 330.713ZM168.788 228.429L167.565 227.56L167.565 227.56L168.788 228.429ZM263.315 228.49L262.087 229.351L262.092 229.358L263.315 228.49ZM263.316 341.222L262.092 340.354L262.087 340.361L263.316 341.222ZM168.788 341.283L170.01 340.414L170.01 340.414L168.788 341.283ZM168.702 341.161L169.931 340.302L169.931 340.302L168.702 341.161ZM168.702 228.552L169.931 229.411L169.931 229.411L168.702 228.552ZM198.554 249.509L197.333 248.637C197.33 248.642 197.326 248.648 197.322 248.653L198.554 249.509ZM198.553 320.203L197.322 321.059C197.326 321.065 197.329 321.07 197.333 321.076L198.553 320.203ZM233.464 320.264L232.234 319.405L232.234 319.405L233.464 320.264ZM233.55 320.142L232.327 319.273L232.327 319.273L233.55 320.142ZM233.55 249.57L232.327 250.44L232.327 250.44L233.55 249.57ZM233.464 249.448L232.234 250.308L232.234 250.308L233.464 249.448ZM337.879 253.886C337.374 254.544 337.498 255.485 338.155 255.99C338.813 256.494 339.754 256.37 340.259 255.713L337.879 253.886ZM347.551 246.979L346.8 245.68L346.8 245.68L347.551 246.979ZM408.492 328.909C409.32 328.909 409.992 328.238 409.992 327.409C409.992 326.581 409.32 325.909 408.492 325.909V328.909ZM344.662 303.316L343.662 302.198L343.662 302.198L344.662 303.316ZM322.316 323.263L323.314 324.383L323.314 324.383L322.316 323.263ZM370.577 280.036L369.571 278.924L369.571 278.924L370.577 280.036ZM379.91 271.538L378.894 270.435L378.894 270.435L379.91 271.538ZM382.823 268.829L383.853 269.919L383.853 269.919L382.823 268.829ZM383.789 267.903L384.838 268.974L384.838 268.974L383.789 267.903ZM383.816 267.878L382.728 266.846C382.158 267.447 382.183 268.396 382.784 268.966C383.386 269.536 384.335 269.511 384.905 268.91L383.816 267.878ZM387.443 262.827L388.8 263.467L388.8 263.467L387.443 262.827ZM385.602 247.582L386.675 246.533L386.675 246.533L385.602 247.582ZM369.089 242.303L369.089 240.803L369.089 240.803L369.089 242.303ZM317.661 327.409L316.664 326.289C316.199 326.703 316.038 327.361 316.259 327.943C316.481 328.525 317.039 328.909 317.661 328.909V327.409ZM329.298 215.401L328.547 214.103L328.547 214.103L329.298 215.401ZM308.945 231.68C308.44 232.337 308.564 233.279 309.221 233.783C309.878 234.287 310.82 234.163 311.324 233.506L308.945 231.68ZM369.089 205.829L369.089 207.329L369.089 207.329L369.089 205.829ZM411.68 222.081L412.752 221.032L412.752 221.032L411.68 222.081ZM410.288 292.97L409.199 291.938L409.199 291.938L410.288 292.97ZM369.089 224.066L369.088 222.566L369.089 224.066ZM397.052 280.424L395.963 279.392L395.963 279.392L397.052 280.424ZM356.82 316.908L355.82 315.79L355.82 315.79L356.82 316.908ZM345.27 327.228L344.271 326.109C343.807 326.523 343.647 327.181 343.868 327.762C344.09 328.344 344.648 328.728 345.27 328.728V327.228ZM418.218 328.728C419.046 328.728 419.718 328.056 419.718 327.228C419.718 326.4 419.046 325.728 418.218 325.728V328.728ZM317.306 362.383C316.478 362.383 315.806 363.055 315.806 363.883C315.806 364.712 316.478 365.383 317.306 365.383L317.306 362.383ZM418.218 365.383C419.046 365.383 419.718 364.712 419.718 363.883C419.718 363.055 419.046 362.383 418.218 362.383L418.218 365.383ZM457.458 311.32C456.629 311.32 455.958 311.992 455.958 312.82C455.958 313.649 456.629 314.32 457.458 314.32L457.458 311.32ZM571.743 314.32C572.571 314.32 573.243 313.649 573.243 312.82C573.243 311.992 572.571 311.32 571.743 311.32L571.743 314.32ZM457.458 328.341C456.629 328.341 455.958 329.013 455.958 329.841C455.958 330.67 456.629 331.341 457.458 331.341L457.458 328.341ZM571.743 331.341C572.571 331.341 573.243 330.67 573.243 329.841C573.243 329.013 572.571 328.341 571.743 328.341L571.743 331.341ZM517.493 294.482V295.982C518.322 295.982 518.993 295.31 518.993 294.482H517.493ZM504.338 294.482L503.124 293.601C502.793 294.058 502.745 294.661 503.002 295.163C503.258 295.666 503.774 295.982 504.338 295.982V294.482ZM517.493 276.346H518.993C518.993 275.696 518.575 275.12 517.956 274.92C517.338 274.719 516.661 274.939 516.279 275.466L517.493 276.346ZM541.624 206.809L542.109 205.389L542.109 205.389L541.624 206.809ZM521.303 212.912L520.116 211.994L520.116 211.994L521.303 212.912ZM458.232 294.482L457.046 293.564C456.696 294.017 456.634 294.629 456.886 295.143C457.138 295.656 457.66 295.982 458.232 295.982V294.482ZM571.135 295.982C571.963 295.982 572.635 295.31 572.635 294.482C572.635 293.654 571.963 292.982 571.135 292.982V295.982ZM536.946 224.067H538.446C538.446 223.425 538.038 222.855 537.431 222.647C536.823 222.44 536.152 222.642 535.759 223.149L536.946 224.067ZM482.422 294.583L481.236 293.666C480.886 294.118 480.824 294.731 481.076 295.244C481.328 295.758 481.85 296.083 482.422 296.083V294.583ZM571.135 296.083C571.963 296.083 572.635 295.412 572.635 294.583C572.635 293.755 571.963 293.083 571.135 293.083V296.083ZM36.9239 255.713C39.0218 252.979 41.2844 250.406 44.9669 248.278L43.4656 245.68C39.2868 248.096 36.74 251.025 34.544 253.886L36.9239 255.713ZM105.157 325.909H69.0992V328.909H105.157V325.909ZM40.3269 302.198C31.9894 309.655 23.9446 316.831 17.9831 322.143L19.9789 324.383C25.9413 319.07 33.9876 311.893 42.327 304.434L40.3269 302.198ZM66.2365 278.924C58.8027 285.647 49.402 294.08 40.3269 302.198L42.327 304.434C51.4033 296.315 60.8088 287.878 68.2489 281.149L66.2365 278.924ZM75.5593 270.435C73.1542 272.65 69.9574 275.559 66.2365 278.924L68.2489 281.149C71.9722 277.781 75.1768 274.866 77.5917 272.642L75.5593 270.435ZM78.4579 267.739C77.7356 268.421 76.7647 269.325 75.5593 270.435L77.5917 272.642C78.8016 271.527 79.783 270.614 80.5186 269.919L78.4579 267.739ZM79.4043 266.831C79.3093 266.924 79.0249 267.203 78.4579 267.739L80.5186 269.919C81.1009 269.369 81.3983 269.077 81.5035 268.974L79.4043 266.831ZM81.5701 268.91C81.5722 268.907 81.5892 268.889 81.6049 268.872C81.6084 268.868 81.6235 268.852 81.6417 268.83C81.6483 268.822 81.6734 268.793 81.7027 268.753C81.7151 268.736 81.7506 268.687 81.7894 268.621C81.8081 268.589 81.8458 268.522 81.8826 268.433C81.9026 268.384 82.006 268.14 81.9941 267.809C81.9874 267.622 81.9402 267.318 81.7325 267.015C81.5082 266.688 81.1924 266.5 80.8969 266.418C80.4246 266.286 80.0452 266.431 79.9957 266.448C79.7977 266.518 79.6596 266.617 79.6522 266.622C79.5828 266.669 79.5322 266.713 79.5269 266.717C79.4988 266.741 79.4773 266.761 79.4741 266.764C79.4497 266.786 79.413 266.823 79.4042 266.831L81.5035 268.974C81.5398 268.939 81.5288 268.95 81.5129 268.965C81.5107 268.967 81.49 268.986 81.4625 269.009C81.4575 269.013 81.407 269.057 81.3378 269.104C81.3304 269.109 81.1924 269.207 80.9945 269.277C80.9449 269.295 80.5656 269.439 80.0933 269.308C79.7977 269.226 79.4819 269.038 79.2577 268.711C79.0499 268.408 79.0028 268.104 78.996 267.917C78.9842 267.586 79.0876 267.342 79.1076 267.293C79.1444 267.203 79.182 267.137 79.2007 267.105C79.2395 267.039 79.275 266.99 79.2872 266.974C79.3165 266.934 79.3413 266.904 79.3477 266.897C79.3654 266.876 79.3797 266.86 79.3821 266.857C79.3938 266.845 79.4026 266.835 79.3928 266.846L81.5701 268.91ZM82.7521 262.187C81.9983 263.785 80.9185 265.236 79.3928 266.846L81.5701 268.91C83.2283 267.16 84.5307 265.448 85.4653 263.467L82.7521 262.187ZM84.1488 255.094C84.1488 258.497 83.459 260.689 82.7521 262.187L85.4653 263.467C86.36 261.571 87.1488 258.942 87.1488 255.094H84.1488ZM81.1949 248.63C83.4453 250.932 84.1488 253.656 84.1488 255.094H87.1488C87.1488 252.908 86.1634 249.42 83.3398 246.533L81.1949 248.63ZM65.754 243.803C75.1244 243.803 79.3329 246.726 81.1949 248.63L83.3398 246.533C80.8464 243.983 75.8305 240.803 65.754 240.803L65.754 243.803ZM44.9669 248.278C48.5822 246.188 54.8509 243.803 65.754 243.803L65.754 240.803C54.3823 240.803 47.5854 243.299 43.4656 245.68L44.9669 248.278ZM17.9831 322.143C16.238 323.698 14.6716 325.093 13.329 326.289L15.3241 328.529C16.6669 327.334 18.2335 325.938 19.9789 324.383L17.9831 322.143ZM14.3266 328.909H69.0992V325.909H14.3266V328.909ZM25.2124 214.103C15.0203 219.994 9.02116 227.235 5.60987 231.68L7.98974 233.506C11.3004 229.193 17.0157 222.306 26.7138 216.7L25.2124 214.103ZM65.7542 204.329C48.6944 204.33 35.4733 208.171 25.2124 214.103L26.7138 216.7C36.4693 211.061 49.162 207.33 65.7542 207.329L65.7542 204.329ZM109.418 221.032C99.2021 210.585 84.3432 204.329 65.7542 204.329L65.7542 207.329C83.6449 207.329 97.6935 213.334 107.273 223.129L109.418 221.032ZM123.623 255.095C123.623 243.871 119.244 231.08 109.418 221.032L107.273 223.129C116.523 232.588 120.623 244.614 120.623 255.095H123.623ZM108.042 294.002C115.027 286.633 123.623 274.42 123.623 255.095H120.623C120.623 273.405 112.521 284.916 105.865 291.938L108.042 294.002ZM70.0996 328.527C86.799 313.58 105.007 297.203 108.042 294.002L105.865 291.938C102.942 295.022 84.8845 311.267 68.0988 326.291L70.0996 328.527ZM22.457 244.609C25.161 241.086 29.15 236.356 35.8405 232.489C42.5259 228.624 52.0065 225.566 65.7542 225.566L65.7542 222.566C51.5386 222.566 41.5296 225.735 34.3392 229.891C27.1539 234.045 22.881 239.13 20.0771 242.783L22.457 244.609ZM65.7542 225.566C79.3857 225.566 88.5139 230.03 94.234 235.88C99.9836 241.759 102.386 249.134 102.386 255.094H105.386C105.386 248.39 102.704 240.251 96.3789 233.782C90.0239 227.284 80.0861 222.566 65.7542 222.566L65.7542 225.566ZM102.386 255.094C102.386 267.253 97.2646 274.501 92.629 279.392L94.8063 281.455C99.774 276.215 105.386 268.265 105.386 255.094H102.386ZM13.9722 347.146H114.884V344.146H13.9722V347.146ZM92.629 279.392C90.1833 281.972 70.6978 299.5 52.4857 315.79L54.4857 318.026C72.6066 301.817 92.2482 284.154 94.8063 281.455L92.629 279.392ZM52.4857 315.79C48.5042 319.351 44.5898 322.848 40.9368 326.109L42.9344 328.347C46.5881 325.086 50.5033 321.588 54.4857 318.026L52.4857 315.79ZM41.9356 328.728H114.884V325.728H41.9356V328.728ZM13.9722 365.383L114.884 365.383L114.884 362.383L13.9722 362.383L13.9722 365.383ZM216.128 348.362C230.576 348.362 241.812 342.77 249.64 331.572L247.181 329.853C239.957 340.188 229.672 345.362 216.128 345.362V348.362ZM249.633 331.582C257.541 320.464 261.397 304.825 261.397 284.856H258.397C258.397 304.496 254.596 319.429 247.188 329.843L249.633 331.582ZM261.397 284.856C261.397 264.887 257.541 249.249 249.633 238.13L247.188 239.869C254.596 250.284 258.397 265.216 258.397 284.856H261.397ZM249.64 238.14C241.812 226.943 230.576 221.35 216.128 221.35V224.35C229.672 224.35 239.957 229.524 247.181 239.859L249.64 238.14ZM216.128 221.35C201.681 221.35 190.384 226.942 182.426 238.13L184.871 239.869C192.228 229.525 202.585 224.35 216.128 224.35V221.35ZM182.419 238.14C174.648 249.257 170.86 264.891 170.86 284.856H173.86C173.86 265.212 177.597 250.275 184.878 239.859L182.419 238.14ZM170.86 284.856C170.86 304.821 174.648 320.455 182.419 331.572L184.878 329.853C177.597 319.437 173.86 304.5 173.86 284.856H170.86ZM182.426 331.582C190.384 342.771 201.681 348.362 216.128 348.362V345.362C202.585 345.362 192.228 340.187 184.871 329.843L182.426 331.582ZM216.129 203.114C196.193 203.114 179.178 211.234 167.565 227.56L170.01 229.299C181.02 213.82 197.094 206.114 216.129 206.114V203.114ZM264.544 227.629C253.049 211.227 236.045 203.114 216.129 203.114V206.114C235.145 206.114 251.197 213.811 262.087 229.351L264.544 227.629ZM279.635 284.856C279.635 262.915 275.458 243.011 264.538 227.622L262.092 229.358C272.512 244.044 276.635 263.243 276.635 284.856H279.635ZM264.539 342.09C275.458 326.701 279.635 306.797 279.635 284.856H276.635C276.635 306.469 272.512 325.668 262.092 340.354L264.539 342.09ZM216.129 366.599C236.045 366.599 253.049 358.486 264.544 342.082L262.087 340.361C251.197 355.901 235.145 363.599 216.129 363.599V366.599ZM167.565 342.153C179.178 358.478 196.193 366.599 216.129 366.599V363.599C197.094 363.599 181.02 355.893 170.01 340.414L167.565 342.153ZM167.472 342.02C167.503 342.065 167.534 342.109 167.565 342.153L170.01 340.414C169.983 340.376 169.957 340.339 169.931 340.302L167.472 342.02ZM152.623 284.856C152.623 306.773 156.725 326.646 167.472 342.02L169.931 340.302C159.674 325.628 155.623 306.453 155.623 284.856H152.623ZM167.472 227.692C156.725 243.067 152.623 262.94 152.623 284.856H155.623C155.623 263.26 159.674 244.085 169.931 229.411L167.472 227.692ZM167.565 227.56C167.534 227.604 167.503 227.648 167.472 227.692L169.931 229.411C169.957 229.374 169.983 229.336 170.01 229.299L167.565 227.56ZM192.097 284.856C192.097 267.22 195.499 256.533 199.785 250.365L197.322 248.653C192.551 255.518 189.097 266.898 189.097 284.856H192.097ZM199.785 319.347C195.499 313.18 192.097 302.492 192.097 284.856H189.097C189.097 302.814 192.551 314.194 197.322 321.059L199.785 319.347ZM216.129 327.125C212.059 327.125 208.906 326.445 206.329 325.167C203.76 323.891 201.662 321.97 199.773 319.33L197.333 321.076C199.443 324.025 201.896 326.316 204.996 327.854C208.088 329.389 211.724 330.125 216.129 330.125V327.125ZM232.234 319.405C230.414 322.009 228.383 323.909 225.864 325.174C223.336 326.443 220.212 327.125 216.129 327.125V330.125C220.545 330.125 224.159 329.387 227.21 327.855C230.268 326.32 232.654 324.04 234.693 321.124L232.234 319.405ZM232.327 319.273C232.296 319.317 232.265 319.361 232.234 319.405L234.693 321.124C234.719 321.086 234.745 321.049 234.772 321.011L232.327 319.273ZM240.161 284.856C240.161 302.493 236.692 313.137 232.327 319.273L234.772 321.012C239.636 314.173 243.161 302.824 243.161 284.856H240.161ZM232.327 250.44C236.692 256.575 240.161 267.219 240.161 284.856H243.161C243.161 266.888 239.636 255.54 234.772 248.701L232.327 250.44ZM232.234 250.308C232.265 250.352 232.296 250.396 232.327 250.44L234.772 248.701C234.745 248.664 234.719 248.626 234.693 248.589L232.234 250.308ZM216.129 242.588C220.212 242.588 223.336 243.27 225.864 244.538C228.383 245.803 230.414 247.704 232.234 250.308L234.693 248.589C232.654 245.673 230.268 243.393 227.21 241.857C224.159 240.326 220.545 239.588 216.129 239.588V242.588ZM199.774 250.382C201.662 247.742 203.76 245.821 206.329 244.546C208.906 243.267 212.059 242.588 216.129 242.588V239.588C211.724 239.588 208.088 240.324 204.996 241.859C201.896 243.397 199.443 245.687 197.333 248.637L199.774 250.382ZM340.259 255.713C342.357 252.979 344.619 250.406 348.302 248.278L346.8 245.68C342.622 248.096 340.075 251.025 337.879 253.886L340.259 255.713ZM408.492 325.909H372.434V328.909H408.492V325.909ZM343.662 302.198C335.324 309.655 327.279 316.831 321.318 322.143L323.314 324.383C329.276 319.07 337.322 311.893 345.662 304.434L343.662 302.198ZM369.571 278.924C362.137 285.647 352.737 294.08 343.662 302.198L345.662 304.434C354.738 296.315 364.144 287.878 371.584 281.149L369.571 278.924ZM378.894 270.435C376.489 272.65 373.292 275.559 369.571 278.924L371.584 281.149C375.307 277.781 378.512 274.866 380.926 272.642L378.894 270.435ZM381.793 267.739C381.07 268.422 380.099 269.325 378.894 270.435L380.926 272.642C382.136 271.527 383.118 270.614 383.853 269.919L381.793 267.739ZM382.739 266.831C382.644 266.924 382.36 267.203 381.793 267.739L383.853 269.919C384.436 269.369 384.733 269.078 384.838 268.974L382.739 266.831ZM384.905 268.91C384.907 268.907 384.924 268.889 384.94 268.872C384.943 268.868 384.958 268.852 384.977 268.83C384.983 268.822 385.008 268.792 385.038 268.752C385.05 268.736 385.086 268.687 385.125 268.62C385.143 268.589 385.181 268.522 385.218 268.432C385.238 268.383 385.341 268.139 385.329 267.809C385.322 267.622 385.275 267.32 385.069 267.018C384.846 266.691 384.532 266.502 384.236 266.419C383.763 266.286 383.383 266.43 383.333 266.448C383.134 266.518 382.995 266.617 382.988 266.622C382.918 266.669 382.867 266.712 382.862 266.717C382.834 266.741 382.812 266.761 382.809 266.764C382.784 266.786 382.748 266.823 382.739 266.831L384.838 268.974C384.875 268.939 384.863 268.95 384.847 268.965C384.845 268.967 384.825 268.986 384.797 269.009C384.792 269.014 384.741 269.057 384.672 269.104C384.664 269.109 384.526 269.208 384.327 269.278C384.277 269.296 383.896 269.44 383.424 269.307C383.128 269.224 382.814 269.035 382.591 268.708C382.384 268.406 382.337 268.104 382.331 267.917C382.319 267.587 382.422 267.343 382.442 267.294C382.479 267.204 382.516 267.137 382.535 267.106C382.574 267.039 382.609 266.991 382.622 266.974C382.651 266.934 382.676 266.905 382.682 266.897C382.7 266.876 382.714 266.86 382.717 266.857C382.728 266.845 382.737 266.835 382.728 266.846L384.905 268.91ZM386.087 262.187C385.333 263.785 384.253 265.236 382.728 266.846L384.905 268.91C386.563 267.16 387.865 265.448 388.8 263.467L386.087 262.187ZM387.484 255.094C387.484 258.497 386.794 260.689 386.087 262.187L388.8 263.467C389.695 261.571 390.484 258.942 390.484 255.094H387.484ZM384.53 248.63C386.78 250.932 387.484 253.656 387.484 255.094H390.484C390.484 252.908 389.498 249.42 386.675 246.533L384.53 248.63ZM369.089 243.803C378.459 243.803 382.668 246.726 384.53 248.63L386.675 246.533C384.181 243.983 379.165 240.803 369.089 240.803L369.089 243.803ZM348.302 248.278C351.917 246.188 358.186 243.803 369.089 243.803L369.089 240.803C357.717 240.803 350.92 243.299 346.8 245.68L348.302 248.278ZM321.318 322.143C319.573 323.698 318.006 325.093 316.664 326.289L318.659 328.529C320.002 327.334 321.568 325.938 323.314 324.383L321.318 322.143ZM317.661 328.909H372.434V325.909H317.661V328.909ZM328.547 214.103C318.355 219.994 312.356 227.235 308.945 231.68L311.324 233.506C314.635 229.193 320.35 222.306 330.049 216.7L328.547 214.103ZM369.089 204.329C352.029 204.329 338.808 208.171 328.547 214.103L330.049 216.7C339.804 211.061 352.497 207.329 369.089 207.329L369.089 204.329ZM412.752 221.032C402.537 210.585 387.678 204.329 369.089 204.329L369.089 207.329C386.98 207.329 401.028 213.334 410.607 223.129L412.752 221.032ZM426.958 255.095C426.958 243.871 422.579 231.08 412.752 221.032L410.607 223.129C419.857 232.588 423.958 244.614 423.958 255.095H426.958ZM411.377 294.002C418.362 286.632 426.958 274.42 426.958 255.095H423.958C423.958 273.405 415.855 284.916 409.199 291.938L411.377 294.002ZM373.434 328.527C390.134 313.58 408.342 297.203 411.377 294.002L409.199 291.938C406.277 295.021 388.219 311.267 371.433 326.291L373.434 328.527ZM325.791 244.61C328.495 241.086 332.484 236.356 339.175 232.489C345.86 228.624 355.341 225.566 369.089 225.566L369.088 222.566C354.873 222.566 344.864 225.735 337.673 229.891C330.488 234.045 326.215 239.13 323.411 242.783L325.791 244.61ZM369.089 225.566C382.72 225.566 391.848 230.03 397.568 235.88C403.318 241.759 405.72 249.134 405.72 255.095H408.72C408.72 248.39 406.039 240.251 399.713 233.782C393.358 227.284 383.42 222.566 369.088 222.566L369.089 225.566ZM405.72 255.095C405.72 267.253 400.599 274.501 395.963 279.392L398.141 281.456C403.108 276.215 408.72 268.265 408.72 255.095H405.72ZM317.306 347.146H418.218V344.146H317.306V347.146ZM395.963 279.392C393.518 281.972 374.032 299.5 355.82 315.79L357.82 318.026C375.941 301.817 395.582 284.154 398.141 281.456L395.963 279.392ZM355.82 315.79C351.838 319.352 347.924 322.848 344.271 326.109L346.269 328.347C349.922 325.086 353.838 321.588 357.82 318.026L355.82 315.79ZM345.27 328.728H418.218V325.728H345.27V328.728ZM317.306 365.383L418.218 365.383L418.218 362.383L317.306 362.383L317.306 365.383ZM457.458 314.32L571.743 314.32L571.743 311.32L457.458 311.32L457.458 314.32ZM457.458 331.341L571.743 331.341L571.743 328.341L457.458 328.341L457.458 331.341ZM517.493 292.982H504.338V295.982H517.493V292.982ZM515.993 276.346V294.482H518.993V276.346H515.993ZM505.552 295.363L518.708 277.227L516.279 275.466L503.124 293.601L505.552 295.363ZM555.467 224.067C555.467 215.625 550.098 208.117 542.109 205.389L541.139 208.228C547.914 210.542 552.467 216.908 552.467 224.067H555.467ZM555.467 294.482V224.067H552.467V294.482H555.467ZM542.109 205.389C534.12 202.661 525.28 205.316 520.116 211.994L522.489 213.829C526.868 208.166 534.364 205.914 541.139 208.228L542.109 205.389ZM520.116 211.994L457.046 293.564L459.419 295.399L522.489 213.829L520.116 211.994ZM458.232 295.982H553.967V292.982H458.232V295.982ZM535.446 224.067V294.583H538.446V224.067H535.446ZM535.759 223.149L481.236 293.666L483.609 295.501L538.132 224.984L535.759 223.149ZM482.422 296.083H536.946V293.083H482.422V296.083ZM536.946 296.083H571.135V293.083H536.946V296.083ZM536.485 329.841V363.884H539.485V329.841H536.485ZM517.032 329.841L517.032 363.884L520.032 363.884L520.032 329.841L517.032 329.841ZM552.29 329.841V363.884H555.29V329.841H552.29ZM571.135 292.982H553.967V295.982H571.135V292.982Z" fill="white"/>
</g>
<defs>
<filter id="filter0_d_608_1730" x="1.7998" y="0.900879" width="880.409" height="168.713" filterUnits="userSpaceOnUse" color-interpolation-filters="sRGB">
<feFlood flood-opacity="0" result="BackgroundImageFix"/>
<feColorMatrix in="SourceAlpha" type="matrix" values="0 0 0 0 0 0 0 0 0 0 0 0 0 0 0 0 0 0 127 0" result="hardAlpha"/>
<feOffset/>
<feGaussianBlur stdDeviation="2.5"/>
<feComposite in2="hardAlpha" operator="out"/>
<feColorMatrix type="matrix" values="0 0 0 0 0.988235 0 0 0 0 0.890196 0 0 0 0 0 0 0 0 0.2 0"/>
<feBlend mode="normal" in2="BackgroundImageFix" result="effect1_dropShadow_608_1730"/>
<feBlend mode="normal" in="SourceGraphic" in2="effect1_dropShadow_608_1730" result="shape"/>
</filter>
<filter id="filter1_d_608_1730" x="0.299805" y="198.114" width="577.943" height="173.485" filterUnits="userSpaceOnUse" color-interpolation-filters="sRGB">
<feFlood flood-opacity="0" result="BackgroundImageFix"/>
<feColorMatrix in="SourceAlpha" type="matrix" values="0 0 0 0 0 0 0 0 0 0 0 0 0 0 0 0 0 0 127 0" result="hardAlpha"/>
<feOffset/>
<feGaussianBlur stdDeviation="2.5"/>
<feComposite in2="hardAlpha" operator="out"/>
<feColorMatrix type="matrix" values="0 0 0 0 0.988235 0 0 0 0 0.890196 0 0 0 0 0 0 0 0 0.2 0"/>
<feBlend mode="normal" in2="BackgroundImageFix" result="effect1_dropShadow_608_1730"/>
<feBlend mode="normal" in="SourceGraphic" in2="effect1_dropShadow_608_1730" result="shape"/>
</filter>
</defs>
</svg>
