<svg width="23" height="36" viewBox="0 0 23 36" fill="none" xmlns="http://www.w3.org/2000/svg">
<g style="mix-blend-mode:lighten">
<path fill-rule="evenodd" clip-rule="evenodd" d="M3.21372 17.2184C2.26281 16.6225 1.00886 16.9103 0.412957 17.8612C-0.18295 18.8121 0.104841 20.0661 1.05576 20.662L10.1472 26.3593C10.52 26.6709 10.9906 26.8354 11.4677 26.8318C11.9449 26.8354 12.4155 26.6709 12.7882 26.3593L21.8797 20.662C22.8306 20.0661 23.1184 18.8121 22.5225 17.8612C21.9266 16.9103 20.6727 16.6225 19.7217 17.2184L11.4677 22.3909L3.21372 17.2184Z" fill="#DE40BA"/>
</g>
<g style="mix-blend-mode:screen">
<path fill-rule="evenodd" clip-rule="evenodd" d="M11.5 6.95973L4.434 18.9573L11.5 29.4122L18.566 18.9573L11.5 6.95973ZM11.5 35.05C10.8431 35.0544 10.1964 34.7408 9.80097 34.1557L0.348437 20.1697C-0.0905105 19.5202 -0.116718 18.6762 0.281091 18.0007L9.73363 1.95101C10.1149 1.30364 10.7992 0.945258 11.5 0.949966C12.2009 0.945258 12.8851 1.30364 13.2664 1.95101L22.719 18.0007C23.1168 18.6762 23.0906 19.5202 22.6516 20.1697L13.1991 34.1557C12.8037 34.7408 12.1569 35.0544 11.5 35.05Z" fill="#2C40BA"/>
</g>
</svg>
