<svg width="537" height="276" viewBox="0 0 537 276" fill="none" xmlns="http://www.w3.org/2000/svg">
<g style="mix-blend-mode:overlay" filter="url(#filter0_f_729_1038)">
<path d="M103.668 1.7528C103.331 2.19093 103.414 2.81868 103.852 3.15494C104.29 3.49119 104.918 3.40861 105.254 2.97049L103.668 1.7528ZM109.945 -2.69437L109.444 -3.56013L109.945 -2.69437ZM149.342 50.3028C149.894 50.3028 150.342 49.8551 150.342 49.3028C150.342 48.7506 149.894 48.3028 149.342 48.3028V50.3028ZM108.077 33.7266L107.41 32.9813L108.077 33.7266ZM93.6304 46.6225L94.2957 47.3691H94.2957L93.6304 46.6225ZM124.831 18.6769L124.16 17.9352L124.831 18.6769ZM130.865 13.1829L130.187 12.4474L130.865 13.1829ZM132.748 11.4314L133.435 12.1582L133.435 12.1582L132.748 11.4314ZM133.372 10.8327L134.072 11.5471L134.072 11.5471L133.372 10.8327ZM133.39 10.8164L132.664 10.1285C132.284 10.5293 132.301 11.1622 132.702 11.5422C133.103 11.9221 133.736 11.9052 134.116 11.5043L133.39 10.8164ZM135.735 7.55126L136.639 7.97795V7.97795L135.735 7.55126ZM134.544 -2.30475L135.259 -3.00391L135.259 -3.00391L134.544 -2.30475ZM123.869 -5.71722L123.869 -6.71722L123.869 -5.71722ZM90.6213 49.3028L89.9563 48.556C89.6464 48.832 89.5391 49.2708 89.6868 49.6586C89.8344 50.0465 90.2063 50.3028 90.6213 50.3028V49.3028ZM98.1442 -23.1089L97.6438 -23.9747L98.1442 -23.1089ZM84.9621 -12.6035C84.6258 -12.1654 84.7084 -11.5376 85.1465 -11.2014C85.5847 -10.8651 86.2124 -10.9477 86.5487 -11.3858L84.9621 -12.6035ZM123.869 -29.297L123.869 -28.297L123.869 -29.297ZM151.403 -18.7908L152.118 -19.49L151.403 -18.7908ZM150.504 27.0383L149.778 26.3503V26.3503L150.504 27.0383ZM123.869 -17.5073L123.869 -18.5073L123.869 -17.5073ZM141.947 18.9272L141.221 18.2393L141.947 18.9272ZM115.937 42.5141L115.271 41.7687L115.937 42.5141ZM108.47 49.1857L107.804 48.4396C107.495 48.7159 107.388 49.1544 107.536 49.542C107.684 49.9296 108.055 50.1857 108.47 50.1857V49.1857ZM155.63 50.1857C156.183 50.1857 156.63 49.738 156.63 49.1857C156.63 48.6334 156.183 48.1857 155.63 48.1857V50.1857ZM90.3923 71.8829C89.84 71.8829 89.3923 72.3306 89.3923 72.8829C89.3923 73.4352 89.84 73.8829 90.3923 73.8829L90.3923 71.8829ZM155.63 73.8829C156.183 73.8829 156.63 73.4352 156.63 72.8829C156.63 72.3306 156.183 71.8829 155.63 71.8829V73.8829ZM241.954 51.4385L241.139 50.8588L241.134 50.8655L241.954 51.4385ZM241.954 -7.85278L241.134 -7.27984L241.139 -7.27316L241.954 -7.85278ZM200.086 -7.85278L199.271 -8.43242L199.266 -8.4257L200.086 -7.85278ZM200.086 51.4385L199.266 52.0114L199.271 52.0181L200.086 51.4385ZM190.479 -14.6864L189.664 -15.266V-15.266L190.479 -14.6864ZM251.59 -14.647L250.771 -14.0731L250.774 -14.0684L251.59 -14.647ZM251.59 58.2325L250.774 57.6538L250.771 57.6586L251.59 58.2325ZM190.479 58.2722L191.294 57.6926L191.294 57.6926L190.479 58.2722ZM190.423 58.1933L191.243 57.6204L191.243 57.6204L190.423 58.1933ZM190.423 -14.6075L191.243 -14.0346V-14.0346L190.423 -14.6075ZM209.722 -1.05852L208.909 -1.64034L208.901 -1.62919L209.722 -1.05852ZM209.722 44.6443L208.901 45.215L208.909 45.226L209.722 44.6443ZM232.291 44.6838L231.471 44.1108L231.471 44.1108L232.291 44.6838ZM232.347 44.6048L231.532 44.0252L231.532 44.0253L232.347 44.6048ZM232.347 -1.01901L231.532 -0.439411L231.532 -0.43939L232.347 -1.01901ZM232.291 -1.09793L231.471 -0.525002L231.471 -0.524982L232.291 -1.09793ZM299.77 1.75281C299.434 2.19093 299.517 2.81869 299.955 3.15494C300.393 3.4912 301.021 3.40862 301.357 2.97049L299.77 1.75281ZM306.047 -2.69436L305.547 -3.56012L306.047 -2.69436ZM345.445 50.3029C345.997 50.3029 346.445 49.8551 346.445 49.3029C346.445 48.7506 345.997 48.3029 345.445 48.3029V50.3029ZM304.179 33.7266L303.513 32.9813L304.179 33.7266ZM289.733 46.6225L290.398 47.3691L289.733 46.6225ZM320.934 18.6769L320.263 17.9352H320.263L320.934 18.6769ZM326.967 13.1829L326.29 12.4474L326.967 13.1829ZM328.85 11.4314L329.537 12.1582V12.1582L328.85 11.4314ZM329.474 10.8327L330.174 11.5471L330.174 11.5471L329.474 10.8327ZM329.492 10.8164L328.767 10.1285C328.387 10.5293 328.404 11.1623 328.804 11.5422C329.205 11.9221 329.838 11.9052 330.218 11.5044L329.492 10.8164ZM331.837 7.55127L332.742 7.97797L332.742 7.97796L331.837 7.55127ZM330.647 -2.30474L331.362 -3.0039V-3.00391L330.647 -2.30474ZM319.971 -5.71721V-6.71721V-5.71721ZM286.724 49.3029L286.059 48.556C285.749 48.832 285.642 49.2708 285.789 49.6586C285.937 50.0465 286.309 50.3029 286.724 50.3029V49.3029ZM294.247 -23.109L293.746 -23.9747L294.247 -23.109ZM281.065 -12.6036C280.728 -12.1654 280.811 -11.5377 281.249 -11.2014C281.687 -10.8652 282.315 -10.9478 282.651 -11.3859L281.065 -12.6036ZM319.971 -29.2971V-28.2971V-29.2971ZM347.506 -18.7909L348.221 -19.49L347.506 -18.7909ZM346.606 27.0382L345.88 26.3502V26.3502L346.606 27.0382ZM319.971 -17.5072V-18.5072V-17.5072ZM338.049 18.9273L337.323 18.2393L338.049 18.9273ZM312.04 42.5142L311.373 41.7688L312.04 42.5142ZM304.573 49.1858L303.907 48.4397C303.597 48.7159 303.49 49.1545 303.638 49.5421C303.786 49.9297 304.158 50.1858 304.573 50.1858V49.1858ZM351.733 50.1858C352.285 50.1858 352.733 49.7381 352.733 49.1858C352.733 48.6335 352.285 48.1858 351.733 48.1858V50.1858ZM286.495 71.883C285.942 71.883 285.495 72.3307 285.495 72.883C285.495 73.4353 285.942 73.883 286.495 73.883V71.883ZM351.733 73.883C352.285 73.883 352.733 73.4353 352.733 72.883C352.733 72.3307 352.285 71.883 351.733 71.883V73.883ZM377.101 38.8714C376.548 38.8714 376.101 39.3192 376.101 39.8714C376.101 40.4237 376.548 40.8714 377.101 40.8714V38.8714ZM450.985 40.8714C451.537 40.8714 451.985 40.4237 451.985 39.8714C451.985 39.3192 451.537 38.8714 450.985 38.8714V40.8714ZM377.101 49.8753C376.548 49.8753 376.101 50.3231 376.101 50.8753C376.101 51.4276 376.548 51.8753 377.101 51.8753V49.8753ZM450.985 51.8753C451.537 51.8753 451.985 51.4276 451.985 50.8753C451.985 50.3231 451.537 49.8753 450.985 49.8753V51.8753ZM415.913 28.0158V29.0158C416.465 29.0158 416.913 28.5681 416.913 28.0158H415.913ZM407.408 28.0158L406.599 27.4286C406.378 27.7329 406.347 28.1353 406.517 28.4701C406.688 28.805 407.032 29.0158 407.408 29.0158V28.0158ZM415.913 16.2913H416.913C416.913 15.858 416.634 15.4739 416.222 15.3402C415.81 15.2064 415.358 15.3534 415.104 15.7042L415.913 16.2913ZM431.513 -28.6641L431.836 -29.6104L431.513 -28.6641ZM418.376 -24.7185L417.585 -25.3302L418.376 -24.7185ZM377.602 28.0158L376.81 27.4041C376.577 27.7059 376.536 28.1141 376.704 28.4564C376.872 28.7988 377.22 29.0158 377.602 29.0158V28.0158ZM450.592 29.0158C451.144 29.0158 451.592 28.5681 451.592 28.0158C451.592 27.4635 451.144 27.0158 450.592 27.0158V29.0158ZM428.489 -17.5067H429.489C429.489 -17.9345 429.217 -18.3148 428.812 -18.4531C428.407 -18.5913 427.959 -18.4568 427.698 -18.1184L428.489 -17.5067ZM393.24 28.0813L392.449 27.4696C392.216 27.7714 392.174 28.1796 392.342 28.522C392.511 28.8643 392.859 29.0813 393.24 29.0813V28.0813ZM450.592 29.0813C451.144 29.0813 451.592 28.6336 451.592 28.0813C451.592 27.529 451.144 27.0813 450.592 27.0813V29.0813ZM105.254 2.97049C106.61 1.20458 108.069 -0.455341 110.445 -1.8286L109.444 -3.56013C106.738 -1.99563 105.088 -0.0982552 103.668 1.7528L105.254 2.97049ZM149.342 48.3028H126.031V50.3028H149.342V48.3028ZM107.41 32.9813C102.02 37.8027 96.8191 42.4416 92.9651 45.8759L94.2957 47.3691C98.1503 43.9343 103.352 39.2944 108.743 34.472L107.41 32.9813ZM124.16 17.9352C119.354 22.2817 113.277 27.7334 107.41 32.9813L108.743 34.472C114.611 29.2233 120.692 23.7688 125.502 19.4185L124.16 17.9352ZM130.187 12.4474C128.632 13.8793 126.566 15.7597 124.16 17.9352L125.502 19.4185C127.909 17.2415 129.981 15.3565 131.542 13.9185L130.187 12.4474ZM132.061 10.7047C131.594 11.1459 130.966 11.7297 130.187 12.4474L131.542 13.9185C132.324 13.1981 132.959 12.6078 133.435 12.1582L132.061 10.7047ZM132.672 10.1183C132.611 10.1784 132.427 10.3584 132.061 10.7047L133.435 12.1582C133.811 11.8022 134.004 11.6138 134.072 11.5471L132.672 10.1183ZM134.116 11.5043C134.117 11.503 134.128 11.4912 134.138 11.4797C134.141 11.4771 134.151 11.4661 134.163 11.4517C134.167 11.4464 134.184 11.4267 134.204 11.4001C134.212 11.3889 134.236 11.3565 134.261 11.3123C134.274 11.291 134.299 11.2466 134.324 11.1869C134.337 11.1544 134.406 10.9914 134.398 10.771C134.393 10.646 134.362 10.4438 134.223 10.2417C134.074 10.0235 133.863 9.89823 133.666 9.84344C133.352 9.75591 133.099 9.85229 133.066 9.86396C132.934 9.91055 132.842 9.97635 132.837 9.97971C132.79 10.0111 132.757 10.0401 132.753 10.0431C132.734 10.0589 132.72 10.0722 132.718 10.0742C132.702 10.0892 132.678 10.1131 132.672 10.1183L134.072 11.5471C134.095 11.5238 134.088 11.5315 134.077 11.5414C134.076 11.5427 134.062 11.5556 134.043 11.5711C134.04 11.5739 134.007 11.6028 133.96 11.6342C133.955 11.6375 133.863 11.7033 133.731 11.7499C133.698 11.7615 133.446 11.8579 133.131 11.7704C132.934 11.7156 132.723 11.5903 132.574 11.3721C132.435 11.17 132.404 10.9678 132.399 10.8428C132.391 10.6224 132.46 10.4594 132.474 10.4269C132.498 10.3673 132.523 10.3228 132.536 10.3016C132.562 10.2574 132.585 10.2251 132.593 10.214C132.613 10.1875 132.629 10.1679 132.634 10.1628C132.645 10.1488 132.655 10.1383 132.657 10.1365C132.664 10.1279 132.67 10.1217 132.664 10.1285L134.116 11.5043ZM134.83 7.12457C134.345 8.15357 133.649 9.08933 132.664 10.1285L134.116 11.5043C135.189 10.372 136.033 9.26248 136.639 7.97795L134.83 7.12457ZM135.73 2.55223C135.73 4.74748 135.285 6.15988 134.83 7.12457L136.639 7.97795C137.219 6.74799 137.73 5.04433 137.73 2.55223H135.73ZM133.829 -1.60559C135.278 -0.123747 135.73 1.62978 135.73 2.55223H137.73C137.73 1.13143 137.09 -1.13131 135.259 -3.00391L133.829 -1.60559ZM123.869 -4.71722C129.919 -4.71725 132.632 -2.83002 133.829 -1.60559L135.259 -3.00391C133.641 -4.65878 130.39 -6.71725 123.869 -6.71722L123.869 -4.71722ZM110.445 -1.8286C112.777 -3.17669 116.825 -4.71719 123.869 -4.71722L123.869 -6.71722C116.512 -6.71719 112.113 -5.10266 109.444 -3.56013L110.445 -1.8286ZM92.9651 45.8759C91.8369 46.8812 90.8243 47.7831 89.9563 48.556L91.2864 50.0497C92.1545 49.2767 93.1673 48.3746 94.2957 47.3691L92.9651 45.8759ZM90.6213 50.3028H126.031V48.3028H90.6213V50.3028ZM97.6438 -23.9747C91.0497 -20.163 87.1685 -15.4783 84.9621 -12.6035L86.5487 -11.3858C88.6879 -14.1732 92.3799 -18.6218 98.6447 -22.2431L97.6438 -23.9747ZM123.869 -30.297C112.835 -30.297 104.282 -27.8121 97.6438 -23.9747L98.6447 -22.2431C104.946 -25.8859 113.147 -28.297 123.869 -28.297L123.869 -30.297ZM152.118 -19.49C145.508 -26.2501 135.893 -30.2971 123.869 -30.297L123.869 -28.297C135.428 -28.2971 144.502 -24.418 150.688 -18.0916L152.118 -19.49ZM161.311 2.55243C161.311 -4.71107 158.477 -12.9878 152.118 -19.49L150.688 -18.0916C156.663 -11.9825 159.311 -4.21599 159.311 2.55243H161.311ZM151.229 27.7262C155.748 22.9586 161.311 15.0562 161.311 2.55243H159.311C159.311 14.3793 154.078 21.8142 149.778 26.3503L151.229 27.7262ZM126.698 50.048C137.493 40.3855 149.266 29.7971 151.229 27.7262L149.778 26.3503C147.889 28.3427 136.217 38.8438 125.364 48.5577L126.698 50.048ZM95.9016 -4.2078C97.6487 -6.48422 100.225 -9.53862 104.545 -12.036C108.862 -14.5314 114.986 -16.5072 123.869 -16.5073L123.869 -18.5073C114.674 -18.5072 108.198 -16.4575 103.544 -13.7675C98.8939 -11.0795 96.1287 -7.78864 94.315 -5.42548L95.9016 -4.2078ZM123.869 -16.5073C132.674 -16.5073 138.567 -13.6237 142.259 -9.84875C145.97 -6.0536 147.521 -1.29375 147.521 2.5522H149.521C149.521 -1.78945 147.784 -7.05936 143.689 -11.2471C139.574 -15.4549 133.141 -18.5073 123.869 -18.5073L123.869 -16.5073ZM147.521 2.5522C147.521 10.4024 144.215 15.0811 141.221 18.2393L142.673 19.6151C145.887 16.2234 149.521 11.0772 149.521 2.5522H147.521ZM90.3923 62.0928H155.63V60.0928H90.3923V62.0928ZM141.221 18.2393C139.641 19.9061 127.045 31.2363 115.271 41.7687L116.604 43.2594C128.318 32.7814 141.018 21.361 142.673 19.6151L141.221 18.2393ZM115.271 41.7687C112.697 44.0711 110.166 46.3317 107.804 48.4396L109.136 49.9317C111.498 47.8235 114.029 45.5624 116.604 43.2594L115.271 41.7687ZM108.47 50.1857H155.63V48.1857H108.47V50.1857ZM90.3923 73.8829L155.63 73.8829V71.8829L90.3923 71.8829L90.3923 73.8829ZM221.084 62.8789C230.433 62.8789 237.707 59.2593 242.774 52.0114L241.134 50.8655C236.47 57.5382 229.831 60.8789 221.084 60.8789V62.8789ZM242.769 52.0181C247.887 44.8232 250.38 34.7061 250.38 21.7929H248.38C248.38 34.4865 245.923 44.1332 241.139 50.8589L242.769 52.0181ZM250.38 21.7929C250.38 8.8796 247.887 -1.23748 242.769 -8.4324L241.139 -7.27316C245.923 -0.547522 248.38 9.09916 248.38 21.7929H250.38ZM242.774 -8.42571C237.707 -15.6736 230.433 -19.2932 221.084 -19.2932V-17.2932C229.831 -17.2932 236.47 -13.9525 241.134 -7.27986L242.774 -8.42571ZM221.084 -19.2932C211.735 -19.2932 204.422 -15.6743 199.271 -8.4324L200.901 -7.27316C205.651 -13.9518 212.337 -17.2932 221.084 -17.2932V-19.2932ZM199.266 -8.4257C194.238 -1.23194 191.788 8.88235 191.788 21.7929H193.788C193.788 9.09641 196.204 -0.553068 200.906 -7.27986L199.266 -8.4257ZM191.788 21.7929C191.788 34.7034 194.238 44.8176 199.266 52.0114L200.906 50.8655C196.204 44.1388 193.788 34.4893 193.788 21.7929H191.788ZM199.271 52.0181C204.422 59.26 211.735 62.8789 221.084 62.8789V60.8789C212.337 60.8789 205.651 57.5375 200.901 50.8589L199.271 52.0181ZM221.084 -31.0831C208.187 -31.0831 197.177 -25.829 189.664 -15.266L191.294 -14.1068C198.406 -24.1054 208.787 -29.0831 221.084 -29.0831V-31.0831ZM252.409 -15.2209C244.971 -25.8339 233.969 -31.0831 221.084 -31.0831V-29.0831C233.369 -29.0831 243.737 -24.1107 250.771 -14.0732L252.409 -15.2209ZM262.17 21.7929C262.17 7.60477 259.469 -5.26981 252.405 -15.2257L250.774 -14.0684C257.505 -4.58145 260.17 7.82351 260.17 21.7929H262.17ZM252.406 58.8111C259.469 48.8553 262.17 35.9809 262.17 21.7929H260.17C260.17 35.7621 257.506 48.1669 250.774 57.6538L252.406 58.8111ZM221.084 74.669C233.969 74.669 244.972 69.4196 252.409 58.8063L250.771 57.6586C243.737 67.6964 233.369 72.669 221.084 72.669V74.669ZM189.664 58.8519C197.177 69.4148 208.187 74.669 221.084 74.669V72.669C208.787 72.669 198.406 67.6913 191.294 57.6926L189.664 58.8519ZM189.603 58.7662C189.624 58.795 189.644 58.8236 189.664 58.8519L191.294 57.6926C191.276 57.6685 191.26 57.6444 191.243 57.6204L189.603 58.7662ZM179.998 21.7929C179.998 35.9651 182.651 48.8195 189.604 58.7663L191.243 57.6204C184.616 48.1409 181.998 35.7515 181.998 21.7929H179.998ZM189.604 -15.1804C182.651 -5.23365 179.998 7.62078 179.998 21.7929H181.998C181.998 7.83432 184.616 -4.55507 191.243 -14.0346L189.604 -15.1804ZM189.664 -15.266C189.644 -15.2376 189.624 -15.2091 189.604 -15.1804L191.243 -14.0346C191.26 -14.0586 191.277 -14.0827 191.294 -14.1068L189.664 -15.266ZM205.578 21.7929C205.578 10.3946 207.777 3.49225 210.543 -0.487846L208.901 -1.62919C205.812 2.81584 203.578 10.18 203.578 21.7929H205.578ZM210.543 44.0736C207.777 40.0935 205.578 33.1912 205.578 21.7929H203.578C203.578 33.4057 205.812 40.7699 208.901 45.2149L210.543 44.0736ZM221.084 49.089C218.456 49.089 216.423 48.6501 214.762 47.826C213.106 47.0042 211.754 45.7661 210.535 44.0625L208.909 45.226C210.275 47.1361 211.864 48.6203 213.873 49.6175C215.878 50.6123 218.234 51.089 221.084 51.089V49.089ZM231.471 44.1108C230.297 45.7912 228.987 47.016 227.364 47.831C225.736 48.6486 223.721 49.089 221.084 49.089V51.089C223.943 51.089 226.284 50.6111 228.262 49.6184C230.244 48.6229 231.791 47.1452 233.111 45.2567L231.471 44.1108ZM231.532 44.0253C231.512 44.0537 231.491 44.0822 231.471 44.1108L233.111 45.2568C233.127 45.2326 233.144 45.2085 233.162 45.1844L231.532 44.0253ZM236.59 21.7929C236.59 33.1918 234.348 40.0657 231.532 44.0252L233.162 45.1845C236.311 40.7562 238.59 33.4123 238.59 21.7929H236.59ZM231.532 -0.43939C234.348 3.52015 236.59 10.394 236.59 21.7929H238.59C238.59 10.1735 236.311 2.82966 233.162 -1.59863L231.532 -0.43939ZM231.471 -0.524982C231.492 -0.496252 231.512 -0.467726 231.532 -0.439411L233.162 -1.59861C233.144 -1.62275 233.127 -1.64684 233.111 -1.67087L231.471 -0.524982ZM221.084 -5.5031C223.721 -5.5031 225.736 -5.06275 227.364 -4.24512C228.987 -3.43013 230.297 -2.20531 231.471 -0.525002L233.111 -1.67085C231.791 -3.55931 230.244 -5.03708 228.262 -6.03249C226.284 -7.02525 223.943 -7.5031 221.084 -7.5031V-5.5031ZM210.535 -0.476749C211.754 -2.18027 213.106 -3.41836 214.762 -4.24013C216.423 -5.06424 218.456 -5.5031 221.084 -5.5031V-7.5031C218.234 -7.5031 215.878 -7.02645 213.873 -6.03166C211.864 -5.03453 210.275 -3.55033 208.909 -1.64029L210.535 -0.476749ZM301.357 2.97049C302.712 1.20458 304.172 -0.455336 306.548 -1.8286L305.547 -3.56012C302.84 -1.99563 301.191 -0.0982494 299.77 1.75281L301.357 2.97049ZM345.445 48.3029H322.134V50.3029H345.445V48.3029ZM303.513 32.9813C298.123 37.8027 292.922 42.4416 289.068 45.8759L290.398 47.3691C294.253 43.9343 299.455 39.2944 304.846 34.472L303.513 32.9813ZM320.263 17.9352C315.457 22.2817 309.38 27.7334 303.513 32.9813L304.846 34.472C310.714 29.2233 316.794 23.7688 321.604 19.4185L320.263 17.9352ZM326.29 12.4474C324.735 13.8793 322.668 15.7597 320.263 17.9352L321.604 19.4185C324.012 17.2415 326.083 15.3565 327.645 13.9185L326.29 12.4474ZM328.163 10.7047C327.697 11.1459 327.069 11.7297 326.29 12.4474L327.645 13.9185C328.427 13.1981 329.061 12.6078 329.537 12.1582L328.163 10.7047ZM328.775 10.1183C328.713 10.1784 328.53 10.3584 328.163 10.7047L329.537 12.1582C329.914 11.8022 330.106 11.6138 330.174 11.5471L328.775 10.1183ZM330.218 11.5043C330.219 11.503 330.231 11.4912 330.241 11.4796C330.243 11.4771 330.254 11.466 330.266 11.4516C330.27 11.4463 330.287 11.4265 330.306 11.3998C330.315 11.3886 330.338 11.3562 330.364 11.3119C330.377 11.2906 330.402 11.2462 330.426 11.1865C330.44 11.1538 330.508 10.9911 330.501 10.7711C330.496 10.6464 330.465 10.445 330.327 10.2433C330.179 10.0256 329.969 9.89973 329.772 9.84428C329.457 9.75559 329.203 9.85172 329.17 9.86346C329.037 9.91003 328.945 9.97603 328.94 9.97939C328.893 10.0109 328.859 10.0399 328.856 10.0429C328.837 10.0588 328.823 10.0721 328.821 10.0741C328.804 10.0892 328.78 10.1131 328.775 10.1183L330.174 11.5471C330.198 11.5238 330.19 11.5315 330.18 11.5415C330.178 11.5428 330.164 11.5557 330.146 11.5713C330.143 11.5741 330.109 11.6031 330.062 11.6345C330.058 11.6378 329.965 11.7038 329.833 11.7504C329.799 11.7621 329.546 11.8582 329.23 11.7695C329.033 11.7141 328.824 11.5882 328.675 11.3705C328.538 11.1688 328.506 10.9674 328.502 10.8427C328.494 10.6227 328.563 10.4601 328.576 10.4274C328.6 10.3677 328.626 10.3233 328.638 10.302C328.664 10.2577 328.688 10.2254 328.696 10.2142C328.715 10.1877 328.732 10.168 328.736 10.163C328.748 10.1489 328.758 10.1384 328.759 10.1366C328.767 10.128 328.773 10.1217 328.767 10.1285L330.218 11.5043ZM330.933 7.12457C330.447 8.15358 329.752 9.08934 328.767 10.1285L330.218 11.5044C331.291 10.372 332.136 9.26249 332.742 7.97797L330.933 7.12457ZM331.833 2.55223C331.833 4.74749 331.388 6.15989 330.933 7.12458L332.742 7.97796C333.322 6.748 333.833 5.04433 333.833 2.55223H331.833ZM329.932 -1.60558C331.381 -0.123739 331.833 1.62979 331.833 2.55223H333.833C333.833 1.13144 333.193 -1.1313 331.362 -3.0039L329.932 -1.60558ZM319.971 -4.71721C326.022 -4.71724 328.735 -2.83001 329.932 -1.60558L331.362 -3.00391C329.744 -4.65878 326.493 -6.71724 319.971 -6.71721V-4.71721ZM306.548 -1.8286C308.88 -3.17669 312.927 -4.71718 319.971 -4.71721V-6.71721C312.615 -6.71718 308.215 -5.10265 305.547 -3.56012L306.548 -1.8286ZM289.068 45.8759C287.939 46.8812 286.927 47.7831 286.059 48.556L287.389 50.0497C288.257 49.2767 289.27 48.3746 290.398 47.3691L289.068 45.8759ZM286.724 50.3029H322.134V48.3029H286.724V50.3029ZM293.746 -23.9747C287.152 -20.163 283.271 -15.4784 281.065 -12.6036L282.651 -11.3859C284.791 -14.1733 288.482 -18.6219 294.747 -22.2432L293.746 -23.9747ZM319.971 -30.2971C308.938 -30.2971 300.385 -27.8122 293.746 -23.9747L294.747 -22.2432C301.049 -25.8859 309.249 -28.2971 319.971 -28.2971L319.971 -30.2971ZM348.221 -19.49C341.61 -26.2501 331.996 -30.2972 319.971 -30.2971L319.971 -28.2971C331.53 -28.2972 340.604 -24.418 346.791 -18.0917L348.221 -19.49ZM357.413 2.55236C357.413 -4.71115 354.579 -12.9879 348.221 -19.49L346.791 -18.0917C352.765 -11.9826 355.413 -4.21606 355.413 2.55236H357.413ZM347.332 27.7261C351.851 22.9585 357.413 15.0561 357.413 2.55236H355.413C355.413 14.3792 350.18 21.8141 345.88 26.3502L347.332 27.7261ZM322.801 50.048C333.596 40.3855 345.369 29.797 347.332 27.7261L345.88 26.3502C343.992 28.3426 332.32 38.8438 321.467 48.5577L322.801 50.048ZM292.004 -4.20771C293.751 -6.48413 296.327 -9.53854 300.647 -12.0359C304.964 -14.5313 311.088 -16.5071 319.971 -16.5072V-18.5072C310.776 -18.5071 304.3 -16.4575 299.646 -13.7674C294.996 -11.0794 292.231 -7.78855 290.417 -5.42539L292.004 -4.20771ZM319.971 -16.5072C328.777 -16.5072 334.67 -13.6237 338.361 -9.84866C342.073 -6.05352 343.623 -1.29366 343.623 2.55228H345.623C345.623 -1.78936 343.886 -7.05927 339.791 -11.247C335.676 -15.4548 329.244 -18.5072 319.971 -18.5072V-16.5072ZM343.623 2.55228C343.623 10.4025 340.317 15.0812 337.323 18.2393L338.775 19.6152C341.99 16.2235 345.623 11.0772 345.623 2.55228H343.623ZM286.495 62.0929H351.733V60.0929H286.495V62.0929ZM337.323 18.2393C335.743 19.9062 323.148 31.2364 311.373 41.7688L312.706 43.2595C324.42 32.7815 337.12 21.3611 338.775 19.6152L337.323 18.2393ZM311.373 41.7688C308.799 44.0712 306.268 46.3318 303.907 48.4397L305.238 49.9318C307.6 47.8235 310.132 45.5624 312.706 43.2595L311.373 41.7688ZM304.573 50.1858H351.733V48.1858H304.573V50.1858ZM286.495 73.883L351.733 73.883V71.883L286.495 71.883V73.883ZM377.101 40.8714L450.985 40.8714V38.8714L377.101 38.8714V40.8714ZM377.101 51.8753L450.985 51.8753V49.8753L377.101 49.8753V51.8753ZM415.913 27.0158H407.408V29.0158H415.913V27.0158ZM414.913 16.2913V28.0158H416.913V16.2913H414.913ZM408.218 28.603L416.723 16.8785L415.104 15.7042L406.599 27.4286L408.218 28.603ZM440.493 -17.5067C440.493 -22.9774 437.014 -27.8424 431.836 -29.6104L431.19 -27.7177C435.558 -26.2262 438.493 -22.1219 438.493 -17.5067H440.493ZM440.493 28.0158V-17.5067H438.493V28.0158H440.493ZM431.836 -29.6104C426.659 -31.3784 420.931 -29.658 417.585 -25.3302L419.167 -24.1068C421.99 -27.7579 426.823 -29.2093 431.19 -27.7177L431.836 -29.6104ZM417.585 -25.3302L376.81 27.4041L378.393 28.6275L419.167 -24.1068L417.585 -25.3302ZM377.602 29.0158H439.493V27.0158H377.602V29.0158ZM427.489 -17.5067V28.0813H429.489V-17.5067H427.489ZM427.698 -18.1184L392.449 27.4696L394.031 28.693L429.28 -16.895L427.698 -18.1184ZM393.24 29.0813H428.489V27.0813H393.24V29.0813ZM428.489 29.0813H450.592V27.0813H428.489V29.0813ZM428.161 50.8753V72.8834H430.161V50.8753H428.161ZM415.584 50.8753V72.8834L417.584 72.8834V50.8753H415.584ZM438.379 50.8753V72.8834H440.379V50.8753H438.379ZM450.592 27.0158H439.493V29.0158H450.592V27.0158Z" fill="white"/>
</g>
<g style="mix-blend-mode:overlay" filter="url(#filter1_f_729_1038)">
<path fill-rule="evenodd" clip-rule="evenodd" d="M25.8629 243.03C20.237 243.03 15.6763 247.591 15.6763 253.217L15.6763 269.126C15.6763 271.73 16.9595 273.508 18.6168 274.668C20.3078 275.852 22.3437 276.353 23.643 276.353H68.7814C69.2856 276.353 69.6944 276.762 69.6944 277.266C69.6944 277.77 69.2856 278.179 68.7814 278.179H23.643C21.9824 278.179 19.5784 277.57 17.5697 276.164C15.5271 274.734 13.8504 272.442 13.8504 269.126L13.8504 253.217C13.8504 246.582 19.2286 241.204 25.8629 241.204H58.4218C58.926 241.204 59.3347 241.613 59.3347 242.117C59.3347 242.621 58.926 243.03 58.4218 243.03H25.8629Z" fill="white"/>
<path fill-rule="evenodd" clip-rule="evenodd" d="M16.828 210.65C18.936 208.04 22.2452 206.056 26.9729 206.056H68.7814C69.2856 206.056 69.6944 206.464 69.6944 206.968C69.6944 207.473 69.2856 207.881 68.7814 207.881H26.9729C22.821 207.881 20.0253 209.597 18.2485 211.797C16.4453 214.029 15.6763 216.784 15.6763 218.808L15.6763 233.608C15.6763 234.112 15.2675 234.52 14.7633 234.52C14.2591 234.52 13.8504 234.112 13.8504 233.608L13.8504 218.808C13.8504 216.393 14.7463 213.227 16.828 210.65Z" fill="white"/>
<path fill-rule="evenodd" clip-rule="evenodd" d="M25.6625 220.071C27.2191 218.196 29.6545 216.785 33.1039 216.785H68.7812C69.2854 216.785 69.6942 217.194 69.6942 217.698C69.6942 218.202 69.2854 218.611 68.7812 218.611H33.1039C30.2108 218.611 28.2855 219.77 27.0672 221.237C25.8227 222.736 25.2958 224.583 25.2958 225.923L25.2958 231.757C25.2958 232.262 24.887 232.67 24.3828 232.67C23.8786 232.67 23.4699 232.262 23.4699 231.757L23.4699 225.923C23.4699 224.179 24.1322 221.913 25.6625 220.071Z" fill="white"/>
<path fill-rule="evenodd" clip-rule="evenodd" d="M25.6274 265.022C27.1725 266.503 29.5486 267.449 32.8925 267.449H68.7812C69.2854 267.449 69.6942 267.04 69.6942 266.536C69.6942 266.032 69.2854 265.623 68.7812 265.623H32.8925C29.8938 265.623 28.015 264.781 26.891 263.704C25.7625 262.622 25.2958 261.209 25.2958 259.876C25.2958 256.702 27.8687 254.13 31.0426 254.13H58.4216C58.9258 254.13 59.3345 253.721 59.3345 253.217C59.3345 252.712 58.9258 252.304 58.4216 252.304H31.0426C26.8603 252.304 23.4699 255.694 23.4699 259.876C23.4699 261.628 24.0867 263.545 25.6274 265.022Z" fill="white"/>
<path fill-rule="evenodd" clip-rule="evenodd" d="M7.26151 201.869C9.92467 198.575 14.1058 196.066 20.1017 196.066H68.7814C69.2856 196.066 69.6943 196.474 69.6943 196.978C69.6943 197.483 69.2856 197.891 68.7814 197.891H20.1017C14.6808 197.891 11.0129 200.133 8.68129 203.017C6.32327 205.933 5.31662 209.528 5.31662 212.183V276.802C5.31662 280.247 7.02217 282.603 9.20807 284.131C11.4277 285.683 14.098 286.342 15.8204 286.342H64.3415C64.8457 286.342 65.2545 286.751 65.2545 287.255C65.2545 287.759 64.8457 288.168 64.3415 288.168H15.8204C13.7372 288.168 10.6991 287.402 8.1618 285.628C5.59074 283.83 3.49072 280.959 3.49072 276.802V212.183C3.49072 209.136 4.6247 205.129 7.26151 201.869Z" fill="white"/>
<path fill-rule="evenodd" clip-rule="evenodd" d="M22.903 232.671C13.1904 232.671 5.31662 240.545 5.31662 250.258L5.31662 276.802C5.31662 280.247 7.02217 282.603 9.20807 284.131C11.4277 285.683 14.098 286.342 15.8204 286.342L68.7814 286.343C69.2856 286.343 69.6943 286.751 69.6943 287.256C69.6943 287.76 69.2856 288.169 68.7814 288.169L15.8204 288.168C13.7372 288.168 10.6991 287.402 8.1618 285.628C5.59074 283.83 3.49072 280.959 3.49072 276.802L3.49073 250.258C3.49073 239.537 12.1818 230.845 22.903 230.845H58.4217C58.9259 230.845 59.3347 231.253 59.3347 231.758C59.3347 232.262 58.9259 232.671 58.4217 232.671H22.903Z" fill="white"/>
<path fill-rule="evenodd" clip-rule="evenodd" d="M87.2196 195.94C87.2196 195.436 87.6283 195.027 88.1325 195.027H159.91C160.414 195.027 160.823 195.436 160.823 195.94C160.823 196.444 160.414 196.853 159.91 196.853H88.1325C87.6283 196.853 87.2196 196.444 87.2196 195.94Z" fill="white"/>
<path fill-rule="evenodd" clip-rule="evenodd" d="M87.2196 206.3C87.2196 205.796 87.6283 205.387 88.1325 205.387H159.91C160.414 205.387 160.823 205.796 160.823 206.3C160.823 206.804 160.414 207.213 159.91 207.213H88.1325C87.6283 207.213 87.2196 206.804 87.2196 206.3Z" fill="white"/>
<path fill-rule="evenodd" clip-rule="evenodd" d="M87.2196 215.92C87.2196 215.415 87.6283 215.007 88.1325 215.007H159.91C160.414 215.007 160.823 215.415 160.823 215.92C160.823 216.424 160.414 216.833 159.91 216.833H88.1325C87.6283 216.833 87.2196 216.424 87.2196 215.92Z" fill="white"/>
<path fill-rule="evenodd" clip-rule="evenodd" d="M113.81 289.207C113.306 289.207 112.897 288.798 112.897 288.294V215.928C112.897 215.424 113.306 215.015 113.81 215.015C114.314 215.015 114.723 215.424 114.723 215.928V288.294C114.723 288.798 114.314 289.207 113.81 289.207Z" fill="white"/>
<path fill-rule="evenodd" clip-rule="evenodd" d="M124.531 289.207C124.027 289.207 123.618 288.798 123.618 288.294V215.928C123.618 215.424 124.027 215.015 124.531 215.015C125.035 215.015 125.444 215.424 125.444 215.928V288.294C125.444 288.798 125.035 289.207 124.531 289.207Z" fill="white"/>
<path fill-rule="evenodd" clip-rule="evenodd" d="M134.18 289.207C133.676 289.207 133.267 288.798 133.267 288.294V215.928C133.267 215.424 133.676 215.015 134.18 215.015C134.684 215.015 135.093 215.424 135.093 215.928V288.294C135.093 288.798 134.684 289.207 134.18 289.207Z" fill="white"/>
<path fill-rule="evenodd" clip-rule="evenodd" d="M179.261 257.601C178.757 257.601 178.348 257.192 178.348 256.688V196.01C178.348 195.506 178.757 195.097 179.261 195.097C179.765 195.097 180.174 195.506 180.174 196.01V256.688C180.174 257.192 179.765 257.601 179.261 257.601Z" fill="white"/>
<path fill-rule="evenodd" clip-rule="evenodd" d="M234.357 232.546C233.853 232.546 233.444 232.137 233.444 231.633V195.94C233.444 195.436 233.853 195.027 234.357 195.027C234.862 195.027 235.27 195.436 235.27 195.94V231.633C235.27 232.137 234.862 232.546 234.357 232.546Z" fill="white"/>
<path fill-rule="evenodd" clip-rule="evenodd" d="M255.077 232.546C254.572 232.546 254.164 232.137 254.164 231.633V195.94C254.164 195.436 254.572 195.027 255.077 195.027C255.581 195.027 255.989 195.436 255.989 195.94V231.633C255.989 232.137 255.581 232.546 255.077 232.546Z" fill="white"/>
<path fill-rule="evenodd" clip-rule="evenodd" d="M234.205 289.207C233.701 289.207 233.293 288.798 233.293 288.294V253.451C233.293 252.947 233.701 252.538 234.205 252.538C234.71 252.538 235.118 252.947 235.118 253.451V288.294C235.118 288.798 234.71 289.207 234.205 289.207Z" fill="white"/>
<path fill-rule="evenodd" clip-rule="evenodd" d="M191.1 232.382C190.596 232.382 190.188 231.973 190.188 231.469V196.01C190.188 195.506 190.596 195.097 191.1 195.097C191.605 195.097 192.013 195.506 192.013 196.01V231.469C192.013 231.973 191.605 232.382 191.1 232.382Z" fill="white"/>
<path fill-rule="evenodd" clip-rule="evenodd" d="M244.717 232.546C244.213 232.546 243.804 232.137 243.804 231.633V195.94C243.804 195.436 244.213 195.027 244.717 195.027C245.221 195.027 245.63 195.436 245.63 195.94V231.633C245.63 232.137 245.221 232.546 244.717 232.546Z" fill="white"/>
<path fill-rule="evenodd" clip-rule="evenodd" d="M244.926 289.207C244.422 289.207 244.013 288.798 244.013 288.294V253.451C244.013 252.947 244.422 252.538 244.926 252.538C245.431 252.538 245.839 252.947 245.839 253.451V288.294C245.839 288.798 245.431 289.207 244.926 289.207Z" fill="white"/>
<path fill-rule="evenodd" clip-rule="evenodd" d="M202.2 232.382C201.696 232.382 201.287 231.973 201.287 231.469V196.01C201.287 195.506 201.696 195.097 202.2 195.097C202.704 195.097 203.113 195.506 203.113 196.01V231.469C203.113 231.973 202.704 232.382 202.2 232.382Z" fill="white"/>
<path fill-rule="evenodd" clip-rule="evenodd" d="M255.111 288.135C254.607 288.135 254.198 287.726 254.198 287.222L254.198 253.451C254.198 252.947 254.607 252.538 255.111 252.538C255.615 252.538 256.024 252.947 256.024 253.451L256.024 287.222C256.024 287.726 255.615 288.135 255.111 288.135Z" fill="white"/>
<path fill-rule="evenodd" clip-rule="evenodd" d="M192.581 232.768C185.729 232.768 180.174 238.323 180.174 245.175V288.14C180.174 288.644 179.765 289.053 179.261 289.053C178.757 289.053 178.348 288.644 178.348 288.14V245.175C178.348 237.314 184.72 230.942 192.581 230.942H258.059C258.564 230.942 258.972 231.351 258.972 231.855C258.972 232.359 258.564 232.768 258.059 232.768H192.581Z" fill="white"/>
<path fill-rule="evenodd" clip-rule="evenodd" d="M201.618 243.489C195.992 243.489 191.431 248.05 191.431 253.676V288.14C191.431 288.644 191.022 289.053 190.518 289.053C190.014 289.053 189.605 288.644 189.605 288.14V253.676C189.605 247.041 194.983 241.663 201.618 241.663H258.059C258.564 241.663 258.972 242.072 258.972 242.576C258.972 243.08 258.564 243.489 258.059 243.489H201.618Z" fill="white"/>
<path fill-rule="evenodd" clip-rule="evenodd" d="M210.511 254.21C205.293 254.21 201.064 258.439 201.064 263.656V288.14C201.064 288.644 200.655 289.053 200.151 289.053C199.647 289.053 199.238 288.644 199.238 288.14V263.656C199.238 257.431 204.285 252.384 210.511 252.384H258.58C259.084 252.384 259.493 252.793 259.493 253.297C259.493 253.801 259.084 254.21 258.58 254.21H210.511Z" fill="white"/>
<path fill-rule="evenodd" clip-rule="evenodd" d="M314.56 217.103C307.754 217.103 305.124 218.4 303.494 219.833C302.795 220.447 302.36 221.491 302.341 222.628C302.323 223.757 302.718 224.847 303.505 225.562C304.402 226.376 305.323 226.919 307.21 227.484C309.142 228.062 312.014 228.642 316.793 229.546C327.917 231.651 337.059 234.927 343.549 240.364C350.755 246.402 353.582 254.144 353.582 262.069C353.582 271.355 348.765 279.196 341.3 284.129C334.103 288.884 324.802 290.816 314.742 290.348C294.539 289.408 283.921 281.433 277.735 273.56C277.424 273.164 277.493 272.59 277.889 272.278C278.286 271.967 278.859 272.036 279.171 272.432C285.035 279.895 295.164 287.609 314.827 288.524C324.624 288.98 333.509 287.088 340.294 282.605C347.308 277.97 351.756 270.672 351.756 262.069C351.756 254.616 349.118 247.412 342.376 241.763C336.24 236.622 327.461 233.423 316.454 231.34C311.704 230.442 308.729 229.844 306.687 229.233C304.6 228.608 303.419 227.95 302.278 226.914C301.026 225.778 300.49 224.142 300.516 222.598C300.541 221.061 301.125 219.485 302.289 218.462C304.384 216.62 307.523 215.278 314.56 215.278C320.954 215.278 325.035 216.924 327.552 218.662C328.805 219.528 329.657 220.407 330.207 221.094C330.481 221.437 330.68 221.732 330.816 221.952C330.884 222.062 330.936 222.153 330.974 222.222C330.993 222.257 331.008 222.286 331.019 222.308L331.033 222.335C331.038 222.345 331.037 222.343 331.037 222.342C331.268 222.79 331.092 223.341 330.644 223.572C330.196 223.804 329.646 223.628 329.414 223.18L329.414 223.179C329.395 223.14 328.671 221.655 326.514 220.165C324.334 218.659 320.625 217.103 314.56 217.103Z" fill="white"/>
<path fill-rule="evenodd" clip-rule="evenodd" d="M288.963 200.365C295.812 195.873 304.717 193.818 314.56 193.818C335.744 193.818 346.747 204.38 350.763 212.161C350.995 212.609 350.819 213.16 350.371 213.391C349.923 213.622 349.372 213.446 349.141 212.998C345.435 205.819 335.055 195.644 314.56 195.644C304.947 195.644 296.426 197.654 289.965 201.892C283.285 206.273 278.844 213.133 278.844 221.37C278.844 227.854 280.825 234.859 287.18 240.625C293.002 245.907 301.544 249.255 312.666 251.359C322.346 253.19 326.324 254.803 329.161 256.894C332.308 259.214 332.337 263.734 329.145 265.982C326.234 268.032 322.49 268.861 315.695 268.545C308.544 268.213 304.1 266.354 301.222 264.857C298.343 263.361 296.543 261.567 295.191 259.845C294.879 259.449 294.948 258.875 295.344 258.563C295.741 258.252 296.315 258.321 296.626 258.717C297.856 260.282 299.465 261.886 302.064 263.237C304.76 264.639 308.945 266.403 315.78 266.721C322.427 267.03 325.677 266.191 328.093 264.489C330.229 262.985 330.258 259.971 328.078 258.364C325.587 256.528 321.953 254.974 312.327 253.153C301.068 251.023 292.138 247.59 285.953 241.977C279.137 235.792 277.018 228.25 277.018 221.37C277.018 212.415 281.861 205.023 288.963 200.365Z" fill="white"/>
<path fill-rule="evenodd" clip-rule="evenodd" d="M295.051 209.646C299.546 206.698 306.119 204.918 314.56 204.918C331.554 204.918 338.771 213.128 340.9 217.252C341.131 217.7 340.955 218.251 340.507 218.482C340.059 218.713 339.509 218.537 339.277 218.089C337.459 214.567 330.864 206.744 314.56 206.744C306.35 206.744 300.16 208.479 296.052 211.173C291.964 213.854 289.943 217.473 289.943 221.371C289.943 225.426 291.076 229.173 294.639 232.405C298.249 235.681 304.438 238.506 314.729 240.453C325.147 242.424 332.081 245.237 336.42 248.872C340.814 252.553 342.482 257.022 342.482 262.069C342.482 267.219 339.894 271.754 335.181 274.868C330.489 277.969 323.714 279.654 315.257 279.26C298.338 278.473 290.693 272.087 286.463 266.703C286.151 266.306 286.22 265.733 286.617 265.421C287.013 265.11 287.587 265.178 287.898 265.575C291.808 270.55 298.963 276.675 315.342 277.437C323.535 277.818 329.894 276.173 334.174 273.345C338.434 270.53 340.656 266.539 340.656 262.069C340.656 257.496 339.179 253.565 335.248 250.272C331.262 246.933 324.691 244.196 314.39 242.247C303.962 240.274 297.386 237.364 293.412 233.757C289.39 230.108 288.118 225.825 288.118 221.371C288.118 216.759 290.537 212.607 295.051 209.646Z" fill="white"/>
<path fill-rule="evenodd" clip-rule="evenodd" d="M393.479 243.03C387.853 243.03 383.292 247.591 383.292 253.217V269.126C383.292 271.731 384.576 273.508 386.233 274.668C387.924 275.852 389.96 276.353 391.259 276.353H436.398C436.902 276.353 437.311 276.762 437.311 277.266C437.311 277.77 436.902 278.179 436.398 278.179H391.259C389.599 278.179 387.195 277.57 385.186 276.164C383.143 274.734 381.467 272.442 381.467 269.126V253.217C381.467 246.582 386.845 241.204 393.479 241.204H426.038C426.542 241.204 426.951 241.613 426.951 242.117C426.951 242.621 426.542 243.03 426.038 243.03H393.479Z" fill="white"/>
<path fill-rule="evenodd" clip-rule="evenodd" d="M384.444 210.65C386.552 208.04 389.861 206.056 394.589 206.056H436.398C436.902 206.056 437.311 206.464 437.311 206.969C437.311 207.473 436.902 207.882 436.398 207.882H394.589C390.437 207.882 387.642 209.597 385.865 211.797C384.061 214.03 383.292 216.784 383.292 218.808V233.608C383.292 234.112 382.884 234.521 382.38 234.521C381.875 234.521 381.467 234.112 381.467 233.608V218.808C381.467 216.393 382.363 213.227 384.444 210.65Z" fill="white"/>
<path fill-rule="evenodd" clip-rule="evenodd" d="M393.279 220.071C394.835 218.196 397.271 216.785 400.72 216.785H436.397C436.902 216.785 437.31 217.194 437.31 217.698C437.31 218.202 436.902 218.611 436.397 218.611H400.72C397.827 218.611 395.902 219.77 394.683 221.237C393.439 222.736 392.912 224.583 392.912 225.923V231.757C392.912 232.262 392.503 232.67 391.999 232.67C391.495 232.67 391.086 232.262 391.086 231.757V225.923C391.086 224.179 391.748 221.914 393.279 220.071Z" fill="white"/>
<path fill-rule="evenodd" clip-rule="evenodd" d="M393.244 265.022C394.789 266.503 397.165 267.449 400.509 267.449H436.397C436.902 267.449 437.31 267.04 437.31 266.536C437.31 266.032 436.902 265.623 436.397 265.623H400.509C397.51 265.623 395.631 264.782 394.507 263.704C393.379 262.622 392.912 261.209 392.912 259.876C392.912 256.703 395.485 254.13 398.659 254.13H426.038C426.542 254.13 426.951 253.721 426.951 253.217C426.951 252.712 426.542 252.304 426.038 252.304H398.659C394.477 252.304 391.086 255.694 391.086 259.876C391.086 261.628 391.703 263.545 393.244 265.022Z" fill="white"/>
<path fill-rule="evenodd" clip-rule="evenodd" d="M374.878 201.869C377.541 198.575 381.722 196.066 387.718 196.066H436.397C436.902 196.066 437.31 196.474 437.31 196.979C437.31 197.483 436.902 197.892 436.397 197.892H387.718C382.297 197.892 378.629 200.133 376.297 203.017C373.939 205.933 372.933 209.528 372.933 212.183V276.802C372.933 280.247 374.638 282.603 376.824 284.131C379.044 285.683 381.714 286.342 383.436 286.342H431.958C432.462 286.342 432.87 286.751 432.87 287.255C432.87 287.76 432.462 288.168 431.958 288.168H383.436C381.353 288.168 378.315 287.402 375.778 285.628C373.207 283.83 371.107 280.959 371.107 276.802V212.183C371.107 209.136 372.241 205.129 374.878 201.869Z" fill="white"/>
<path fill-rule="evenodd" clip-rule="evenodd" d="M390.519 232.671C380.806 232.671 372.933 240.545 372.933 250.258L372.933 276.802C372.933 280.247 374.638 282.603 376.824 284.131C379.044 285.683 381.714 286.342 383.436 286.342L436.397 286.343C436.902 286.343 437.31 286.751 437.31 287.256C437.31 287.76 436.902 288.169 436.397 288.169L383.436 288.168C381.353 288.168 378.315 287.402 375.778 285.628C373.207 283.83 371.107 280.959 371.107 276.802L371.107 250.258C371.107 239.537 379.798 230.845 390.519 230.845H426.038C426.542 230.845 426.951 231.253 426.951 231.758C426.951 232.262 426.542 232.671 426.038 232.671H390.519Z" fill="white"/>
<path fill-rule="evenodd" clip-rule="evenodd" d="M463.289 208.289C469.977 200.221 480.471 194.846 494.753 195.032C509.073 195.218 519.287 200.903 525.616 209.11C531.521 216.768 533.249 225.567 533.249 231.463V288.294C533.249 288.798 532.84 289.207 532.336 289.207C531.832 289.207 531.423 288.798 531.423 288.294V231.463C531.423 225.871 529.774 217.493 524.17 210.225C518.206 202.491 508.532 197.037 494.73 196.858C480.958 196.679 471.005 201.842 464.695 209.454C458.733 216.645 456.662 225.234 456.662 231.462V288.294C456.662 288.798 456.253 289.207 455.749 289.207C455.245 289.207 454.836 288.798 454.836 288.294V231.462C454.836 224.882 457.013 215.859 463.289 208.289ZM494.441 219.055C486.896 218.957 483.515 221.535 481.785 223.622C479.643 226.206 478.861 229.535 478.861 231.463V288.294C478.861 288.798 478.452 289.207 477.948 289.207C477.444 289.207 477.035 288.798 477.035 288.294V231.463C477.035 229.179 477.924 225.418 480.379 222.457C482.485 219.917 486.405 217.125 494.465 217.229C502.493 217.333 506.139 220.205 508.036 222.666C510.293 225.593 511.05 229.282 511.05 231.462V288.294C511.05 288.798 510.641 289.207 510.137 289.207C509.633 289.207 509.224 288.798 509.224 288.294V231.462C509.224 229.591 508.548 226.321 506.59 223.781C505.056 221.791 501.949 219.152 494.441 219.055Z" fill="white"/>
<path fill-rule="evenodd" clip-rule="evenodd" d="M473.24 216.538C469.189 221.425 467.762 227.385 467.762 231.463V288.294C467.762 288.294 467.762 288.294 466.849 288.294C465.936 288.294 465.936 288.294 465.936 288.294V231.463C465.936 227.031 467.469 220.639 471.834 215.373C476.231 210.069 483.439 205.986 494.609 206.131C505.783 206.276 512.713 210.554 516.826 215.888C520.907 221.181 522.15 227.425 522.15 231.463V288.294C522.15 288.294 522.15 288.294 521.237 288.294C520.324 288.294 520.324 288.294 520.324 288.294L520.324 231.463C520.324 227.731 519.161 221.907 515.38 217.003C511.631 212.141 505.242 208.095 494.586 207.956C483.927 207.818 477.26 211.689 473.24 216.538ZM466.849 289.207C466.344 289.207 465.936 288.798 465.936 288.294L466.849 288.294L467.762 288.294C467.762 288.798 467.353 289.207 466.849 289.207ZM521.237 289.207C520.733 289.207 520.324 288.798 520.324 288.294L521.237 288.294L522.15 288.294C522.15 288.798 521.741 289.207 521.237 289.207Z" fill="white"/>
<path fill-rule="evenodd" clip-rule="evenodd" d="M477.035 249.222C477.035 248.718 477.444 248.309 477.948 248.309L509.767 248.309C510.271 248.309 510.68 248.718 510.68 249.222C510.68 249.726 510.271 250.135 509.767 250.135L477.948 250.135C477.444 250.135 477.035 249.726 477.035 249.222Z" fill="white"/>
<path fill-rule="evenodd" clip-rule="evenodd" d="M477.035 238.862C477.035 238.358 477.444 237.949 477.948 237.949H509.767C510.271 237.949 510.68 238.358 510.68 238.862C510.68 239.366 510.271 239.775 509.767 239.775H477.948C477.444 239.775 477.035 239.366 477.035 238.862Z" fill="white"/>
<path fill-rule="evenodd" clip-rule="evenodd" d="M477.035 259.581C477.035 259.077 477.444 258.668 477.948 258.668L509.767 258.668C510.271 258.668 510.68 259.077 510.68 259.581C510.68 260.086 510.271 260.494 509.767 260.494H477.948C477.444 260.494 477.035 260.086 477.035 259.581Z" fill="white"/>
</g>
<defs>
<filter id="filter0_f_729_1038" x="81.7554" y="-34.0831" width="373.229" height="111.752" filterUnits="userSpaceOnUse" color-interpolation-filters="sRGB">
<feFlood flood-opacity="0" result="BackgroundImageFix"/>
<feBlend mode="normal" in="SourceGraphic" in2="BackgroundImageFix" result="shape"/>
<feGaussianBlur stdDeviation="1.5" result="effect1_foregroundBlur_729_1038"/>
</filter>
<filter id="filter1_f_729_1038" x="0.490723" y="190.818" width="535.758" height="102.598" filterUnits="userSpaceOnUse" color-interpolation-filters="sRGB">
<feFlood flood-opacity="0" result="BackgroundImageFix"/>
<feBlend mode="normal" in="SourceGraphic" in2="BackgroundImageFix" result="shape"/>
<feGaussianBlur stdDeviation="1.5" result="effect1_foregroundBlur_729_1038"/>
</filter>
</defs>
</svg>
