<svg width="48" height="49" viewBox="0 0 48 49" fill="none" xmlns="http://www.w3.org/2000/svg">
<path d="M18.4344 37.1529C29.7552 37.1529 35.9472 27.7737 35.9472 19.6401C35.9472 19.3737 35.9472 19.1085 35.9292 18.8445C37.1338 17.9732 38.1736 16.8944 39 15.6585C37.8767 16.1563 36.685 16.4827 35.4648 16.6269C36.7497 15.8577 37.7113 14.6479 38.1708 13.2225C36.9626 13.9395 35.6408 14.4447 34.2624 14.7165C33.3344 13.7297 32.107 13.0763 30.7702 12.8574C29.4335 12.6384 28.0618 12.8662 26.8675 13.5053C25.6731 14.1445 24.7228 15.1595 24.1634 16.3932C23.6041 17.6269 23.4669 19.0106 23.7732 20.3301C21.3261 20.2074 18.9322 19.5715 16.7468 18.4636C14.5614 17.3557 12.6334 15.8007 11.088 13.8993C10.3009 15.2543 10.0598 16.8584 10.4139 18.3849C10.7679 19.9113 11.6904 21.2455 12.9936 22.1157C12.0141 22.0867 11.0559 21.8225 10.2 21.3453C10.2 21.3705 10.2 21.3969 10.2 21.4233C10.2004 22.8444 10.6923 24.2216 11.5923 25.3213C12.4924 26.421 13.7451 27.1755 15.138 27.4569C14.2318 27.7041 13.2811 27.7402 12.3588 27.5625C12.7521 28.7855 13.5178 29.855 14.5489 30.6214C15.5799 31.3878 16.8247 31.8128 18.1092 31.8369C15.9297 33.5498 13.2373 34.4797 10.4652 34.4769C9.97548 34.476 9.48624 34.4463 9 34.3881C11.8148 36.1945 15.0899 37.1526 18.4344 37.1481" fill="white"/>
</svg>
